<svg version="1.1" viewBox="0 0 64 64" xmlns="http://www.w3.org/2000/svg" xmlns:xlink="http://www.w3.org/1999/xlink">
	<defs>
		<linearGradient id="f" x1="24" x2="24" y1="5.9094" y2="42.092" gradientTransform="matrix(1.4324 0 0 1.4363 -2.3784 -2.4708)" gradientUnits="userSpaceOnUse">
			<stop stop-color="#fff" offset="0"/>
			<stop stop-color="#fff" stop-opacity=".23529" offset=".034875"/>
			<stop stop-color="#fff" stop-opacity=".15686" offset=".96216"/>
			<stop stop-color="#fff" stop-opacity=".39216" offset="1"/>
		</linearGradient>
		<linearGradient id="a">
			<stop stop-color="#181818" offset="0"/>
			<stop stop-color="#181818" stop-opacity="0" offset="1"/>
		</linearGradient>
		<radialGradient id="h" cx="4.993" cy="43.5" r="2.5" gradientTransform="matrix(2.4045 0 0 1 41.986 15.5)" gradientUnits="userSpaceOnUse" xlink:href="#a"/>
		<radialGradient id="i" cx="4.993" cy="43.5" r="2.5" gradientTransform="matrix(2.4045 0 0 1 -22.014 -102.5)" gradientUnits="userSpaceOnUse" xlink:href="#a"/>
		<linearGradient id="g" x1="25.058" x2="25.058" y1="47.028" y2="39.999" gradientTransform="matrix(1.5714 0 0 .71429 -5.7143 27.929)" gradientUnits="userSpaceOnUse">
			<stop stop-color="#181818" stop-opacity="0" offset="0"/>
			<stop stop-color="#181818" offset=".5"/>
			<stop stop-color="#181818" stop-opacity="0" offset="1"/>
		</linearGradient>
	</defs>
	<rect x="54" y="56.5" width="6" height="5" fill="url(#h)" opacity=".6"/>
	<rect transform="scale(-1)" x="-10" y="-61.5" width="6" height="5" fill="url(#i)" opacity=".6"/>
	<rect x="10" y="56.5" width="44" height="5" fill="url(#g)" opacity=".6"/>
	<rect x="4.5" y="4.5" width="55" height="55" rx="6" ry="6" color="#000000" fill="#fff"/>
	<rect x="5.5" y="5.4288" width="53" height="53.142" rx="5" ry="5" fill="none" opacity=".3" stroke="url(#f)" stroke-linecap="round" stroke-linejoin="round"/>
	<rect x="4.5" y="4.5" width="55" height="55" rx="6" ry="6" color="#000000" fill="none" opacity=".5" stroke="#00c" stroke-linecap="round" stroke-linejoin="round"/>
	<style type="text/css">.st0{fill:#F3E517;}
	.st1{fill:#FF7901;}
	.st2{fill:#FF0101;}
	.st3{fill:none;}
	.st4{fill:#0000CC;}</style>
	<g transform="matrix(.087573 0 0 .087573 9.5902 9.5809)">
		<path class="st0" d="m244.68 169.87c-9.12 23-17.96 61.02-28.76 17.25-8-31-25.11 19.5-37.59 28.05-25.11 19.08-39 46.01-50.08 74.77-29.46-25.11-18.38 15.15-20.2 34.93 1.54 29.46-3.23 61.86 2.38 89.64 23.43 20.34 40.4 52.6 75.19 52.18 23.85 8.28 20.9-27.77 42.5 2.1 19.92 27.21 32.12 11.36 45.17-2.1 18.94 29.04 24.83-34.79 40.82-6.17 24.69 9.68 46.85 14.17 50.92-18.38 5.05-25.81 49.38-26.37 39-57.37-1.4-32.12 2.95-66.63-2.1-97.35-16.83-13.05-29.74-43.34-48.82-46.01-23.71 11.5-14.59-39.14-24.27-54.01-3.23-39.14-11.5-21.46-20.62 5.33-5.05 38.58-26.23 20.2-37.03-5.05-9.82-8.13-20.76-50.92-26.51-17.81z"/>
		<polygon class="st1" points="208.07 344.79 234.44 448.45 235.98 384.77 243.98 360.78 251.97 460.8 276.1 360.78 284.1 444.81 304.01 356.85 324.07 452.8 328 380.84 340.06 356.85 343.99 448.87 364.05 360.78 375.97 400.76 380.04 364.85 392.11 388.84 392.11 312.81 380.04 344.79 375.97 276.76 367.98 328.8 359.98 312.81 356.06 256.84 336 332.87 332.07 316.88 320.01 196.8 308.08 300.74 300.09 332.87 284.1 224.86 268.1 316.88 260.11 340.86 256.04 175.62 232.05 360.78 208.07 192.87 196 336.79 188.01 320.8 180.01 224.86 176.08 320.8 164.02 348.86 156.02 252.77 148.03 328.8 136.11 308.74 136.11 364.85 119.97 304.81 119.97 376.77 128.11 384.77 140.03 424.75 144.1 376.77 156.02 436.81 156.02 360.78 164.02 380.84 176.08 436.81 176.08 360.78 184.08 368.78 196 436.81"/>
		<path class="st2" d="m116.05 320.8 31.98 20.06 12.06-36.05 20.06 23.99 23.99-39.98 8 47.97 8-31.98 12.06 23.99 4.07-23.99s12.06 31.98 12.06 28.05c0-4.07 15.99-60.04 15.99-60.04l15.99 52.04 23.99-47.97 12.06 52.04 20.06-36.05 12.06 36.05 20.06-20.06 23.99 23.99v31.98l-15.99 12.06-23.99-8-15.99-8-4.07 39.98-8-39.98-15.99 36.05-24.41-36.19-8 36.05-15.99-23.99-20.06 52.04-12.06-60.04-23.98 12.09-15.99-24.13-8 39.98-15.99-20.06-15.99 20.06-8-12.06-23.99 4.07z"/>
		<path class="st3" d="m256.04 28.33c-53.02 0-101.42 16.55-137.19 44.33-35.63 27.77-58.92 67.61-58.92 111.94v15.99c-35.48 17.95-60.03 65.09-60.03 120.21 0 70.7 40.26 128.07 92.02 128.07v-264.27c0-33.1 17.11-63.68 46.57-86.69s71.12-37.59 117.41-37.59 87.95 14.73 117.41 37.59c29.46 23 46.57 53.44 46.57 86.69v264.28c51.76 0 92.02-57.37 92.02-128.07 0-55.27-24.55-102.26-60.04-120.21v-16c0-44.33-23.15-84.02-58.92-111.94-35.48-27.78-83.88-44.33-136.9-44.33zm-152.06 168.47v251.93c8 0 15.99-4.07 20.06-12.06v-231.87c-4.07-3.93-12.06-8-20.06-8zm304.12 0c-8 0-15.99 4.07-20.06 8v232.01c4.07 8 12.06 12.06 20.06 12.06z"/>
		<path class="st4" d="m256.04 28.33c-53.02 0-101.42 16.55-137.19 44.33-35.63 27.77-58.92 67.61-58.92 111.94v15.99c-35.48 17.95-60.03 65.09-60.03 120.21 0 70.7 40.26 128.07 92.02 128.07v-264.27c0-33.1 17.11-63.68 46.57-86.69s71.12-37.59 117.41-37.59 87.95 14.73 117.41 37.59c29.46 23 46.57 53.44 46.57 86.69v264.28c51.76 0 92.02-57.37 92.02-128.07 0-55.27-24.55-102.26-60.04-120.21v-16c0-44.33-23.15-84.02-58.92-111.94-35.48-27.78-83.88-44.33-136.9-44.33zm-152.06 168.47v251.93c8 0 15.99-4.07 20.06-12.06v-231.87c-4.07-3.93-12.06-8-20.06-8zm304.12 0c-8 0-15.99 4.07-20.06 8v232.01c4.07 8 12.06 12.06 20.06 12.06z"/>
	</g>
</svg>