<svg version="1.1" viewBox="0 0 64 64" xmlns="http://www.w3.org/2000/svg" xmlns:xlink="http://www.w3.org/1999/xlink">
	<defs>
		<linearGradient id="ai" x1="24" x2="24" y1="5.9094" y2="42.092" gradientTransform="matrix(1.4324 0 0 1.4363 -2.3784 -2.4708)" gradientUnits="userSpaceOnUse">
			<stop stop-color="#fff" offset="0"/>
			<stop stop-color="#fff" stop-opacity=".23529" offset=".034875"/>
			<stop stop-color="#fff" stop-opacity=".15686" offset=".96216"/>
			<stop stop-color="#fff" stop-opacity=".39216" offset="1"/>
		</linearGradient>
		<linearGradient id="w">
			<stop stop-color="#181818" offset="0"/>
			<stop stop-color="#181818" stop-opacity="0" offset="1"/>
		</linearGradient>
		<radialGradient id="ak" cx="4.993" cy="43.5" r="2.5" gradientTransform="matrix(2.4045 0 0 1 41.986 15.5)" gradientUnits="userSpaceOnUse" xlink:href="#w"/>
		<radialGradient id="al" cx="4.993" cy="43.5" r="2.5" gradientTransform="matrix(2.4045 0 0 1 -22.014 -102.5)" gradientUnits="userSpaceOnUse" xlink:href="#w"/>
		<linearGradient id="aj" x1="25.058" x2="25.058" y1="47.028" y2="39.999" gradientTransform="matrix(1.5714 0 0 .71429 -5.7143 27.929)" gradientUnits="userSpaceOnUse">
			<stop stop-color="#181818" stop-opacity="0" offset="0"/>
			<stop stop-color="#181818" offset=".5"/>
			<stop stop-color="#181818" stop-opacity="0" offset="1"/>
		</linearGradient>
		<linearGradient id="ag" x1="23.576" x2="23.576" y1="25.357" y2="31.211" gradientTransform="matrix(.87539 -.87968 .97933 .97445 137.39 31.067)" gradientUnits="userSpaceOnUse">
			<stop stop-color="#181818" offset="0"/>
			<stop stop-color="#dbdbdb" offset=".13483"/>
			<stop stop-color="#a4a4a4" offset=".20224"/>
			<stop stop-color="#fff" offset=".26966"/>
			<stop stop-color="#8d8d8d" offset=".4465"/>
			<stop stop-color="#959595" offset=".57114"/>
			<stop stop-color="#cecece" offset=".72038"/>
			<stop stop-color="#181818" offset="1"/>
		</linearGradient>
		<linearGradient id="af" x1="30.038" x2="30.038" y1="24.99" y2="30" gradientTransform="matrix(.85064 -.85481 1.1461 1.1404 134.19 26.565)" gradientUnits="userSpaceOnUse" xlink:href="#u"/>
		<linearGradient id="u">
			<stop stop-color="#565656" offset="0"/>
			<stop stop-color="#9a9a9a" offset=".5"/>
			<stop stop-color="#545454" offset="1"/>
		</linearGradient>
		<linearGradient id="ae" x1="30.038" x2="30.038" y1="24.99" y2="30" gradientTransform="matrix(.85064 -.85481 1.1461 1.1404 133.94 26.81)" gradientUnits="userSpaceOnUse" xlink:href="#t"/>
		<linearGradient id="t">
			<stop stop-color="#b1b1b1" offset="0"/>
			<stop stop-color="#fff" offset=".5"/>
			<stop stop-color="#8f8f8f" offset="1"/>
		</linearGradient>
		<linearGradient id="ad" x1="30.038" x2="30.038" y1="24.99" y2="30" gradientTransform="matrix(.85064 -.85481 1.1461 1.1404 135.03 25.715)" gradientUnits="userSpaceOnUse" xlink:href="#u"/>
		<linearGradient id="ac" x1="30.038" x2="30.038" y1="24.99" y2="30" gradientTransform="matrix(.85064 -.85481 1.1461 1.1404 134.79 25.959)" gradientUnits="userSpaceOnUse" xlink:href="#t"/>
		<linearGradient id="ab" x1="30.038" x2="30.038" y1="24.99" y2="30" gradientTransform="matrix(.85064 -.85481 1.1461 1.1404 135.88 24.86)" gradientUnits="userSpaceOnUse" xlink:href="#u"/>
		<linearGradient id="aa" x1="30.038" x2="30.038" y1="24.99" y2="30" gradientTransform="matrix(.85064 -.85481 1.1461 1.1404 135.64 25.105)" gradientUnits="userSpaceOnUse" xlink:href="#t"/>
		<linearGradient id="y" x1="9" x2="9" y1="29.057" y2="26.03" gradientTransform="matrix(.85064 -.85481 1.1461 1.1404 133.86 26.89)" gradientUnits="userSpaceOnUse">
			<stop stop-color="#ece5a5" offset="0"/>
			<stop stop-color="#fcfbf2" offset="1"/>
		</linearGradient>
		<linearGradient id="z" x1="5.5179" x2="9.5221" y1="37.372" y2="41.392" gradientTransform="matrix(.74712 .032247 .032207 .7462 164.81 22.055)" gradientUnits="userSpaceOnUse">
			<stop stop-color="#dbce48" offset="0"/>
			<stop stop-color="#c5b625" offset="1"/>
		</linearGradient>
		<linearGradient id="ah" x1="19.868" x2="19.868" y1="13.068" y2="17.314" gradientTransform="matrix(1.3235 0 0 -1.3235 -.647 43.033)" gradientUnits="userSpaceOnUse">
			<stop offset="0"/>
			<stop stop-opacity="0" offset="1"/>
		</linearGradient>
		<clipPath id="v">
			<path d="m15 8c-0.277 0-0.5 0.223-0.5 0.5v1.6875c-0.54864 0.14074-1.055 0.37601-1.5312 0.65625l-1.2188-1.2188c-0.19587-0.19587-0.49163-0.19587-0.6875 0l-1.4375 1.4375c-0.19587 0.19587-0.19587 0.49163 0 0.6875l1.2188 1.2188c-0.28024 0.47623-0.51551 0.98261-0.65625 1.5312h-1.6875c-0.277 0-0.5 0.223-0.5 0.5v2c0 0.277 0.223 0.5 0.5 0.5h1.6875c0.14074 0.54864 0.37601 1.055 0.65625 1.5312l-1.2188 1.2188c-0.19587 0.19587-0.19587 0.49163 0 0.6875l1.4375 1.4375c0.19587 0.19587 0.49163 0.19587 0.6875 0l1.2188-1.2188c0.47623 0.28024 0.98261 0.51551 1.5312 0.65625v1.6875c0 0.277 0.223 0.5 0.5 0.5h2c0.277 0 0.5-0.223 0.5-0.5v-1.6875c0.54864-0.14074 1.055-0.37601 1.5312-0.65625l1.2188 1.2188c0.19587 0.19587 0.49163 0.19587 0.6875 0l1.4375-1.4375c0.19587-0.19587 0.19587-0.49163 0-0.6875l-1.2188-1.2188c0.28024-0.47623 0.51551-0.98261 0.65625-1.5312h1.6875c0.277 0 0.5-0.223 0.5-0.5v-2c0-0.277-0.223-0.5-0.5-0.5h-1.6875c-0.14074-0.54864-0.37601-1.055-0.65625-1.5312l1.2188-1.2188c0.19587-0.19587 0.19587-0.49163 0-0.6875l-1.4375-1.4375c-0.19587-0.19587-0.49163-0.19587-0.6875 0l-1.2188 1.2188c-0.47623-0.28024-0.98261-0.51551-1.5312-0.65625v-1.6875c0-0.277-0.223-0.5-0.5-0.5zm1 5c1.6569 0 3 1.3431 3 3s-1.3431 3-3 3-3-1.3431-3-3 1.3431-3 3-3z" color="#000000"/>
		</clipPath>
		<filter id="x" x="-.2976" y="-1.24" width="1.5952" height="3.48" color-interpolation-filters="sRGB">
			<feGaussianBlur stdDeviation="0.78286824"/>
		</filter>
	</defs>
	<rect x="54" y="56.5" width="6" height="5" fill="url(#ak)" opacity=".6"/>
	<rect transform="scale(-1)" x="-10" y="-61.5" width="6" height="5" fill="url(#al)" opacity=".6"/>
	<rect x="10" y="56.5" width="44" height="5" fill="url(#aj)" opacity=".6"/>
	<rect x="4.5" y="4.5" width="55" height="55" rx="6" ry="6" color="#000000" fill="#ececec"/>
	<rect x="5.5" y="5.4288" width="53" height="53.142" rx="5" ry="5" fill="none" opacity=".3" stroke="url(#ai)" stroke-linecap="round" stroke-linejoin="round"/>
	<rect x="4.5" y="4.5" width="55" height="55" rx="6" ry="6" color="#000000" fill="none" opacity=".5" stroke="#000" stroke-linecap="round" stroke-linejoin="round" stroke-opacity=".29804"/>
	<g transform="matrix(.83882 0 0 .83882 -57.049 5.1579)">
		<ellipse transform="matrix(1.132 0 0 1.132 82.693 -35.247)" cx="14.395" cy="45.853" rx="3.1567" ry=".75761" filter="url(#x)" opacity=".08"/>
		<g shape-rendering="auto">
			<rect x="106.16" y="33.868" width="22.666" height="1.9969" rx="0" ry=".99844" color="#000000" color-rendering="auto" fill="#34a8ed" image-rendering="auto" solid-color="#000000" style="isolation:auto;mix-blend-mode:normal"/>
			<circle cx="86.63" cy="10.374" r="1.879" color="#000000" color-rendering="auto" fill="#bcbcbc" image-rendering="auto" opacity=".24" solid-color="#000000" stroke="#a1a1a1" stroke-linejoin="round" stroke-width=".18315" style="isolation:auto;mix-blend-mode:normal"/>
			<rect x="91.284" y="9.6036" width="22.94" height="1.2978" ry=".55383" color="#000000" color-rendering="auto" fill="#bcbcbc" image-rendering="auto" opacity=".24" solid-color="#000000" stroke="#a1a1a1" stroke-linejoin="round" stroke-width=".2836" style="isolation:auto;mix-blend-mode:normal"/>
		</g>
		<g transform="matrix(.92954 0 0 .92954 74.766 13.25)">
			<rect x="2.6618" y="2.6618" width="35.735" height="35.735" rx="2.8588" ry="2.8588" color="#000000" opacity="0" stroke-width="1.3235"/>
			<path d="m19.206 11.265c-0.36661 0-0.66175 0.29514-0.66175 0.66175v2.2334c-0.72612 0.18627-1.3963 0.49765-2.0266 0.86855l-1.613-1.613c-0.25923-0.25923-0.65067-0.25923-0.90991 0l-1.9025 1.9025c-0.25923 0.25923-0.25923 0.65067 0 0.90991l1.613 1.613c-0.3709 0.63029-0.68228 1.3005-0.86855 2.0266h-2.2334c-0.36661 0-0.66175 0.29514-0.66175 0.66175v2.647c0 0.36661 0.29514 0.66175 0.66175 0.66175h2.2334c0.18627 0.72613 0.49765 1.3963 0.86855 2.0266l-1.613 1.613c-0.25923 0.25923-0.25923 0.65068 0 0.90991l1.9025 1.9025c0.25923 0.25923 0.65067 0.25923 0.90991 0l1.613-1.613c0.63029 0.3709 1.3005 0.68228 2.0266 0.86855v2.2334c0 0.36661 0.29514 0.66175 0.66175 0.66175h2.647c0.36661 0 0.66175-0.29514 0.66175-0.66175v-2.2334c0.72612-0.18627 1.3963-0.49765 2.0266-0.86855l1.613 1.613c0.25923 0.25923 0.65067 0.25923 0.90991 0l1.9025-1.9025c0.25923-0.25923 0.25923-0.65067 0-0.90991l-1.613-1.613c0.3709-0.63029 0.68228-1.3005 0.86855-2.0266h2.2334c0.36661 0 0.66175-0.29514 0.66175-0.66175v-2.647c0-0.36661-0.29514-0.66175-0.66175-0.66175h-2.2334c-0.18627-0.72612-0.49765-1.3963-0.86855-2.0266l1.613-1.613c0.25923-0.25923 0.25923-0.65067 0-0.90991l-1.9025-1.9025c-0.25923-0.25923-0.65067-0.25923-0.90991 0l-1.613 1.613c-0.63029-0.3709-1.3005-0.68228-2.0266-0.86855v-2.2334c0-0.36661-0.29514-0.66175-0.66175-0.66175zm1.3235 6.6175c2.1928 0 3.9705 1.7777 3.9705 3.9705s-1.7777 3.9705-3.9705 3.9705-3.9705-1.7777-3.9705-3.9705 1.7777-3.9705 3.9705-3.9705z" color="#000000" fill="#fff" opacity=".4"/>
			<path d="m19.206 11.265c-0.36661 0-0.66175 0.29514-0.66175 0.66175v2.2334c-0.72612 0.18627-1.3963 0.49765-2.0266 0.86855l-1.613-1.613c-0.25923-0.25923-0.65067-0.25923-0.90991 0l-1.9025 1.9025c-0.25923 0.25923-0.25923 0.65067 0 0.90991l1.613 1.613c-0.3709 0.63029-0.68228 1.3005-0.86855 2.0266h-2.2334c-0.36661 0-0.66175 0.29514-0.66175 0.66175v2.647c0 0.36661 0.29514 0.66175 0.66175 0.66175h2.2334c0.18627 0.72613 0.49765 1.3963 0.86855 2.0266l-1.613 1.613c-0.25923 0.25923-0.25923 0.65068 0 0.90991l1.9025 1.9025c0.25923 0.25923 0.65067 0.25923 0.90991 0l1.613-1.613c0.63029 0.3709 1.3005 0.68228 2.0266 0.86855v2.2334c0 0.36661 0.29514 0.66175 0.66175 0.66175h2.647c0.36661 0 0.66175-0.29514 0.66175-0.66175v-2.2334c0.72612-0.18627 1.3963-0.49765 2.0266-0.86855l1.613 1.613c0.25923 0.25923 0.65067 0.25923 0.90991 0l1.9025-1.9025c0.25923-0.25923 0.25923-0.65067 0-0.90991l-1.613-1.613c0.3709-0.63029 0.68228-1.3005 0.86855-2.0266h2.2334c0.36661 0 0.66175-0.29514 0.66175-0.66175v-2.647c0-0.36661-0.29514-0.66175-0.66175-0.66175h-2.2334c-0.18627-0.72612-0.49765-1.3963-0.86855-2.0266l1.613-1.613c0.25923-0.25923 0.25923-0.65067 0-0.90991l-1.9025-1.9025c-0.25923-0.25923-0.65067-0.25923-0.90991 0l-1.613 1.613c-0.63029-0.3709-1.3005-0.68228-2.0266-0.86855v-2.2334c0-0.36661-0.29514-0.66175-0.66175-0.66175zm1.3235 6.6175c2.1928 0 3.9705 1.7777 3.9705 3.9705s-1.7777 3.9705-3.9705 3.9705-3.9705-1.7777-3.9705-3.9705 1.7777-3.9705 3.9705-3.9705z" color="#000000" fill="#c9c9c9" opacity=".537"/>
			<path d="m19.206 9.941c-0.36661 0-0.66175 0.29514-0.66175 0.66175v2.2334c-0.72612 0.18627-1.3963 0.49765-2.0266 0.86855l-1.613-1.613c-0.25923-0.25923-0.65067-0.25923-0.90991 0l-1.9025 1.9025c-0.25923 0.25923-0.25923 0.65067 0 0.90991l1.613 1.613c-0.3709 0.63029-0.68228 1.3005-0.86855 2.0266h-2.2334c-0.36661 0-0.66175 0.29514-0.66175 0.66175v2.647c0 0.36661 0.29514 0.66175 0.66175 0.66175h2.2334c0.18627 0.72612 0.49765 1.3963 0.86855 2.0266l-1.613 1.613c-0.25923 0.25923-0.25923 0.65068 0 0.90991l1.9025 1.9025c0.25923 0.25923 0.65067 0.25923 0.90991 0l1.613-1.613c0.63029 0.3709 1.3005 0.68228 2.0266 0.86855v2.2334c0 0.36661 0.29514 0.66175 0.66175 0.66175h2.647c0.36661 0 0.66175-0.29514 0.66175-0.66175v-2.2334c0.72612-0.18627 1.3963-0.49765 2.0266-0.86855l1.613 1.613c0.25923 0.25923 0.65067 0.25923 0.90991 0l1.9025-1.9025c0.25923-0.25923 0.25923-0.65067 0-0.90991l-1.613-1.613c0.3709-0.63029 0.68228-1.3005 0.86855-2.0266h2.2334c0.36661 0 0.66175-0.29514 0.66175-0.66175v-2.647c0-0.36661-0.29514-0.66175-0.66175-0.66175h-2.2334c-0.18627-0.72612-0.49765-1.3963-0.86855-2.0266l1.613-1.613c0.25923-0.25923 0.25923-0.65067 0-0.90991l-1.9025-1.9025c-0.25923-0.25923-0.65067-0.25923-0.90991 0l-1.613 1.613c-0.63029-0.3709-1.3005-0.68228-2.0266-0.86855v-2.2334c0-0.36661-0.29514-0.66175-0.66175-0.66175zm1.3235 6.6175c2.1928 0 3.9705 1.7777 3.9705 3.9705s-1.7777 3.9705-3.9705 3.9705-3.9705-1.7777-3.9705-3.9705 1.7777-3.9705 3.9705-3.9705z" color="#000000" fill="#2be5cb"/>
			<path d="m20.529 25.249c2.5641 0.07034 4.8485-2.2765 4.7134-4.8367 0.0053-2.5662-2.4017-4.7861-4.9561-4.5871-2.5665 0.05977-4.721 2.5244-4.4586 5.0716 0.13782 2.3974 2.3016 4.3979 4.7012 4.3522z" color="#000000" fill="none" opacity=".05" stroke="url(#ah)" stroke-linejoin="round" stroke-width="1.3235"/>
			<path transform="matrix(1.3235 0 0 1.3235 -.647 -.647)" d="m15 8c-0.277 0-0.5 0.223-0.5 0.5v1.6875c-0.54864 0.14074-1.055 0.37601-1.5312 0.65625l-1.2188-1.2188c-0.19587-0.19587-0.49163-0.19587-0.6875 0l-1.4375 1.4375c-0.19587 0.19587-0.19587 0.49163 0 0.6875l1.2188 1.2188c-0.28024 0.47623-0.51551 0.98261-0.65625 1.5312h-1.6875c-0.277 0-0.5 0.223-0.5 0.5v2c0 0.277 0.223 0.5 0.5 0.5h1.6875c0.14074 0.54864 0.37601 1.055 0.65625 1.5312l-1.2188 1.2188c-0.19587 0.19587-0.19587 0.49163 0 0.6875l1.4375 1.4375c0.19587 0.19587 0.49163 0.19587 0.6875 0l1.2188-1.2188c0.47623 0.28024 0.98261 0.51551 1.5312 0.65625v1.6875c0 0.277 0.223 0.5 0.5 0.5h2c0.277 0 0.5-0.223 0.5-0.5v-1.6875c0.54864-0.14074 1.055-0.37601 1.5312-0.65625l1.2188 1.2188c0.19587 0.19587 0.49163 0.19587 0.6875 0l1.4375-1.4375c0.19587-0.19587 0.19587-0.49163 0-0.6875l-1.2188-1.2188c0.28024-0.47623 0.51551-0.98261 0.65625-1.5312h1.6875c0.277 0 0.5-0.223 0.5-0.5v-2c0-0.277-0.223-0.5-0.5-0.5h-1.6875c-0.14074-0.54864-0.37601-1.055-0.65625-1.5312l1.2188-1.2188c0.19587-0.19587 0.19587-0.49163 0-0.6875l-1.4375-1.4375c-0.19587-0.19587-0.49163-0.19587-0.6875 0l-1.2188 1.2188c-0.47623-0.28024-0.98261-0.51551-1.5312-0.65625v-1.6875c0-0.277-0.223-0.5-0.5-0.5zm1 5c1.6569 0 3 1.3431 3 3s-1.3431 3-3 3-3-1.3431-3-3 1.3431-3 3-3z" clip-path="url(#v)" color="#000000" fill="#c9c9c9" opacity=".05" stroke="#000" stroke-width="2"/>
			<path transform="matrix(1.3235 0 0 1.3235 -.647 -.647)" d="m15 8c-0.277 0-0.5 0.223-0.5 0.5v1.6875c-0.54864 0.14074-1.055 0.37601-1.5312 0.65625l-1.2188-1.2188c-0.19587-0.19587-0.49163-0.19587-0.6875 0l-1.4375 1.4375c-0.19587 0.19587-0.19587 0.49163 0 0.6875l1.2188 1.2188c-0.28024 0.47623-0.51551 0.98261-0.65625 1.5312h-1.6875c-0.277 0-0.5 0.223-0.5 0.5v2c0 0.277 0.223 0.5 0.5 0.5h1.6875c0.14074 0.54864 0.37601 1.055 0.65625 1.5312l-1.2188 1.2188c-0.19587 0.19587-0.19587 0.49163 0 0.6875l1.4375 1.4375c0.19587 0.19587 0.49163 0.19587 0.6875 0l1.2188-1.2188c0.47623 0.28024 0.98261 0.51551 1.5312 0.65625v1.6875c0 0.277 0.223 0.5 0.5 0.5h2c0.277 0 0.5-0.223 0.5-0.5v-1.6875c0.54864-0.14074 1.055-0.37601 1.5312-0.65625l1.2188 1.2188c0.19587 0.19587 0.49163 0.19587 0.6875 0l1.4375-1.4375c0.19587-0.19587 0.19587-0.49163 0-0.6875l-1.2188-1.2188c0.28024-0.47623 0.51551-0.98261 0.65625-1.5312h1.6875c0.277 0 0.5-0.223 0.5-0.5v-2c0-0.277-0.223-0.5-0.5-0.5h-1.6875c-0.14074-0.54864-0.37601-1.055-0.65625-1.5312l1.2188-1.2188c0.19587-0.19587 0.19587-0.49163 0-0.6875l-1.4375-1.4375c-0.19587-0.19587-0.49163-0.19587-0.6875 0l-1.2188 1.2188c-0.47623-0.28024-0.98261-0.51551-1.5312-0.65625v-1.6875c0-0.277-0.223-0.5-0.5-0.5zm1 5c1.6569 0 3 1.3431 3 3s-1.3431 3-3 3-3-1.3431-3-3 1.3431-3 3-3z" clip-path="url(#v)" color="#000000" fill="none" opacity=".1" stroke="#000"/>
		</g>
		<rect x="106.14" y="28.685" width="17.775" height="1.9913" rx="0" ry=".99565" color="#000000" color-rendering="auto" fill="#5bdb4e" image-rendering="auto" shape-rendering="auto" solid-color="#000000" style="isolation:auto;mix-blend-mode:normal"/>
		<rect x="91.284" y="15.614" width="22.94" height="1.2978" ry=".55383" color="#000000" color-rendering="auto" fill="#bcbcbc" image-rendering="auto" opacity=".594" shape-rendering="auto" solid-color="#000000" stroke="#a1a1a1" stroke-linejoin="round" stroke-width=".2836" style="isolation:auto;mix-blend-mode:normal"/>
		<g transform="matrix(.71342 0 0 .71342 -11.386 -9.5235)">
			<path d="m190.03 36.508c-0.231-0.13598-0.40974-0.10061-0.52782-0.02495l-15.728 10.015-2.8946 1.8484-0.0891 0.0374-3.4271 7.7224 8.4932 0.25582 0.0705-0.04718 2.9132-1.8386 15.724-10.101c0.47234-0.30264-0.27468-2.3085-1.6757-4.5073-1.0508-1.6491-2.1656-2.9517-2.8586-3.3596z" fill="#0c0c0c" fill-rule="evenodd" opacity=".15"/>
			<path d="m171.99 45.953c0.59454-0.44614 2.2627 0.39074 3.7957 1.9161 1.5293 1.5217 2.3351 3.15 1.8991 3.7504-2e-3 0.0023 0.0375 0.03339 0.0358 0.03564l21.346-21.451c0.54196-0.54461-0.30009-2.2656-1.8818-3.8394-1.5816-1.5738-3.3069-2.4073-3.8489-1.8627l-21.346 21.451z" fill="url(#ag)" stroke="#0c0c0c" stroke-linejoin="round" stroke-width=".5"/>
			<path d="m190.73 27.12c0.59453-0.44614 2.2627 0.39074 3.7957 1.9161 1.5293 1.5217 2.3351 3.15 1.8991 3.7504-2e-3 0.0023 0.0375 0.03338 0.0358 0.03564l2.6051-2.6179 0.0532-0.05342c2e-3 -0.0023-0.0375-0.03336-0.0358-0.03564 0.43603-0.60036-0.36979-2.2287-1.8991-3.7504-1.533-1.5254-3.2012-2.3622-3.7957-1.9161l-0.0532 0.05342-2.6051 2.6179z" fill="#ffb6ed" opacity=".8" stroke="#e28ccd" stroke-linejoin="round" stroke-width=".5"/>
			<path d="m171.99 45.953c0.59454-0.44614 2.2627 0.39074 3.7957 1.9161 1.5293 1.5217 2.3351 3.15 1.8991 3.7504-2e-3 0.0023 0.0375 0.03339 0.0358 0.03564l14.7-14.772 0.0532-0.05343c2e-3 -0.0023-0.0375-0.03336-0.0358-0.03564 0.43603-0.60036-0.36979-2.2287-1.8991-3.7504-1.533-1.5254-3.2012-2.3622-3.7957-1.9161l-0.0532 0.05342-14.7 14.772h-1e-5z" fill="#0c0c0c" opacity=".6"/>
			<path d="m187.81 30.055c0.59454-0.44614 2.2627 0.39074 3.7957 1.9161 1.5293 1.5217 2.3351 3.15 1.8991 3.7504-2e-3 0.0023 0.0375 0.03339 0.0358 0.03564l0.26583-0.26713c2e-3 -0.0023-0.0375-0.03336-0.0358-0.03564 0.43603-0.60036-0.36978-2.2287-1.8991-3.7504-1.533-1.5254-3.2012-2.3622-3.7957-1.9161l-0.26582 0.26713v2e-6z" fill="url(#af)"/>
			<path d="m187.57 30.3c0.59454-0.44614 2.2627 0.39074 3.7957 1.9161 1.5293 1.5217 2.3351 3.15 1.8991 3.7504-2e-3 0.0023 0.0375 0.03339 0.0358 0.03564l0.26583-0.26713c2e-3 -0.0023-0.0375-0.03336-0.0358-0.03564 0.43604-0.60036-0.36978-2.2287-1.8991-3.7504-1.533-1.5254-3.2012-2.3622-3.7957-1.9161z" fill="url(#ae)"/>
			<path d="m188.66 29.204c0.59453-0.44614 2.2627 0.39074 3.7957 1.9161 1.5293 1.5217 2.3351 3.15 1.8991 3.7504-2e-3 0.0023 0.0375 0.03338 0.0358 0.03564l0.26583-0.26713c2e-3 -0.0023-0.0375-0.03336-0.0358-0.03564 0.43603-0.60036-0.36978-2.2287-1.8991-3.7504-1.533-1.5254-3.2012-2.3622-3.7957-1.9161z" fill="url(#ad)"/>
			<path d="m188.41 29.449c0.59454-0.44614 2.2627 0.39074 3.7957 1.9161 1.5293 1.5217 2.3351 3.15 1.8991 3.7504-2e-3 0.0023 0.0375 0.03339 0.0358 0.03564l0.26582-0.26713c2e-3 -0.0023-0.0375-0.03336-0.0358-0.03564 0.43604-0.60036-0.36977-2.2287-1.8991-3.7504-1.533-1.5254-3.2012-2.3622-3.7957-1.9161l-0.26583 0.26713z" fill="url(#ac)"/>
			<path d="m189.51 28.349c0.59454-0.44614 2.2627 0.39074 3.7957 1.9161 1.5293 1.5217 2.3351 3.15 1.8991 3.7504-2e-3 0.0023 0.0375 0.03339 0.0358 0.03564l0.26582-0.26713c2e-3 -0.0023-0.0375-0.03336-0.0358-0.03564 0.43604-0.60036-0.36978-2.2287-1.8991-3.7504-1.533-1.5254-3.2012-2.3622-3.7957-1.9161l-0.26583 0.26713z" fill="url(#ab)"/>
			<path d="m189.26 28.594c0.59453-0.44614 2.2627 0.39074 3.7957 1.9161 1.5293 1.5217 2.3351 3.15 1.8991 3.7504-2e-3 0.0023 0.0375 0.03339 0.0358 0.03564l0.26583-0.26713c2e-3 -0.0023-0.0375-0.03336-0.0358-0.03564 0.43604-0.60036-0.36978-2.2287-1.8991-3.7504-1.533-1.5254-3.2012-2.3622-3.7957-1.9161z" fill="url(#aa)"/>
			<path d="m167.9 55.662 9.7112-3.961 0.0827-0.08273c0.43604-0.60036-0.38029-2.2288-1.9096-3.7505-1.533-1.5254-3.1992-2.3576-3.7937-1.9115l-4.0907 9.7057h-1e-5z" fill="url(#y)" fill-rule="evenodd" stroke="url(#z)" stroke-width=".5"/>
			<path d="m169.01 53.033-1.1086 2.6183 2.6488-1.0859c-0.2123-0.25429-0.40828-0.51257-0.66316-0.76619-0.29345-0.29198-0.58208-0.52889-0.87695-0.76625z" fill="#0c0c0c" fill-rule="evenodd" stroke="#0c0c0c" stroke-width=".5"/>
		</g>
		<g fill="#bcbcbc" shape-rendering="auto" stroke="#a1a1a1" stroke-linejoin="round">
			<circle cx="86.63" cy="48.374" r="1.879" color="#000000" color-rendering="auto" image-rendering="auto" opacity=".594" solid-color="#000000" stroke-width=".18315" style="isolation:auto;mix-blend-mode:normal"/>
			<rect x="91.284" y="47.666" width="22.94" height="1.2978" ry=".55383" color="#000000" color-rendering="auto" image-rendering="auto" opacity=".594" solid-color="#000000" stroke-width=".2836" style="isolation:auto;mix-blend-mode:normal"/>
			<circle cx="86.63" cy="54.374" r="1.879" color="#000000" color-rendering="auto" image-rendering="auto" opacity=".24" solid-color="#000000" stroke-width=".18315" style="isolation:auto;mix-blend-mode:normal"/>
			<rect x="91.284" y="53.676" width="22.94" height="1.2978" ry=".55383" color="#000000" color-rendering="auto" image-rendering="auto" opacity=".24" solid-color="#000000" stroke-width=".2836" style="isolation:auto;mix-blend-mode:normal"/>
			<circle cx="86.63" cy="16.374" r="1.879" color="#000000" color-rendering="auto" image-rendering="auto" opacity=".594" solid-color="#000000" stroke-width=".18315" style="isolation:auto;mix-blend-mode:normal"/>
		</g>
	</g>
</svg>