<svg version="1.1" viewBox="0 0 64 64" xmlns="http://www.w3.org/2000/svg" xmlns:xlink="http://www.w3.org/1999/xlink">
	<defs>
		<linearGradient id="f" x1="24" x2="24" y1="5.9094" y2="42.092" gradientTransform="matrix(1.4324 0 0 1.4363 -2.3784 -2.4708)" gradientUnits="userSpaceOnUse">
			<stop stop-color="#fff" offset="0"/>
			<stop stop-color="#fff" stop-opacity=".23529" offset=".034875"/>
			<stop stop-color="#fff" stop-opacity=".15686" offset=".96216"/>
			<stop stop-color="#fff" stop-opacity=".39216" offset="1"/>
		</linearGradient>
		<linearGradient id="a">
			<stop stop-color="#181818" offset="0"/>
			<stop stop-color="#181818" stop-opacity="0" offset="1"/>
		</linearGradient>
		<radialGradient id="c" cx="4.993" cy="43.5" r="2.5" gradientTransform="matrix(2.4045 0 0 1 41.986 15.5)" gradientUnits="userSpaceOnUse" xlink:href="#a"/>
		<radialGradient id="b" cx="4.993" cy="43.5" r="2.5" gradientTransform="matrix(2.4045 0 0 1 -22.014 -102.5)" gradientUnits="userSpaceOnUse" xlink:href="#a"/>
		<linearGradient id="e" x1="25.058" x2="25.058" y1="47.028" y2="39.999" gradientTransform="matrix(1.5714 0 0 .71429 -5.7143 27.929)" gradientUnits="userSpaceOnUse">
			<stop stop-color="#181818" stop-opacity="0" offset="0"/>
			<stop stop-color="#181818" offset=".5"/>
			<stop stop-color="#181818" stop-opacity="0" offset="1"/>
		</linearGradient>
		<linearGradient id="d" x1="31.781" x2="31.781" y1="4.9267" y2="59.148" gradientUnits="userSpaceOnUse">
			<stop stop-color="#64baff" offset="0"/>
			<stop stop-color="#3689e6" offset="1"/>
		</linearGradient>
	</defs>
	<g>
		<rect x="54" y="56.5" width="6" height="5" fill="url(#c)" opacity=".6"/>
		<rect transform="scale(-1)" x="-10" y="-61.5" width="6" height="5" fill="url(#b)" opacity=".6"/>
		<rect x="10" y="56.5" width="44" height="5" fill="url(#e)" opacity=".6"/>
	</g>
	<rect x="4.5" y="4.5" width="55" height="55" rx="6" ry="6" color="#000000" fill="url(#d)"/>
	<rect x="5.5" y="5.4288" width="53" height="53.142" rx="5" ry="5" fill="none" opacity=".3" stroke="url(#f)" stroke-linecap="round" stroke-linejoin="round"/>
	<rect x="4.5" y="4.5" width="55" height="55" rx="6" ry="6" color="#000000" fill="none" opacity=".5" stroke="#0d52bf" stroke-linecap="round" stroke-linejoin="round" stroke-opacity=".50196"/>
	<g transform="matrix(1.1259 0 0 1.1259 -82.278 -4.53)">
		<path d="m96.493 30.205v3.2422c-2.1788 0.03956-4.3685-0.07734-6.541 0.05469-2.0121 0.38223-2.6215 3.2876-1.0996 4.5723 3.6604 3.915 7.269 7.8872 10.962 11.767 1.1764 1.0411 3.1058 0.65756 3.9622-0.60878 3.57-3.8606 7.1715-7.6971 10.723-11.572 1.0148-1.369 0.43998-3.74-1.3353-4.1284-1.214-0.19734-2.4847-0.02826-3.7205-0.08454h-2.95c0.0237-1.8814 0.0288-3.7618-0.26567-5.6255 0.0185-1.0478-0.23492-0.72661-0.57571 0.03485-0.41618 0.68518-0.74233 1.4713-1.1938 2.1121-0.37466 0.2262-0.7764-0.10082-0.625-0.52344-0.11903-1.7774-2.4699-2.566-3.7988-1.5306-0.69624 0.43389-0.87328 1.2867-0.95317 2.0248-0.44131 0.31033-0.79904-0.16187-0.90507-0.55527-0.44115-0.80189-0.8823-1.6038-1.3234-2.4057-0.11979 1.0755-0.23958 2.151-0.35938 3.2266z" fill="#002e99" opacity=".15" stop-color="#000000" style="-inkscape-stroke:none;font-variation-settings:normal"/>
		<g transform="translate(69.493 -2.5526)" opacity=".2">
			<path d="m31.906 17.004c-1.2445 0.0064-2.3376 1.0978-2.248 2.3594-0.07991 0.30546-0.78614 0.2293-0.66016-0.16016-0.35742-0.69727-0.71484-1.3945-1.0723-2.0918-0.34847 1.0125-1.0925 1.9439-0.92578 3.0621v17.938h10v-18.838c-0.30859-0.7207-0.61719-1.4414-0.92578-2.1621-0.38259 0.77888-0.85807 1.5797-1.1504 2.3613-0.29156 0.18349-0.72328 0.019-0.5988-0.36929-0.02914-1.2696-1.2035-2.1509-2.4188-2.0995z" color="#bebebe" fill="#002e99" opacity=".15" stop-color="#000000" style="-inkscape-stroke:none;font-variation-settings:normal"/>
			<path d="m32 18s-1.3333 0-1.3333 1.2741c0 1.2741-1.3333 1.2741-1.3333 1.2741s-1.3333 0.0013-1.3333-1.2741v17.837h8v-17.837c0 1.2741-1.3333 1.2741-1.3333 1.2741s-1.3333 0-1.3333-1.2741c0-1.2741-1.3333-1.2741-1.3333-1.2741z" color="#bebebe" fill="#fafafa" opacity="1"/>
		</g>
		<g transform="translate(69.493 -2.5526)" opacity=".5">
			<path d="m29.24 24.004c-1.2867 0.001097-2.3977 1.1723-2.2402 2.4695v9.5266h10c-0.02565-3.3833 0.05072-6.7728-0.03711-10.152-0.2344-1.8199-2.7846-2.4346-3.9941-1.1719-0.51543 0.44625-0.60343 1.1527-0.67969 1.7754-0.26893 0.20931-0.77142 0.06304-0.63141-0.34784-0.02636-1.2674-1.204-2.1511-2.4174-2.0994z" color="#bebebe" fill="#002e99" opacity=".15" stop-color="#000000" style="-inkscape-stroke:none;font-variation-settings:normal"/>
			<path d="m29.333 25s-1.3333-0.0014-1.3333 1.2741v8.7259h8v-8.7259c0-1.2741-1.3333-1.2741-1.3333-1.2741s-1.3333 0-1.3333 1.2741c0 1.2741-1.3333 1.2741-1.3333 1.2741s-1.3333 0-1.3333-1.2741c0-1.2741-1.3333-1.2741-1.3333-1.2741z" color="#bebebe" fill="#fafafa" opacity="1"/>
		</g>
		<path d="m90.493 34.447c-0.92335 0-1.5 0.74267-1.5 1.666 0 0.49765 0.21689 0.94317 0.56055 1.248l10.797 11.631c0.2985 0.28181 0.69967 0.45508 1.1426 0.45508s0.84408-0.17327 1.1426-0.45508l10.797-11.631c0.34366-0.30488 0.56055-0.7504 0.56055-1.248 0-0.92335-0.35422-1.4421-1.25-1.666z" fill="#002e99" opacity=".3" stop-color="#000000" style="-inkscape-stroke:none;font-variation-settings:normal"/>
		<path d="m101.49 27.447s-1.3574 3.7e-5 -1.3574 1.2969-1.3574 1.2949-1.3574 1.2949-1.0074-0.0016-1.2852-0.83398v4.2422h-1-6c-0.92335 0-1.5 0.74267-1.5 1.666 0 0.49765 0.21689 0.94317 0.56055 1.248l10.797 11.631c0.2985 0.28181 0.69967 0.45508 1.1426 0.45508s0.84408-0.17327 1.1426-0.45508l10.797-11.631c0.34366-0.30488 0.56055-0.7504 0.56055-1.248 0-0.92335-0.35422-1.4421-1.25-1.666h-6.25-1v-4.2402c-0.27797 0.83136-1.2852 0.83203-1.2852 0.83203s-1.3574-3.8e-5 -1.3574-1.2969c0-1.2968-1.3574-1.2949-1.3574-1.2949z" fill="#fafafa" stop-color="#000000" style="-inkscape-stroke:none;font-variation-settings:normal"/>
		<path d="m113.87 34.342c-3.3474 3.6427-6.732 7.2574-10.092 10.891-0.85644 1.2663-2.7865 1.6505-3.9629 0.60938-3.597-3.7792-7.1145-7.6463-10.678-11.463-0.08961 0.22199-0.14258 0.4693-0.14258 0.73438 0 0.49765 0.21689 0.94317 0.56055 1.248l10.797 11.631c0.2985 0.28181 0.69967 0.45508 1.1426 0.45508s0.84408-0.17327 1.1426-0.45508l10.797-11.631c0.34366-0.30488 0.56055-0.7504 0.56055-1.248 0-0.3002-0.0437-0.55305-0.125-0.77148z" fill="#002e99" opacity=".07" stop-color="#000000" style="-inkscape-stroke:none;font-variation-settings:normal"/>
		<path d="m113.93 34.551c-0.0862 0.31774-0.26134 0.59882-0.5 0.81055l-10.797 11.631c-0.2985 0.28181-0.69967 0.45508-1.1426 0.45508s-0.84408-0.17327-1.1426-0.45508l-10.797-11.631c-0.22747-0.2018-0.39803-0.46626-0.48828-0.76562-0.04308 0.16371-0.07227 0.33551-0.07227 0.51758 0 0.49765 0.21689 0.94317 0.56055 1.248l10.797 11.631c0.2985 0.28181 0.69967 0.45508 1.1426 0.45508s0.84408-0.17327 1.1426-0.45508l10.797-11.631c0.34366-0.30488 0.56055-0.7504 0.56055-1.248 0-0.20841-0.0223-0.39406-0.0606-0.5625z" fill="#002e99" opacity=".07" stop-color="#000000" style="-inkscape-stroke:none;font-variation-settings:normal"/>
	</g>
</svg>