<svg version="1.1" viewBox="0 0 64 64" xmlns="http://www.w3.org/2000/svg" xmlns:xlink="http://www.w3.org/1999/xlink">
	<defs>
		<linearGradient id="g" x1="24" x2="24" y1="5.9094" y2="42.092" gradientTransform="matrix(1.4324 0 0 1.4363 -2.3784 -2.4708)" gradientUnits="userSpaceOnUse">
			<stop stop-color="#fff" offset="0"/>
			<stop stop-color="#fff" stop-opacity=".23529" offset=".034875"/>
			<stop stop-color="#fff" stop-opacity=".15686" offset=".96216"/>
			<stop stop-color="#fff" stop-opacity=".39216" offset="1"/>
		</linearGradient>
		<linearGradient id="a">
			<stop stop-color="#181818" offset="0"/>
			<stop stop-color="#181818" stop-opacity="0" offset="1"/>
		</linearGradient>
		<radialGradient id="j" cx="4.993" cy="43.5" r="2.5" gradientTransform="matrix(2.4045 0 0 1 41.986 15.5)" gradientUnits="userSpaceOnUse" xlink:href="#a"/>
		<radialGradient id="k" cx="4.993" cy="43.5" r="2.5" gradientTransform="matrix(2.4045 0 0 1 -22.014 -102.5)" gradientUnits="userSpaceOnUse" xlink:href="#a"/>
		<linearGradient id="h" x1="25.058" x2="25.058" y1="47.028" y2="39.999" gradientTransform="matrix(1.5714 0 0 .71429 -5.7143 27.929)" gradientUnits="userSpaceOnUse">
			<stop stop-color="#181818" stop-opacity="0" offset="0"/>
			<stop stop-color="#181818" offset=".5"/>
			<stop stop-color="#181818" stop-opacity="0" offset="1"/>
		</linearGradient>
		<linearGradient id="i" x1="31.781" x2="31.781" y1="4.9267" y2="59.148" gradientUnits="userSpaceOnUse">
			<stop stop-color="#5695e1" offset="0"/>
			<stop stop-color="#2468bc" offset="1"/>
		</linearGradient>
	</defs>
	<rect x="54" y="56.5" width="6" height="5" fill="url(#j)" opacity=".6"/>
	<rect transform="scale(-1)" x="-10" y="-61.5" width="6" height="5" fill="url(#k)" opacity=".6"/>
	<rect x="10" y="56.5" width="44" height="5" fill="url(#h)" opacity=".6"/>
	<rect x="4.5" y="4.5" width="55" height="55" rx="6" ry="6" color="#000000" fill="url(#i)"/>
	<rect x="5.5" y="5.4288" width="53" height="53.142" rx="5" ry="5" fill="none" opacity=".3" stroke="url(#g)" stroke-linecap="round" stroke-linejoin="round"/>
	<rect x="4.5" y="4.5" width="55" height="55" rx="6" ry="6" color="#000000" fill="none" opacity=".5" stroke="#2468bc" stroke-linecap="round" stroke-linejoin="round"/>
	<g transform="matrix(.41288 0 0 .41288 11.357 11.347)" fill="#fff">
		<path d="m48.26 2.274c-2.854 1.831-3.677 5.624-1.838 8.468 10.109 15.655 12.495 27.463 11.46 37.811-4.184 19.816-13.279 23.836-21.227 23.836-7.76 0-5.682-12.771 0.151-16.509 3.482-2.174 7.942-3.587 11.365-3.587 3.392 0 6.142-2.741 6.142-6.123 0-3.383-2.75-6.124-6.142-6.124-3.998 0-7.92 0.84-11.581 2.27 0.748-3.529 1.024-7.343 0.057-11.397-1.468-6.156-5.694-12.036-13.032-17.736-1.285-1-2.915-1.449-4.532-1.249s-3.088 1.032-4.089 2.314c-2.082 2.67-1.6 6.518 1.078 8.595 5.978 4.643 7.952 8.08 8.627 10.909s0.132 5.864-1.224 10.034c-1.733 5.62-3.745 10.637-4.627 15.448-0.434 2.368-0.471 4.945-0.583 7.004-4.305-4.196-5.99-9.736-5.99-17.831-1e-3 -3.382-2.751-6.124-6.142-6.123-3.389 3e-3 -6.135 2.743-6.136 6.123 0 11.056 3.233 21.576 11.898 28.594 7.844 7.473 27.791 4.711 27.791 16.708 0 3.386 4.956 5.034 8.347 5.034 3.478 0 7.855-2.325 7.855-5.034 0-13.612 14.345-21.885 37.96-21.849 3.392 5e-3 6.144-2.734 6.149-6.116 6e-3 -3.383-2.738-6.13-6.13-6.136-1.615-2e-3 -3.189 0.053-4.741 0.145 2.64-6.209 3.811-13.045 3.569-20.429-0.112-3.381-2.95-6.031-6.339-5.921-3.393 0.11-6.051 2.943-5.94 6.326 0.32 9.668-0.042 18.301-7.245 22.852-2.048 1.293-4.429 2.415-6.687 2.415 1.753-4.768 3.077-9.801 3.619-15.226 0.346-3.462 0.383-7.575-0.012-10.77-0.613-4.95-1.353-10.564 0.526-14.793 1.688-3.642 5.47-5.167 11.023-5.167 3.389-3e-3 6.135-2.744 6.136-6.123 2e-3 -3.383-2.745-6.127-6.136-6.13-8.252 0-14.507 4.343-18.053 9.59-1.854-3.96-4.112-8.041-6.84-12.265-0.881-1.365-2.269-2.324-3.86-2.669-0.788-0.171-1.602-0.186-2.396-0.044-0.794 0.143-1.552 0.44-2.231 0.875z" fill="#fff"/>
	</g>
</svg>