<svg version="1.1" viewBox="0 0 64 64" xmlns="http://www.w3.org/2000/svg" xmlns:xlink="http://www.w3.org/1999/xlink">
	<defs>
		<linearGradient id="bb" x1="24" x2="24" y1="5.9094" y2="42.092" gradientTransform="matrix(1.4324 0 0 1.4363 -2.3784 -2.4708)" gradientUnits="userSpaceOnUse">
			<stop stop-color="#fff" offset="0"/>
			<stop stop-color="#fff" stop-opacity=".23529" offset=".034875"/>
			<stop stop-color="#fff" stop-opacity=".15686" offset=".96216"/>
			<stop stop-color="#fff" stop-opacity=".39216" offset="1"/>
		</linearGradient>
		<linearGradient id="l">
			<stop stop-color="#181818" offset="0"/>
			<stop stop-color="#181818" stop-opacity="0" offset="1"/>
		</linearGradient>
		<radialGradient id="an" cx="4.993" cy="43.5" r="2.5" gradientTransform="matrix(2.4045 0 0 1 41.986 15.5)" gradientUnits="userSpaceOnUse" xlink:href="#l"/>
		<radialGradient id="am" cx="4.993" cy="43.5" r="2.5" gradientTransform="matrix(2.4045 0 0 1 -22.014 -102.5)" gradientUnits="userSpaceOnUse" xlink:href="#l"/>
		<linearGradient id="ax" x1="25.058" x2="25.058" y1="47.028" y2="39.999" gradientTransform="matrix(1.5714 0 0 .71429 -5.7143 27.929)" gradientUnits="userSpaceOnUse">
			<stop stop-color="#181818" stop-opacity="0" offset="0"/>
			<stop stop-color="#181818" offset=".5"/>
			<stop stop-color="#181818" stop-opacity="0" offset="1"/>
		</linearGradient>
		<linearGradient id="ap" x1="31.781" x2="31.781" y1="4.9267" y2="59.148" gradientUnits="userSpaceOnUse">
			<stop stop-color="#968f79" offset="0"/>
			<stop stop-color="#4b4539" offset="1"/>
		</linearGradient>
		<linearGradient id="b">
			<stop offset="0"/>
			<stop stop-opacity="0" offset="1"/>
		</linearGradient>
		<linearGradient id="a">
			<stop stop-color="#fff" offset="0"/>
			<stop stop-color="#fff" stop-opacity="0" offset="1"/>
		</linearGradient>
		<radialGradient id="d" cx="401" cy="675.86" r="186" gradientTransform="matrix(1 0 0 .37903 0 419.69)" gradientUnits="userSpaceOnUse" xlink:href="#b"/>
		<radialGradient id="c" cx="401" cy="675.86" r="186" gradientTransform="matrix(.90735 1.0098e-6 -3.2315e-7 .37903 37.155 419.69)" gradientUnits="userSpaceOnUse" xlink:href="#b"/>
		<filter id="e" x="-.098472" y="-.2598" width="1.1969" height="1.5196">
			<feGaussianBlur stdDeviation="15.263138"/>
		</filter>
		<radialGradient id="ad" cx="21.333" cy="22.79" r="19.229" gradientTransform="matrix(5.9762 -7.5793e-8 5.059e-8 4.9579 -12.673 -21.216)" gradientUnits="userSpaceOnUse">
			<stop stop-color="#b5ae9c" offset="0"/>
			<stop stop-color="#8e8469" offset=".34169"/>
			<stop stop-color="#39352a" offset=".64237"/>
			<stop stop-color="#5c5443" offset="1"/>
		</radialGradient>
		<linearGradient id="av" x1="175.66" x2="151.72" y1="158.67" y2="155.6" gradientTransform="translate(29.184 44.744)" gradientUnits="userSpaceOnUse" xlink:href="#a"/>
		<filter id="bk" x="-.046147" y="-.15007" width="1.0923" height="1.3001">
			<feGaussianBlur stdDeviation="1.0407505"/>
		</filter>
		<radialGradient id="ae" cx="164.91" cy="167.15" r="27.063" gradientTransform="matrix(1.9639 -1.1593 .25614 .43391 -217.93 249.38)" gradientUnits="userSpaceOnUse" xlink:href="#b"/>
		<radialGradient id="ag" cx="94.25" cy="136.64" r="32.25" gradientTransform="matrix(1 0 0 .52988 29.184 105.43)" gradientUnits="userSpaceOnUse">
			<stop stop-color="#c0baab" offset="0"/>
			<stop stop-color="#bfb9a9" stop-opacity=".17647" offset="1"/>
		</radialGradient>
		<filter id="bs" x="-.10028" y="-.42615" width="1.2006" height="1.8523">
			<feGaussianBlur stdDeviation="2.6949743"/>
		</filter>
		<clipPath id="by">
			<path d="m78.352 58.821s14.636 30.306 48.876 29.451c71.755-1.8076 84.337-39.393 86.137-44.815 1.8002-5.4228 4.5547-4.6014 5.1915 0.41037 23.402 213.3-162.41 121.78-169.01 85.45 29.404-9.3456 27.403-20.133 27.903-31.633z" fill="none" stroke="#000" stroke-miterlimit="10"/>
		</clipPath>
		<filter id="br" x="-.02242" y="-.026823" width="1.0445" height="1.0536">
			<feGaussianBlur stdDeviation="1.3743731"/>
		</filter>
		<radialGradient id="al" cx="6.0242" cy="25.271" r="4.831" gradientTransform="matrix(-1.2392 -.014535 .031984 -1.9379 12.681 73.615)" gradientUnits="userSpaceOnUse">
			<stop stop-color="#5b676b" offset="0"/>
			<stop offset=".81573"/>
			<stop stop-color="#606e73" offset="1"/>
		</radialGradient>
		<radialGradient id="q" cx="106.42" cy="104.02" r="51.972" gradientTransform="matrix(.99984 .017618 -.013605 .77215 1.4317 -7.7397)" gradientUnits="userSpaceOnUse" xlink:href="#a"/>
		<filter id="bg" x="-.03814" y="-.19002" width="1.0763" height="1.38">
			<feGaussianBlur stdDeviation="1.6518748"/>
		</filter>
		<radialGradient id="j" cx="181.89" cy="356.05" r="478" gradientTransform="matrix(1.1109 4.639e-8 -9.5114e-8 .76671 1.589 146.44)" gradientUnits="userSpaceOnUse" xlink:href="#az"/>
		<linearGradient id="az">
			<stop stop-color="#fff" offset="0"/>
			<stop stop-color="#c3c3c3" offset=".83333"/>
			<stop stop-color="#f0f0f0" offset="1"/>
		</linearGradient>
		<radialGradient id="i" cx="203.65" cy="500.9" r="478" gradientTransform="matrix(1 0 0 .58876 0 219.33)" gradientUnits="userSpaceOnUse" xlink:href="#ba"/>
		<linearGradient id="ba">
			<stop stop-opacity="0" offset="0"/>
			<stop stop-opacity="0" offset=".88095"/>
			<stop offset="1"/>
		</linearGradient>
		<filter id="n" x="-.057968" y="-.098458" width="1.1159" height="1.1969">
			<feGaussianBlur stdDeviation="23.090676"/>
		</filter>
		<filter id="m" x="-.16208" y="-.35021" width="1.3242" height="1.7004">
			<feGaussianBlur stdDeviation="8.1715471"/>
		</filter>
		<radialGradient id="h" cx="173.95" cy="99.426" r="12.374" gradientUnits="userSpaceOnUse" xlink:href="#ay"/>
		<linearGradient id="ay">
			<stop stop-color="#596569" offset="0"/>
			<stop stop-color="#2e3436" offset="1"/>
		</linearGradient>
		<radialGradient id="g" cx="21.587" cy="20.331" r="1.7678" gradientTransform="matrix(1.595 .037032 -.037338 1.595 -12.084 -12.896)" gradientUnits="userSpaceOnUse" xlink:href="#a"/>
		<radialGradient id="f" cx="4.0659" cy="21.483" r="1.7678" gradientTransform="matrix(2.8461 -.078237 .094659 3.4154 -9.5398 -51.926)" gradientUnits="userSpaceOnUse" xlink:href="#a"/>
		<filter id="bq" x="-.24921" y="-.20768" width="1.4984" height="1.4154">
			<feGaussianBlur stdDeviation="0.36712638"/>
		</filter>
		<radialGradient id="ak" cx="202.37" cy="86.136" r="6.6269" gradientTransform="matrix(2.9952 -.11118 .087694 2.3625 -411.33 -90.499)" gradientUnits="userSpaceOnUse" xlink:href="#k"/>
		<linearGradient id="k">
			<stop stop-color="#23211a" offset="0"/>
			<stop stop-color="#23211a" stop-opacity="0" offset="1"/>
		</linearGradient>
		<filter id="bm" x="-.20814" y="-.073563" width="1.4163" height="1.1471">
			<feGaussianBlur stdDeviation="1.1494221"/>
		</filter>
		<radialGradient id="aj" cx="200.29" cy="86.399" r="6.6269" gradientTransform="matrix(2.9971 .030299 -.050411 4.9865 -398.07 -344.9)" gradientUnits="userSpaceOnUse" xlink:href="#k"/>
		<filter id="bo" x="-.31086" y="-.10987" width="1.6217" height="1.2197">
			<feGaussianBlur stdDeviation="1.7166693"/>
		</filter>
		<radialGradient id="ai" cx="204.16" cy="82.396" r="6.6269" gradientTransform="matrix(.95236 .30499 -1.308 4.0844 119.69 -321.64)" gradientUnits="userSpaceOnUse" xlink:href="#a"/>
		<filter id="bl" x="-.16533" y="-.05654" width="1.3307" height="1.1131">
			<feGaussianBlur stdDeviation="1.1942047"/>
		</filter>
		<clipPath id="bx">
			<path d="m126 141.25c13.634-0.0287 30.696-3.4857 43.875-22l84.625 62.75 3.5 78.5-99-51z" fill-rule="evenodd" opacity=".57831"/>
		</clipPath>
		<linearGradient id="aq" x1="38.289" x2="36.611" y1="5.2539" y2="7.3315" gradientTransform="matrix(-2.1373 .072151 .9828 2.108 217.29 112.36)" gradientUnits="userSpaceOnUse">
			<stop stop-color="#eac586" offset="0"/>
			<stop stop-color="#eac586" stop-opacity="0" offset="1"/>
		</linearGradient>
		<radialGradient id="u" cx="14.755" cy="39.448" r="7.5792" gradientTransform="matrix(-1.6999 -3.8273 1.0368 -.46027 211.65 270.55)" gradientUnits="userSpaceOnUse">
			<stop stop-color="#696969" offset="0"/>
			<stop offset="1"/>
		</radialGradient>
		<linearGradient id="au" x1="13.236" x2="7.7521" y1="37.752" y2="42.282" gradientTransform="matrix(-3.4286 1.5238 -1.5238 -3.4286 253.75 147.64)" gradientUnits="userSpaceOnUse" xlink:href="#a"/>
		<filter id="bn" x="-.21688" y="-.13382" width="1.4338" height="1.2676">
			<feGaussianBlur stdDeviation="1.5493681"/>
		</filter>
		<linearGradient id="at" x1="30.386" x2="24.873" y1="24.775" y2="20.352" gradientTransform="matrix(-3.9875 1.8651 -1.8651 -3.9875 297.73 167.33)" gradientUnits="userSpaceOnUse">
			<stop stop-color="#d87711" offset="0"/>
			<stop stop-color="#f3ae66" offset=".24242"/>
			<stop stop-color="#713e08" offset=".62121"/>
			<stop stop-color="#e07c12" offset="1"/>
		</linearGradient>
		<linearGradient id="as" x1="144.5" x2="92.5" y1="127" y2="213.75" gradientUnits="userSpaceOnUse" xlink:href="#a"/>
		<filter id="bp" x="-.037772" y="-.024864" width="1.0755" height="1.0497">
			<feGaussianBlur stdDeviation="1.1292289"/>
		</filter>
		<linearGradient id="ar" x1="24.505" x2="20.655" y1="31.019" y2="27.741" gradientTransform="matrix(-3.9875 1.8651 -1.8651 -3.9875 297.73 167.33)" gradientUnits="userSpaceOnUse">
			<stop stop-color="#bdbdbd" offset="0"/>
			<stop stop-color="#e2e2e2" offset=".33333"/>
			<stop stop-color="#a3a3a3" offset=".66667"/>
			<stop stop-color="#ddd" offset="1"/>
		</linearGradient>
		<filter id="bu" x="-.21292" y="-.16966" width="1.4258" height="1.3393">
			<feGaussianBlur stdDeviation="1.1237366"/>
		</filter>
		<filter id="bw" x="-.058867" y="-.06929" width="1.1177" height="1.1386">
			<feGaussianBlur stdDeviation="0.2632541"/>
		</filter>
		<filter id="bv" x="-.38623" y="-.38623" width="1.7725" height="1.7725">
			<feGaussianBlur stdDeviation="0.40232112"/>
		</filter>
		<filter id="bi" x="-.19976" y="-.14358" width="1.3995" height="1.2872">
			<feGaussianBlur stdDeviation="0.95717865"/>
		</filter>
		<radialGradient id="ac" cx="154.62" cy="121.54" r="11.125" gradientTransform="matrix(1.3034 0 0 1.0251 -47.034 -3.4714)" gradientUnits="userSpaceOnUse" xlink:href="#b"/>
		<filter id="bt" x="-.067764" y="-.086158" width="1.1355" height="1.1723">
			<feGaussianBlur stdDeviation="0.62823276"/>
		</filter>
		<radialGradient id="ab" cx="158.5" cy="116.72" r="8.5" gradientTransform="matrix(.93967 -.34208 .2465 .67712 -30.084 83.293)" gradientUnits="userSpaceOnUse" xlink:href="#a"/>
		<radialGradient id="aa" cx="156.12" cy="118.5" r="11.125" gradientTransform="matrix(.93967 -.34208 .26905 .73907 -32.213 75.984)" gradientUnits="userSpaceOnUse" xlink:href="#a"/>
		<radialGradient id="z" cx="158.5" cy="116.72" r="8.5" gradientTransform="matrix(2.3253 -.8465 .60997 1.6756 -294.44 52.466)" gradientUnits="userSpaceOnUse" xlink:href="#a"/>
		<radialGradient id="v" cx="60.32" cy="192.49" r="12.625" gradientTransform="matrix(-.45949 -.19538 -.20312 .47769 296.81 120.68)" gradientUnits="userSpaceOnUse" xlink:href="#b"/>
		<radialGradient id="w" cx="60.32" cy="192.49" r="12.625" gradientTransform="matrix(-.48033 -.13634 -.14174 .49935 282.87 109.66)" gradientUnits="userSpaceOnUse" xlink:href="#b"/>
		<radialGradient id="x" cx="60.32" cy="192.49" r="12.625" gradientTransform="matrix(-.49457 .068594 .071311 .51416 239.06 96.804)" gradientUnits="userSpaceOnUse" xlink:href="#b"/>
		<radialGradient id="r" cx="37.875" cy="200.75" r="14.625" gradientTransform="matrix(1 0 0 1.2308 33.25 -53.577)" gradientUnits="userSpaceOnUse" xlink:href="#a"/>
		<filter id="bj" x="-.09448" y="-.076765" width="1.189" height="1.1535">
			<feGaussianBlur stdDeviation="1.1514706"/>
		</filter>
		<radialGradient id="y" cx="147.25" cy="101.5" r="70.75" gradientTransform="matrix(-.49457 .068594 .065443 .47185 242.62 97.03)" gradientUnits="userSpaceOnUse" xlink:href="#a"/>
		<radialGradient id="t" cx="60.32" cy="192.49" r="12.625" gradientTransform="matrix(-.40626 -.1882 -.17959 .46012 289.32 121.06)" gradientUnits="userSpaceOnUse" xlink:href="#b"/>
		<radialGradient id="s" cx="60.32" cy="192.49" r="12.625" gradientTransform="matrix(-.49154 -.087731 -.091205 .511 280.42 115.58)" gradientUnits="userSpaceOnUse" xlink:href="#b"/>
		<linearGradient id="aw" x1="169.18" x2="173.24" y1="148.78" y2="154.44" gradientTransform="translate(29.184 44.744)" gradientUnits="userSpaceOnUse" xlink:href="#b"/>
		<filter id="be" x="-.091449" y="-.10749" width="1.1829" height="1.215">
			<feGaussianBlur stdDeviation="0.45130071"/>
		</filter>
		<radialGradient id="ah" cx="115.75" cy="234.59" r="60.25" gradientTransform="matrix(-.64425 -.49533 .31535 -.41015 159.53 378.64)" gradientUnits="userSpaceOnUse" xlink:href="#a"/>
		<filter id="bd" x="-.042818" y="-.20086" width="1.0856" height="1.4017">
			<feGaussianBlur stdDeviation="2.1498152"/>
		</filter>
		<radialGradient id="af" cx="184.19" cy="75.323" r="2" gradientTransform="matrix(1.4062 -.03125 .056641 2.5488 -79.093 -110.54)" gradientUnits="userSpaceOnUse" xlink:href="#b"/>
		<filter id="bh" x="-.20548" y="-.11337" width="1.411" height="1.2267">
			<feGaussianBlur stdDeviation="0.34246324"/>
		</filter>
		<radialGradient id="p" cx="170.06" cy="55.712" r="14.849" gradientTransform="matrix(1.6236 -1.4374 1.4998 1.6942 -186.61 203.76)" gradientUnits="userSpaceOnUse" xlink:href="#a"/>
		<filter id="bf" x="-.17424" y="-.24808" width="1.3485" height="1.4962">
			<feGaussianBlur stdDeviation="2.1561555"/>
		</filter>
		<radialGradient id="o" cx="60.625" cy="180.01" r="18.375" gradientTransform="matrix(1 0 0 .30689 -25.003 81.825)" gradientUnits="userSpaceOnUse" xlink:href="#a"/>
		<filter id="bc" x="-.023063" y="-.07515" width="1.0461" height="1.1503">
			<feGaussianBlur stdDeviation="0.3531488"/>
		</filter>
	</defs>
	<g>
		<rect x="54" y="56.5" width="6" height="5" fill="url(#an)" opacity=".6"/>
		<rect transform="scale(-1)" x="-10" y="-61.5" width="6" height="5" fill="url(#am)" opacity=".6"/>
		<rect x="10" y="56.5" width="44" height="5" fill="url(#ax)" opacity=".6"/>
	</g>
	<rect x="4.5" y="4.5" width="55" height="55" rx="6" ry="6" color="#000000" fill="url(#ap)"/>
	<rect x="5.5" y="5.4288" width="53" height="53.142" rx="5" ry="5" fill="none" opacity=".3" stroke="url(#bb)" stroke-linecap="round" stroke-linejoin="round"/>
	<rect x="4.5" y="4.5" width="55" height="55" rx="6" ry="6" color="#000000" fill="none" opacity=".5" stroke="#4b4539" stroke-linecap="round" stroke-linejoin="round"/>
	<g transform="matrix(.1961 0 0 .1961 7.8044 9.7833)" enable-background="new">
		<g transform="matrix(1.0638 0 0 1.0638 371.12 -169.89)">
			<ellipse transform="matrix(.26055 0 0 .27865 -340.22 114.95)" cx="401" cy="675.86" rx="186" ry="70.5" fill="url(#d)"/>
			<ellipse transform="matrix(.46421 0 0 .40631 -422.89 24.67)" cx="401" cy="675.86" rx="186" ry="70.5" fill="url(#c)" filter="url(#e)" opacity=".74096"/>
		</g>
		<g fill-rule="evenodd">
			<path id="ao" d="m54.48 37.359s15.57 32.239 51.994 31.33c76.332-1.9229 89.717-41.906 91.632-47.674 1.915-5.7687 4.8452-4.8949 5.5227 0.43655 24.895 226.9-172.77 129.55-179.79 90.901 31.279-9.9417 29.151-21.417 29.683-33.651z" fill="url(#ad)" fill-rule="evenodd"/>
			<path transform="matrix(1.0638 0 0 1.0638 -59.916 -72.812)" d="m153.84 198.42c27.067 5.436 41.735-0.48826 49.802-6.7431-2.1301-2.7627-6.6529-4.9089-6.6529-4.9089s5.2672 0.99974 8.698 4.6342c2.3482 2.4876 2.5636 6.5063 2.0501 12.01-0.51357-2.3387-1.0178-7.3306-1.6839-8.984-7.255 8.8227-27.281 12.831-52.214 3.9916z" fill="url(#av)" filter="url(#bk)" opacity=".11446"/>
			<path d="m102.67 137.2c28.794 5.7828 44.398-0.51941 52.979-7.1732-2.266-2.939-7.0773-5.2221-7.0773-5.2221s5.6032 1.0635 9.2528 4.9299c2.498 2.6463 2.7272 6.9214 2.1809 12.776-0.54633-2.4879-1.0827-7.7983-1.7913-9.5571-7.7178 9.3855-29.022 13.65-55.544 4.2463z" fill="url(#ae)"/>
		</g>
		<g transform="matrix(.37384 0 0 .37384 182.24 56.535)">
			<ellipse transform="matrix(.26055 0 0 .27865 -266.22 -55.049)" cx="401" cy="675.86" rx="186" ry="70.5" fill="url(#d)"/>
			<ellipse transform="matrix(.46421 0 0 .40631 -348.89 -145.33)" cx="401" cy="675.86" rx="186" ry="70.5" fill="url(#c)" filter="url(#e)" opacity=".74096"/>
		</g>
		<g>
			<path transform="matrix(1.0638 0 0 1.0638 -59.916 -72.812)" d="m142.18 166.24s-1.875 7.5-13.5 8c-11.625 0.5-33-6-33-6s26.375 11.5 42.5 13c16.125 1.5 22-7 22-7z" enable-background="accumulate" fill="url(#ag)" filter="url(#bs)" opacity=".86747"/>
			<path transform="matrix(1.0638 0 0 1.0638 -28.871 -25.214)" d="m78.352 58.821s14.636 30.306 48.876 29.451c71.755-1.8076 84.337-39.393 86.137-44.815 1.8002-5.4228 4.5547-4.6014 5.1915 0.41037 23.402 213.3-162.41 121.78-169.01 85.45 29.404-9.3456 27.403-20.133 27.903-31.633z" clip-path="url(#by)" fill="none" filter="url(#br)" stroke="#000" stroke-miterlimit="10" stroke-width=".94003"/>
			<path transform="matrix(1.0638 0 0 1.0638 -10.786 -15.64)" d="m201.17 18.131c-0.0675-0.01046-0.25812-0.01474-0.67188 0.4668-0.41376 0.48154-0.92267 1.3972-1.373 2.7539-0.95945 2.8902-4.9082 14.638-18.238 25.766-13.33 11.127-36.031 21.678-74.383 22.645-31.167 0.77824-46.663-21.303-51.035-28.678l-0.87305 37.643a1.0732 1.0732 0 0 1 0 0.02148c-0.26262 6.0402 0.17064 12.24-3.4668 18.197-3.5492 5.8131-10.966 11.148-25.959 16.057 1.0803 4.3033 4.5958 9.593 10.186 15.08 5.9434 5.8344 14.078 11.878 23.576 17.348 18.996 10.94 43.451 19.581 66.791 19.98 23.34 0.39918 45.494-7.3366 60.42-29.201 14.925-21.862 22.628-58.053 16.424-114.62v-2e-3c-0.15771-1.2394-0.45181-2.1808-0.75976-2.752-0.30816-0.57155-0.56954-0.69076-0.63672-0.70117z" fill="none" opacity=".18539" xlink:href="#ao"/>
			<ellipse transform="matrix(4.3927 -3.1821 3.169 4.4108 -81.758 7.333)" cx="6.0988" cy="27.229" rx="4.331" ry="6.0988" fill="url(#al)" fill-rule="evenodd"/>
		</g>
		<g transform="matrix(.26603 0 0 .26603 115.76 67.014)">
			<ellipse transform="matrix(.26055 0 0 .27865 -266.22 -55.049)" cx="401" cy="675.86" rx="186" ry="70.5" fill="url(#d)"/>
			<ellipse transform="matrix(.46421 0 0 .40631 -348.89 -145.33)" cx="401" cy="675.86" rx="186" ry="70.5" fill="url(#c)" filter="url(#e)" opacity=".74096"/>
		</g>
		<path transform="matrix(1 0 0 1.1695 0 -9.5907)" d="m65.761 56.596c32.165 26.784 68.11 13.87 103.94 2.1213-34.694 19.608-73.578 30.702-103.94-2.1213z" enable-background="accumulate" fill="url(#q)" fill-rule="evenodd" filter="url(#bg)" opacity=".57831"/>
		<g transform="matrix(.34343 0 0 .34343 216.55 53.813)">
			<ellipse transform="matrix(.18146 0 0 .28795 -308.32 -64.458)" cx="203.65" cy="533.35" rx="478" ry="281.43" fill="url(#j)"/>
			<ellipse transform="matrix(.16859 0 0 .25597 -305.7 -50.901)" cx="203.65" cy="533.35" rx="478" ry="281.43" fill="url(#i)" filter="url(#n)" opacity=".074286"/>
			<ellipse transform="matrix(.50384 0 0 .56976 -337.28 -23.404)" cx="130.5" cy="105" rx="60.5" ry="28" enable-background="accumulate" fill="#fff" fill-rule="evenodd" filter="url(#m)" opacity=".84"/>
		</g>
		<g transform="matrix(1.0638 0 0 1.0638 -55.393 -11.202)">
			<circle cx="173.95" cy="94.426" r="12.374" enable-background="accumulate" fill="url(#h)"/>
			<path transform="translate(0 -.35355)" d="m182.63 103.11-7.0022-6.5042 4.022 8.6694-4.6496-8.3496 1.1462 9.488-1.8418-9.3778-1.8418 9.3778 1.1462-9.488-4.6496 8.3496 4.022-8.6694-7.0022 6.5042 6.5042-7.0022-8.6694 4.022 8.3496-4.6496-9.488 1.1462 9.3778-1.8418-9.3778-1.8418 9.488 1.1462-8.3496-4.6496 8.6694 4.022-6.5042-7.0022 7.0022 6.5042-4.022-8.6694 4.6496 8.3496-1.1462-9.488 1.8418 9.3778 1.8418-9.3778-1.1462 9.488 4.6496-8.3496-4.022 8.6694 7.0022-6.5042-6.5042 7.0022 8.6694-4.022-8.3496 4.6496 9.488-1.1462-9.3778 1.8418 9.3778 1.8418-9.488-1.1462 8.3496 4.6496-8.6694-4.022z" enable-background="accumulate" fill="#222628"/>
			<circle transform="matrix(.45714 0 0 .45714 94.429 51.26)" cx="173.95" cy="94.426" r="12.374" enable-background="accumulate"/>
		</g>
		<circle transform="matrix(9.954 0 0 9.995 -92.994 -133.96)" cx="21.39" cy="20.953" r="1.7678" fill="url(#g)" fill-rule="evenodd"/>
		<circle transform="matrix(4.8748 0 0 4.8949 16.546 -21.668)" cx="21.39" cy="20.953" r="1.7678" fill="#fff" fill-rule="evenodd"/>
		<g transform="matrix(.21772 0 0 .21772 131.38 69.537)">
			<ellipse transform="matrix(.18146 0 0 .28795 -308.32 -64.458)" cx="203.65" cy="533.35" rx="478" ry="281.43" fill="url(#j)"/>
			<ellipse transform="matrix(.16859 0 0 .25597 -305.7 -50.901)" cx="203.65" cy="533.35" rx="478" ry="281.43" fill="url(#i)" filter="url(#n)" opacity=".074286"/>
			<ellipse transform="matrix(.50384 0 0 .56976 -337.28 -23.404)" cx="130.5" cy="105" rx="60.5" ry="28" enable-background="accumulate" fill="#fff" fill-rule="evenodd" filter="url(#m)" opacity=".84"/>
		</g>
		<g transform="matrix(.67439 0 0 .67439 -41.025 28.321)">
			<circle cx="173.95" cy="94.426" r="12.374" enable-background="accumulate" fill="url(#h)"/>
			<path transform="translate(0 -.35355)" d="m182.63 103.11-7.0022-6.5042 4.022 8.6694-4.6496-8.3496 1.1462 9.488-1.8418-9.3778-1.8418 9.3778 1.1462-9.488-4.6496 8.3496 4.022-8.6694-7.0022 6.5042 6.5042-7.0022-8.6694 4.022 8.3496-4.6496-9.488 1.1462 9.3778-1.8418-9.3778-1.8418 9.488 1.1462-8.3496-4.6496 8.6694 4.022-6.5042-7.0022 7.0022 6.5042-4.022-8.6694 4.6496 8.3496-1.1462-9.488 1.8418 9.3778 1.8418-9.3778-1.1462 9.488 4.6496-8.3496-4.022 8.6694 7.0022-6.5042-6.5042 7.0022 8.6694-4.022-8.3496 4.6496 9.488-1.1462-9.3778 1.8418 9.3778 1.8418-9.488-1.1462 8.3496 4.6496-8.6694-4.022z" enable-background="accumulate"/>
			<circle transform="matrix(.45714 0 0 .45714 94.429 51.26)" cx="173.95" cy="94.426" r="12.374" enable-background="accumulate"/>
		</g>
		<g fill-rule="evenodd">
			<circle transform="matrix(6.3104 0 0 6.3363 -64.862 -49.501)" cx="21.39" cy="20.953" r="1.7678" fill="url(#g)"/>
			<circle transform="matrix(3.0904 0 0 3.1031 4.5813 21.686)" cx="21.39" cy="20.953" r="1.7678" fill="#fff"/>
			<ellipse transform="matrix(7.6505 0 0 8.0983 -6.4709 -88.15)" cx="4.0659" cy="23.251" rx="1.7678" ry="2.1213" fill="url(#f)" filter="url(#bq)" opacity=".43964"/>
			<ellipse transform="matrix(5.4165 0 0 4.4358 -.80509 -11.295)" cx="4.0659" cy="23.251" rx="1.7678" ry="2.1213" fill="url(#f)"/>
		</g>
		<g transform="matrix(1.2329 0 0 1.2329 -63.743 -39.395)" opacity=".45783">
			<path d="m213 65s-10 16.375-10.25 25.75 9.25 11.75 9.25 11.75-12.5-2.125-12.25-11.5 13.25-26 13.25-26z" enable-background="accumulate" fill="url(#ak)" filter="url(#bm)" opacity="1"/>
			<path d="m214.75 65.25s-6.25 14.875-6.5 24.25 5.5 13.25 5.5 13.25-12.5-2.125-12.25-11.5 13.25-26 13.25-26z" enable-background="accumulate" fill="url(#aj)" filter="url(#bo)" opacity=".66265"/>
			<path d="m215.01 51.808c-0.89912 15.548-13.371 27.01-16.015 38.942-2.0287 9.1563 11 11.75 11 11.75s-13.408-2.1935-12.25-11.5c1.6026-12.876 14-25.271 17.265-39.192z" enable-background="accumulate" fill="url(#ai)" filter="url(#bl)" opacity="1"/>
		</g>
		<g clip-path="url(#bx)">
			<path d="m136.31 122.59 8.9734 6.7831" fill="none" stroke="url(#aq)" stroke-linecap="round" stroke-width="1px"/>
			<path d="m242.57 222.94c-7.6636-19.549-2.0751-35.432-17.185-41.036-10.791-4.0019-15.43 9.088-9.407 20.247 7.8548 14.553 26.592 20.789 26.592 20.789z" fill="url(#u)"/>
			<path transform="matrix(-.26375 .47458 -.47464 -.26381 278.48 119.84)" d="m169.73 10.036s-10.505 12.578-11.861 24.959c-0.47968 4.3804-6.3881 3.4502-5.1013-1.2711 2.7795-10.198 16.962-23.688 16.962-23.688z" fill="url(#au)" filter="url(#bn)" opacity=".42778"/>
			<g transform="matrix(-.18991 .50865 -.50873 -.18994 276.05 112.28)">
				<path d="m158.3 114.02-23.302-7.5721c-15.488 41.568-26.19 128.78-26.19 128.78 0.57116 5.6836 8.0581 5.9308 9.5456 1.2237 0 0 28.297-81.747 39.946-122.43z" fill="url(#at)"/>
				<path transform="rotate(-20.004 127.6 141.97)" d="m146 116.5c-24.981 33.85-45.868 71.209-66.25 109 22.755-35.772 45.131-71.986 71.75-103.25z" enable-background="accumulate" fill="url(#as)" fill-rule="evenodd" filter="url(#bp)" opacity=".3908"/>
			</g>
			<g transform="matrix(-.18991 .50865 -.50873 -.18994 276.05 112.28)">
				<path d="m170.16 58.559c-5.0837 2.0245-11.015-0.4694-13.886-5.1157l-19.428 47.311 0.21965 3.3276-4.3308 2.1122c4.6588 5.4145 19.905 11.993 27.382 8.4958l-2.3602-4.1938 1.9628-2.765z" fill="url(#ar)"/>
				<path transform="rotate(-20.004 127.6 141.97)" d="m158.41 107.67 25.641-32.18" fill="none" filter="url(#bu)" stroke="#fff" stroke-linecap="round" stroke-linejoin="round" stroke-width="5.525"/>
				<path transform="rotate(-20.004 127.6 141.97)" d="m184.06 70.155c2.0506 4.4868 6.1482 7.5372 10.733 9.118-7.0574 0.04762-10.352-4.4196-10.733-9.118z" enable-background="accumulate" fill="#fff" fill-rule="evenodd" filter="url(#bw)"/>
				<g transform="rotate(-20.004 124.6 169.12)" fill="#fff">
					<circle transform="matrix(-3.4548 .30614 -.30614 -3.4548 200.24 243.87)" cx="7.625" cy="37.75" r="1.25" filter="url(#bv)"/>
					<circle transform="matrix(-2.0603 .18257 -.18257 -2.0603 184.94 192.17)" cx="7.625" cy="37.75" r="1.25"/>
				</g>
				<g fill-rule="evenodd">
					<path transform="rotate(-20.004 127.6 141.97)" d="m166.12 126.88-0.75-4.75 3.75-1.875 5.75-9.375-6.625 8.625-4.875 1.875z" enable-background="accumulate" filter="url(#bi)"/>
					<path transform="rotate(-20.004 127.6 141.97)" d="m167.12 127.88-1.5-5.25c-9.7787-2.3052-13.686-8.3589-16-12.25l-4.75 0.25c5.0521 7.8518 10.252 15.184 22.25 17.25z" enable-background="accumulate" fill="url(#ac)" filter="url(#bt)"/>
					<path d="m137.98 102.44c6.4424 4.2456 13.212 5.8889 20.165 5.6956-7.9587 2.2337-14.635-0.0954-20.165-5.6956z" enable-background="accumulate" fill="url(#ab)"/>
					<path d="m159.82 114.57-3.2054-4.4202c-9.9774 1.179-15.72-3.1728-19.225-6.0377l-4.3779 1.8598c7.4332 5.65 14.827 10.761 26.809 8.5981z" enable-background="accumulate" fill="url(#aa)"/>
					<path d="m133.57 106.46c6.3481 6.0401 16.994 9.3687 26.661 8.0728-10.468 1.9635-23.065-1.0251-26.661-8.0728z" enable-background="accumulate" fill="url(#z)"/>
				</g>
			</g>
			<g>
				<path d="m226.76 192.34c1.5903 5.5472 4.0833 11.282 6.4733 16.995 0 0-4.5775-10.288-4.744-11.173-0.16641-0.88461-1.7782-5.7071-1.7293-5.8219z" enable-background="accumulate" fill="url(#v)" opacity=".35542"/>
				<path d="m222.34 189.53c2.272 5.3046 5.4632 10.682 8.5494 16.051 0 0-5.8292-9.6347-6.105-10.491-0.27581-0.85684-2.4784-5.4396-2.4444-5.5597z" enable-background="accumulate" fill="url(#w)" opacity=".35542"/>
				<path d="m215.8 194.28c4.2155 3.9408 9.3017 7.5783 14.288 11.25 0 0-9.215-6.4722-9.8125-7.1455-0.59746-0.67325-4.4588-3.9813-4.476-4.105z" enable-background="accumulate" fill="url(#x)" opacity=".35542"/>
				<path transform="matrix(-.53731 .093814 .074523 .67641 246.03 67.27)" d="m56.5 211.5 29.25-36-14.75 24.5z" enable-background="accumulate" fill="url(#r)" filter="url(#bj)" opacity=".35542"/>
				<path d="m136.85 126.74 2.4386-0.59025 53.804 35.385 0.59025 2.4386 2.2527 1.7039 19.951 16.64-1.5595 1.4765-21.606-17.671-1.3321-2.3357z" enable-background="accumulate" fill="url(#y)" opacity=".35542"/>
				<path d="m227.38 190.09c1.406 5.3432 3.6103 10.867 5.7234 16.37 0 0-4.0473-9.9101-4.1944-10.762-0.14713-0.85208-1.5722-5.4972-1.529-5.6078z" enable-background="accumulate" fill="url(#t)" opacity=".35542"/>
				<path d="m228.16 201.09c2.79 5.0514 6.5018 10.084 10.108 15.118 0 0-6.7615-9.0049-7.1214-9.83-0.35993-0.82503-3.0088-5.1652-2.9869-5.2881z" enable-background="accumulate" fill="url(#s)" opacity=".35542"/>
			</g>
		</g>
		<g>
			<path transform="matrix(1.0638 0 0 1.0638 -59.916 -72.812)" d="m201.36 192.2-9.3692 4.773 6.364 5.3033c-0.6545-3.9428 0.0508-7.0489 5.4801-7.2478z" enable-background="accumulate" fill="url(#aw)" filter="url(#be)"/>
			<path transform="matrix(1.0638 0 0 1.0638 -59.916 -72.812)" d="m98.684 195.24s40.375 23.25 70.5 25.5 50-16.5 50-16.5-21.375 11.75-51.5 9.5-69-18.5-69-18.5z" enable-background="accumulate" fill="url(#ah)" filter="url(#bd)" opacity=".31325"/>
			<ellipse transform="matrix(1.4138 0 0 1.4138 -76.655 -30.983)" cx="185.25" cy="74.875" rx="2" ry="3.625" enable-background="accumulate" fill="url(#af)" fill-rule="evenodd" filter="url(#bh)" opacity=".57831"/>
			<path d="m187.91 43.282c-6.8112 9.4239-18.294 15.11-29.698 20.86 13.374-1.0165 27.232-6.2274 29.698-20.86z" enable-background="accumulate" fill="url(#p)" fill-rule="evenodd" filter="url(#bf)" opacity=".27108"/>
			<path d="m18.872 128.79c13.777 9.0535 26.928 13.986 36.75-3-10.249 15.806-23.2 11.623-36.75 3z" enable-background="accumulate" fill="url(#o)" filter="url(#bc)" opacity=".89157"/>
		</g>
	</g>
</svg>