<svg version="1.1" viewBox="0 0 64 64" xmlns="http://www.w3.org/2000/svg" xmlns:xlink="http://www.w3.org/1999/xlink">
	<defs>
		<linearGradient id="u" x1="24" x2="24" y1="5" y2="43" gradientTransform="matrix(1.4324 0 0 1.4324 -2.3784 -2.3784)" gradientUnits="userSpaceOnUse">
			<stop stop-color="#fff" offset="0"/>
			<stop stop-color="#fff" stop-opacity=".23529" offset=".063165"/>
			<stop stop-color="#fff" stop-opacity=".15686" offset=".95056"/>
			<stop stop-color="#fff" stop-opacity=".39216" offset="1"/>
		</linearGradient>
		<radialGradient id="z" cx="4.993" cy="43.5" r="2.5" gradientTransform="matrix(2.4045 0 0 1 41.986 15.5)" gradientUnits="userSpaceOnUse">
			<stop stop-color="#181818" offset="0"/>
			<stop stop-color="#181818" stop-opacity="0" offset="1"/>
		</radialGradient>
		<radialGradient id="aa" cx="4.993" cy="43.5" r="2.5" gradientTransform="matrix(2.4045 0 0 1 -22.014 -102.5)" gradientUnits="userSpaceOnUse">
			<stop stop-color="#181818" offset="0"/>
			<stop stop-color="#181818" stop-opacity="0" offset="1"/>
		</radialGradient>
		<linearGradient id="w" x1="25.058" x2="25.058" y1="47.028" y2="39.999" gradientTransform="matrix(1.5714 0 0 .71429 -5.7143 27.929)" gradientUnits="userSpaceOnUse">
			<stop stop-color="#181818" stop-opacity="0" offset="0"/>
			<stop stop-color="#181818" offset=".5"/>
			<stop stop-color="#181818" stop-opacity="0" offset="1"/>
		</linearGradient>
		<linearGradient id="x" x1="23.528" x2="23.528" y1="6.0832" y2="47.832" gradientTransform="matrix(1.3846 0 0 1.3846 -1.2308 -2.6154)" gradientUnits="userSpaceOnUse" xlink:href="#p"/>
		<linearGradient id="v" x1="-42.49" x2="-42.49" y1="8.8165" y2="18.626" gradientTransform="matrix(-1.3846 0 0 1.3846 -45.588 29.768)" gradientUnits="userSpaceOnUse">
			<stop stop-color="#fff394" offset="0"/>
			<stop stop-color="#fff" offset="1"/>
		</linearGradient>
		<radialGradient id="ab" cx="7.8038" cy="73" r="30.5" gradientTransform="matrix(1.0587 2.0414e-8 0 1.2337 2.5074 -16.769)" gradientUnits="userSpaceOnUse">
			<stop stop-color="#ffe6ab" offset="0"/>
			<stop stop-color="#ffa154" offset=".82044"/>
			<stop stop-color="#ffc27d" stop-opacity="0" offset="1"/>
		</radialGradient>
		<linearGradient id="p">
			<stop stop-color="#f4f4f4" offset="0"/>
			<stop stop-color="#dbdbdb" offset="1"/>
		</linearGradient>
		<linearGradient id="y" x1="-51.786" x2="-51.786" y1="50.786" y2="2.9062" gradientTransform="matrix(.8075 0 0 .89472 -105.25 -6.4827)" gradientUnits="userSpaceOnUse" xlink:href="#o"/>
		<linearGradient id="o">
			<stop stop-opacity=".31783" offset="0"/>
			<stop stop-opacity=".24031" offset="1"/>
		</linearGradient>
		<linearGradient id="q" x1="40.8" x2="28.713" y1="5.7572" y2="50.867" gradientTransform="matrix(1.3504 0 0 1.3503 -9.7824 5.4333)" gradientUnits="userSpaceOnUse" xlink:href="#p"/>
		<linearGradient id="r" x1="-51.786" x2="-51.786" y1="50.786" y2="2.9062" gradientTransform="matrix(.78754 0 0 .87256 -111.23 1.6617)" gradientUnits="userSpaceOnUse" xlink:href="#o"/>
		<linearGradient id="s" x1="34.502" x2="23.072" y1="3.8042" y2="46.462" gradientTransform="matrix(1.397 0 0 1.397 -10.902 5.6644)" gradientUnits="userSpaceOnUse">
			<stop stop-color="#fff" offset="0"/>
			<stop stop-color="#fff" stop-opacity=".23529" offset=".27872"/>
			<stop stop-color="#fff" stop-opacity=".15686" offset=".71693"/>
			<stop stop-color="#fff" stop-opacity=".39216" offset="1"/>
		</linearGradient>
		<linearGradient id="t" x1="510.83" x2="510.83" y1="329.05" y2="137.96" gradientTransform="matrix(.3253 0 0 .25113 -131.34 -26.497)" gradientUnits="userSpaceOnUse">
			<stop stop-color="#feaf9d" offset="0"/>
			<stop stop-color="#7239b3" offset="1"/>
		</linearGradient>
	</defs>
	<rect transform="matrix(.96593 -.25881 .25883 .96592 0 0)" x="-3.7056" y="12.86" width="52.665" height="52.663" rx="5.5" ry="5.5" color="#000000" fill="url(#q)"/>
	<rect transform="matrix(.96593 -.25881 .25883 .96592 0 0)" x="-4.1932" y="12.372" width="53.64" height="53.638" rx="6" ry="6" color="#000000" fill="none" stop-color="#000000" stroke="url(#r)" stroke-linejoin="round" stroke-width=".99991" style="-inkscape-stroke:none;font-variation-settings:normal"/>
	<rect transform="matrix(.96593 -.25881 .25883 .96592 0 0)" x="-3.218" y="13.348" width="51.69" height="51.688" rx="5" ry="5" fill="none" stroke="url(#s)" stroke-linecap="round" stroke-linejoin="round" stroke-width=".99999"/>
	<rect transform="matrix(.96593 -.25881 .25883 .96592 0 0)" x="-.77976" y="15.786" width="46.813" height="46.812" rx="2.5" ry="2.5" color="#000000" fill="#844e98" stop-color="#000000" style="-inkscape-stroke:none;font-variation-settings:normal"/>
	<rect transform="matrix(.96593 -.25881 .25883 .96592 0 0)" x="-.29212" y="16.273" width="45.838" height="45.836" rx="2" ry="2" color="#000000" fill="none" opacity=".15" stop-color="#000000" stroke="#24004d" stroke-width=".99999" style="-inkscape-stroke:none;font-variation-settings:normal"/>
	<rect x="54" y="56.5" width="6" height="5" fill="url(#z)" opacity=".6"/>
	<rect transform="scale(-1)" x="-10" y="-61.5" width="6" height="5" fill="url(#aa)" opacity=".6"/>
	<rect x="10" y="56.5" width="44" height="5" fill="url(#w)" opacity=".6"/>
	<rect x="5" y="5" width="54" height="54" rx="5.5" ry="5.5" color="#000000" fill="url(#x)"/>
	<rect x="4.5" y="4.5" width="55" height="55" rx="6" ry="6" color="#000000" fill="none" stop-color="#000000" stroke="url(#y)" stroke-linejoin="round" stroke-width=".99992" style="-inkscape-stroke:none;font-variation-settings:normal"/>
	<rect x="5.5" y="5.5" width="53" height="53" rx="5" ry="5" fill="none" stroke="url(#u)" stroke-linecap="round" stroke-linejoin="round"/>
	<rect x="8" y="8" width="48" height="48" rx="2.5" ry="2.5" color="#000000" fill="url(#t)" stop-color="#000000" style="-inkscape-stroke:none;font-variation-settings:normal"/>
	<rect x="8.5" y="8.5" width="47" height="47" rx="2" ry="2" color="#000000" fill="none" opacity=".3" stop-color="#000000" stroke="#452981" style="-inkscape-stroke:none;font-variation-settings:normal"/>
	<path d="m30.078 8.0001c-9e-3 0.09058 9.3e-4 0.17938 0.04298 0.26953 0.1425 0.3055 0.57007 0.34905 1.1172 0.10938 0.48809-0.2138 0.95712-0.24262 1.043-0.0586 0.08584 0.18404-0.08216 0.44202-0.375 0.57031-0.69829 0.30589-0.61648 0.42531 1.0547 1.5703 1.2938 0.88642 1.5386 0.91437 2.9102 0.31641 1.1856-0.51689 1.5038-0.53035 1.5273-0.0625 0.0172 0.34236 0.23886 0.51221 0.52344 0.40234 0.27038-0.10438 0.19486 0.1007-0.16406 0.45703-0.4226 0.41951-0.49432 0.79641-0.20312 1.0703 0.38075 0.35812 0.03298 0.60564-2.2852 1.6211-2.9726 1.3022-5.9166 3.3909-7.6914 5.457-1.1044 1.2857-3.1751 5.6151-2.9336 6.1328 0.06762 0.14494 0.68684 0.0203 1.375-0.28125 1.029-0.45076 1.2466-0.74412 1.2305-1.6484l-0.0196-1.0977 0.51953 0.73828 0.52344 0.74219 0.42578-1.3633c0.39959-1.2672 0.4406-1.2975 0.61328-0.50391 0.11466 0.52696 0.40854 0.83604 0.76953 0.8125 0.43539-0.02844 0.56376 0.16052 0.51562 0.75391-0.05858 0.72205 0.07394 0.73355 1.4453 0.13282 1.2145-0.53199 1.5809-0.90262 1.8789-1.9258l0.36719-1.2734 0.49219 0.99609c0.46866 0.94558 0.50318 0.94893 0.71094 0.11328 0.19036-0.76543 0.25421-0.80202 0.48437-0.30859 0.19164 0.41082 0.56879 0.43128 1.375 0.07812 1.0369-0.45422 0.98379-0.30383-0.75391 2.2852-1.0235 1.5249-2.4687 4.3823-3.2148 6.3477-1.2985 3.4204-2.6812 9.1843-2.1445 8.9492 0.74104-0.32461 3.8573-3.0474 3.75-3.2773-0.06894-0.1478-0.14944-0.77041-0.17578-1.3828-0.04738-1.1022-0.0343-1.1082 0.61719-0.49609 0.91998 0.86439 1.6611 0.40203 1.6289-1.0156-0.02864-1.2621 0.44195-1.8126 0.83203-0.97656 0.18952 0.40628 0.35473 0.35489 0.9375-0.27734 0.52972-0.57469 0.59138-1.0243 0.23828-1.7812-0.43507-0.93268-0.41195-0.98401 0.29297-0.60937 0.79805 0.42415 1.5089-0.10736 1.1562-0.86328-0.13354-0.2863 0.1347-0.51512 0.77734-0.66797 0.53796-0.12796 0.96628-0.11314 0.95313 0.03126-0.21799 2.3899-0.25657 8.1508-0.0664 10.293 0.22905 2.5811 1.5296 7.2492 1.9648 7.0586 0.10536-0.04614 0.66326-1.6044 1.2422-3.4648 0.67005-2.1533 0.89767-3.5707 0.62109-3.8984-0.32022-0.37947-0.22448-0.6085 0.375-0.87109 0.94465-0.41381 1.4154-2.2813 0.73438-2.9219-0.33195-0.31223-0.27456-0.44092 0.21094-0.47266 0.84059-0.0549 0.73827-0.27972-0.61328-1.3008-1.0666-0.80584-1.0717-0.8154-0.11328-0.53906 0.53397 0.15396 1.0799 0.23711 1.2109 0.17968 0.37623-0.16482-0.3192-1.404-0.82031-1.4609-0.24829-0.02822-0.5298-0.20664-0.62109-0.40234-0.10528-0.22574 0.10142-0.29108 0.55859-0.17578 1.2749 0.32155 1.7611-0.58874 0.90625-1.6992-0.41478-0.53881-0.97614-1.0864-1.2461-1.2148-0.34311-0.16326-0.19834-0.30041 0.47656-0.46094 0.58784-0.13982 0.88907-0.38548 0.77734-0.625-0.10096-0.21636 0.018-0.37099 0.25781-0.34375 0.23983 0.02724 0.55203-0.6402 0.69531-1.4844 0.14326-0.84417 0.35304-1.5793 0.46875-1.6328 3.2586 3.2888 5.6334 18.894 6.1914 28.062h0.54303v-22.168c-1.6512-3.439-3.3964-6.3994-4.9727-7.9766-1.9724-1.9737-2.0627-2.2618-0.5625-1.8164 0.84008 0.2494 0.89545 0.20338 0.84766-0.67578-0.04902-0.9015-0.02-0.89392 0.74219 0.125 0.62215 0.83175 1.3352 1.1537 3.2812 1.4844 0.25181 0.0428 0.42926 0.06494 0.66406 0.10156v-8.1367c-0.04126 1.72e-4 -0.0797-0.0042-0.1211-4e-3l-1.7344 0.0156 1.2969-0.57812c0.19296-0.08582 0.37012-0.18954 0.53516-0.29297 0-1.7284-0.98652-2.7891-2.5761-2.7891h-2.3106l-3.7344 1.6523-0.21484-1.1523c-0.02752-0.14638-0.08556-0.33071-0.1289-0.5h-5.7852c-2e-3 0.0022 3e-3 0.02234 0 0.02344-0.0116 0.0046-0.06982-0.02042-0.09374-0.02344zm9.6758 10.367c0.0305-0.0056 0.05822-0.0036 0.08594 0 0.38786 0.05 0.44992 0.99822 0.0118 1.5391-0.28878 0.35593-0.62262 0.6859-0.74219 0.73828-0.31069 0.1361 0.23202-2.089 0.54687-2.2422 0.0342-0.0166 0.06716-0.02964 0.09766-0.03516z" fill="#452981" opacity=".7"/>
	<path d="m12.527 35.109a26.805 26.805 0 0 0-4.5273 0.42578v17.465c0 1.662 1.338 3 3 3h27.664a26.805 26.805 0 0 0-26.137-20.891z" fill="url(#ab)" opacity=".6" stop-color="#000000" style="-inkscape-stroke:none;font-variation-settings:normal"/>
	<path d="m12.527 42.152c-1.5262 0.015899-3.0455 0.20859-4.5273 0.57422v10.773c0 1.385 1.115 2.5 2.5 2.5h20.875c-2.5827-8.2378-10.215-13.845-18.848-13.848z" fill="url(#v)" stop-color="#000000" style="-inkscape-stroke:none;font-variation-settings:normal"/>
	<path d="m8.5 42.528 1.7e-6 11.22c2e-3 0.76708 0.95698 1.7515 1.7241 1.7515h21.144" color="#000000" color-rendering="auto" fill="none" image-rendering="auto" opacity=".3" shape-rendering="auto" solid-color="#000000" stop-color="#000000" stroke="#cc3b02" stroke-linejoin="round" style="-inkscape-stroke:none;font-variation-settings:normal;isolation:auto;mix-blend-mode:normal"/>
</svg>