<svg version="1.1" viewBox="0 0 64 64" xmlns="http://www.w3.org/2000/svg">
	<defs>
		<linearGradient id="f" x1="24" x2="24" y1="5" y2="43" gradientTransform="matrix(1.4324 0 0 1.4363 -2.3784 -2.4708)" gradientUnits="userSpaceOnUse">
			<stop stop-color="#fff" offset="0"/>
			<stop stop-color="#fff" stop-opacity=".23529" offset=".063165"/>
			<stop stop-color="#fff" stop-opacity=".15686" offset=".95056"/>
			<stop stop-color="#fff" stop-opacity=".39216" offset="1"/>
		</linearGradient>
		<radialGradient id="i" cx="4.993" cy="43.5" r="2.5" gradientTransform="matrix(2.4045 0 0 1 41.986 15.5)" gradientUnits="userSpaceOnUse">
			<stop stop-color="#181818" offset="0"/>
			<stop stop-color="#181818" stop-opacity="0" offset="1"/>
		</radialGradient>
		<radialGradient id="j" cx="4.993" cy="43.5" r="2.5" gradientTransform="matrix(2.4045 0 0 1 -22.014 -102.5)" gradientUnits="userSpaceOnUse">
			<stop stop-color="#181818" offset="0"/>
			<stop stop-color="#181818" stop-opacity="0" offset="1"/>
		</radialGradient>
		<linearGradient id="g" x1="25.058" x2="25.058" y1="47.028" y2="39.999" gradientTransform="matrix(1.5714 0 0 .71429 -5.7143 27.929)" gradientUnits="userSpaceOnUse">
			<stop stop-color="#181818" stop-opacity="0" offset="0"/>
			<stop stop-color="#181818" offset=".5"/>
			<stop stop-color="#181818" stop-opacity="0" offset="1"/>
		</linearGradient>
		<linearGradient id="h" x1="23.528" x2="23.528" y1="6.0832" y2="44.233" gradientTransform="matrix(1.4103 0 0 1.4103 -1.8462 -3.2564)" gradientUnits="userSpaceOnUse">
			<stop stop-color="#ffa154" offset="0"/>
			<stop stop-color="#f37329" offset="1"/>
		</linearGradient>
	</defs>
	<rect x="54" y="56.5" width="6" height="5" fill="url(#i)" opacity=".6"/>
	<rect transform="scale(-1)" x="-10" y="-61.5" width="6" height="5" fill="url(#j)" opacity=".6"/>
	<rect x="10" y="56.5" width="44" height="5" fill="url(#g)" opacity=".6"/>
	<rect x="4.5" y="4.5" width="55" height="55" rx="6" ry="6" color="#000000" fill="url(#h)" stroke="#a62100" stroke-opacity=".5"/>
	<rect x="5.5" y="5.4288" width="53" height="53.142" rx="5" ry="5" fill="none" opacity=".5" stroke="url(#f)" stroke-linecap="round" stroke-linejoin="round"/>
	<g shape-rendering="auto">
		<path d="m42.736 16a1.0006 1.0006 0 0 0-0.24805 0.03125l-14.742 3.8105a1.0006 1.0006 0 0 0-0.0098 2e-3c-1.6183 0.43361-2.7383 1.9252-2.7383 3.5898v18.84c-1.0348-0.2609-2.1404-0.37096-3.3125-0.06641-1.5538 0.40373-2.8429 1.2599-3.6816 2.377-0.83872 1.117-1.2223 2.5408-0.8418 3.918 0.76241 2.7592 4.0356 4.073 7.1504 3.2637 2.4888-0.64666 4.3054-2.4813 4.6113-4.6387a1.0006 1.0006 0 0 0 0.0098-0.13672l0.06055-18.416 11.994-3.2109v12.912c-1.0348-0.2609-2.1404-0.37096-3.3125-0.06641-1.5538 0.40373-2.8429 1.2599-3.6816 2.377-0.83872 1.117-1.2223 2.5408-0.8418 3.918 0.76257 2.7598 4.0375 4.073 7.1523 3.2637 2.4888-0.64666 4.3054-2.4813 4.6113-4.6387a1.0006 1.0006 0 0 0 0.0098-0.13867l0.0625-24.363a1.0006 1.0006 0 0 0 0-2e-3c0-1.2726-0.87206-2.4071-2.084-2.6113a1.0006 1.0006 0 0 0-0.16801-0.013666z" color="#000000" color-rendering="auto" fill="#a62100" image-rendering="auto" opacity=".15" solid-color="#000000" stop-color="#000000" style="font-variation-settings:normal;isolation:auto;mix-blend-mode:normal"/>
		<path d="m42.739 17-14.742 3.8105c-1.1074 0.29673-1.999 1.4772-1.999 2.6237v20.179c-1.123-0.58802-2.5652-0.82578-4.0604-0.43728-2.6981 0.70106-4.3889 2.9668-3.8106 5.0599 0.57836 2.0931 3.2363 3.2622 5.9345 2.5612 2.1526-0.55929 3.6364-2.1418 3.873-3.8105l0.0624-19.179 13.993-3.7481v15.556c-1.123-0.58802-2.5652-0.82578-4.0604-0.43728-2.6981 0.70106-4.3889 2.9668-3.8106 5.0599 0.57837 2.0931 3.2363 3.2622 5.9345 2.5612 2.1526-0.55929 3.6364-2.1418 3.873-3.8105l0.0624-24.364c0-0.85988-0.53141-1.5032-1.2494-1.6242z" color="#000000" color-rendering="auto" fill="#a62100" image-rendering="auto" opacity=".3" solid-color="#000000" stop-color="#000000" style="font-variation-settings:normal;isolation:auto;mix-blend-mode:normal"/>
		<path d="m42.739 16-14.742 3.8105c-1.1074 0.29673-1.999 1.4772-1.999 2.6237v20.179c-1.123-0.58802-2.5652-0.82578-4.0604-0.43728-2.6981 0.70106-4.3889 2.9668-3.8106 5.0599 0.57836 2.0931 3.2363 3.2622 5.9345 2.5612 2.1526-0.55929 3.6364-2.1418 3.873-3.8105l0.0624-19.179 13.993-3.7481v15.556c-1.123-0.58802-2.5652-0.82578-4.0604-0.43728-2.6981 0.70106-4.3889 2.9668-3.8106 5.0599 0.57837 2.0931 3.2363 3.2622 5.9345 2.5612 2.1526-0.55929 3.6364-2.1418 3.873-3.8105l0.0624-24.364c0-0.85988-0.53141-1.5032-1.2494-1.6242z" color="#000000" color-rendering="auto" fill="#fff" image-rendering="auto" solid-color="#000000" stop-color="#000000" style="font-variation-settings:normal;isolation:auto;mix-blend-mode:normal"/>
		<path d="m39.992 21.63-10.004 2.6782c-1.1701 0.3192-1.9919 1.2453-1.9919 2.4985l13.992-3.748c0-1.2011-1.0918-1.6787-1.9962-1.4286zm3.9357 19.806c-0.82728 1.0907-2.0967 1.9354-3.623 2.332-2.406 0.62515-4.9022-0.02112-6.2676-1.6172-0.02858 0.36191-0.01955 0.72539 0.08008 1.0859 0.57837 2.0931 3.2374 3.2636 5.9355 2.5625 2.1526-0.55929 3.6364-2.1418 3.873-3.8105zm-15.992 3.9961c-0.82725 1.0912-2.0961 1.9372-3.623 2.334-2.4061 0.62517-4.9028-0.02098-6.2676-1.6172-0.02858 0.36191-0.0176 0.72538 0.08203 1.0859 0.57836 2.0931 3.2355 3.2636 5.9336 2.5625 2.1526-0.55929 3.6364-2.1418 3.873-3.8105z" color="#000000" color-rendering="auto" fill="#a62100" image-rendering="auto" opacity=".07" solid-color="#000000" stop-color="#000000" style="font-variation-settings:normal;isolation:auto;mix-blend-mode:normal"/>
		<path d="m43.986 17.592-0.06055 23.396c-0.23664 1.6687-1.7205 3.2513-3.873 3.8105-2.6981 0.70106-5.3572-0.46742-5.9355-2.5605-0.02594-0.09389-0.04167-0.18878-0.05859-0.2832-0.05945 0.42532-0.05902 0.85559 0.05859 1.2812 0.57837 2.0931 3.2374 3.2636 5.9355 2.5625 2.1526-0.55929 3.6364-2.1418 3.873-3.8105l0.0625-24.365c0-0.0108-0.0018-0.02052-2e-3 -0.03125zm-1.9863 5.4082c0-0.45578-0.37404-0.83908-0.99895-0.67696l-12.029 3.2221c-0.59851 0.1702-0.97626 0.45487-0.97626 1.2619l-0.0625 18.179c-0.0058 1.6854-1.7205 3.2513-3.873 3.8105-2.6981 0.70106-5.3552-0.46742-5.9336-2.5605-0.02649-0.09588-0.04346-0.19263-0.06055-0.28906-0.06048 0.42718-0.0576 0.85952 0.06055 1.2871 0.57836 2.0931 3.2355 3.2636 5.9336 2.5625 2.1526-0.55929 3.6364-2.1418 3.873-3.8105l0.0625-19.18 13.992-3.748z" color="#000000" color-rendering="auto" fill="#a62100" image-rendering="auto" opacity=".15" solid-color="#000000" stop-color="#000000" style="font-variation-settings:normal;isolation:auto;mix-blend-mode:normal"/>
	</g>
</svg>