<svg version="1.1" viewBox="0 0 64 64" xmlns="http://www.w3.org/2000/svg" xmlns:xlink="http://www.w3.org/1999/xlink">
	<defs>
		<linearGradient id="o" x1="24" x2="24" y1="5.9094" y2="43.047" gradientTransform="matrix(1.4324 0 0 1.4363 -2.3784 -2.4708)" gradientUnits="userSpaceOnUse">
			<stop stop-color="#fff" offset="0"/>
			<stop stop-color="#fff" stop-opacity=".23529" offset=".078922"/>
			<stop stop-color="#fff" stop-opacity=".15686" offset=".9999"/>
			<stop stop-color="#fff" stop-opacity=".39216" offset="1"/>
		</linearGradient>
		<linearGradient id="a">
			<stop stop-color="#181818" offset="0"/>
			<stop stop-color="#181818" stop-opacity="0" offset="1"/>
		</linearGradient>
		<radialGradient id="r" cx="4.993" cy="43.5" r="2.5" gradientTransform="matrix(2.4045 0 0 1 41.986 15.5)" gradientUnits="userSpaceOnUse" xlink:href="#a"/>
		<radialGradient id="s" cx="4.993" cy="43.5" r="2.5" gradientTransform="matrix(2.4045 0 0 1 -22.014 -102.5)" gradientUnits="userSpaceOnUse" xlink:href="#a"/>
		<linearGradient id="p" x1="25.058" x2="25.058" y1="47.028" y2="39.999" gradientTransform="matrix(1.5714 0 0 .71429 -5.7143 27.929)" gradientUnits="userSpaceOnUse">
			<stop stop-color="#181818" stop-opacity="0" offset="0"/>
			<stop stop-color="#181818" offset=".5"/>
			<stop stop-color="#181818" stop-opacity="0" offset="1"/>
		</linearGradient>
		<linearGradient id="q" x1="31.781" x2="31.781" y1="4.9267" y2="59.148" gradientUnits="userSpaceOnUse">
			<stop stop-color="#ed5353" offset="0"/>
			<stop stop-color="#c6262e" offset="1"/>
		</linearGradient>
		<linearGradient id="k" x1="71.204" x2="71.204" y1="6.2376" y2="44.341" gradientTransform="matrix(-.054054 0 0 .054054 24.576 51.223)" gradientUnits="userSpaceOnUse">
			<stop stop-color="#fff" offset="0"/>
			<stop stop-color="#fff" stop-opacity=".23529" offset=".50776"/>
			<stop stop-color="#fff" stop-opacity=".15686" offset=".83457"/>
			<stop stop-color="#fff" stop-opacity=".39216" offset="1"/>
		</linearGradient>
		<linearGradient id="l" x1="38.977" x2="38.977" y1="59.968" y2="8.0929" gradientTransform="matrix(-.078431 0 0 .078431 23.145 49.833)" gradientUnits="userSpaceOnUse">
			<stop stop-color="#2b3235" offset="0"/>
			<stop stop-color="#374044" offset="1"/>
		</linearGradient>
		<linearGradient id="m" x1="-19.844" x2="-19.844" y1="-12.424" y2="40.816" gradientTransform="translate(61.935 18.776)" gradientUnits="userSpaceOnUse">
			<stop stop-color="#4d4d4d" offset="0"/>
			<stop stop-color="#333" offset="1"/>
		</linearGradient>
		<linearGradient id="n" x1="24" x2="24" y1="5.9094" y2="42.092" gradientTransform="matrix(1.4324 0 0 1.4363 -2.3784 -2.4708)" gradientUnits="userSpaceOnUse">
			<stop stop-color="#fff" offset="0"/>
			<stop stop-color="#fff" stop-opacity=".23529" offset=".034875"/>
			<stop stop-color="#fff" stop-opacity=".15686" offset=".96216"/>
			<stop stop-color="#fff" stop-opacity=".39216" offset="1"/>
		</linearGradient>
	</defs>
	<rect x="54" y="56.5" width="6" height="5" fill="url(#r)" opacity=".6"/>
	<rect transform="scale(-1)" x="-10" y="-61.5" width="6" height="5" fill="url(#s)" opacity=".6"/>
	<rect x="10" y="56.5" width="44" height="5" fill="url(#p)" opacity=".6"/>
	<path d="m59.5 47v-36.5c0-3.324-2.676-6-6-6h-43c-3.324 0-6 2.676-6 6v36.5" color="#000000" fill="url(#q)" stroke="#7a0000" stroke-opacity=".5"/>
	<path d="m10.5 5.4297c-2.77 0-5 2.23-5 5v35.07h53v-35.07c0-2.77-2.23-5-5-5z" fill="none" opacity=".3" stroke="url(#o)" stroke-linecap="round"/>
	<g fill-rule="evenodd">
		<path d="m25.117 17.361c-0.01054 9.11e-4 -0.21537 0.02656-0.22578 0.02849-0.01041 0.0019-0.18737 0.05408-0.19756 0.05698s-0.18768 0.05314-0.19756 0.05698c-0.0099 0.0038-0.18807 0.08073-0.19756 0.08547-0.0095 0.0047-0.18854 0.10835-0.19756 0.11396-9e-3 0.0056-0.16087 0.10754-0.16933 0.11396-0.0085 0.0064-0.1615 0.13527-0.16933 0.14245-0.0079 0.0072-0.13397 0.13456-0.14111 0.14245-0.0071 0.0078-0.13472 0.16242-0.14111 0.17094-0.0064 0.0085-0.13552 0.19035-0.14111 0.19943-0.0056 0.0091-0.07994 0.16138-0.08467 0.17094-0.0047 0.0096-0.08083 0.18947-0.08467 0.19943-0.0038 0.01-0.08176 0.18916-0.08467 0.19943-0.0029 0.01027-0.05448 0.21742-0.05644 0.22792-2e-3 0.0105-0.02724 0.18879-0.02822 0.19943-9.93e-4 0.01064 7e-6 0.21723 0 0.22792v17.322c5.7e-5 0.0075-5.34e-4 0.1635 0 0.17094 5.34e-4 0.0075 0.02721 0.13506 0.02822 0.14245 9.94e-4 0.0074 0.02674 0.13514 0.02822 0.14245 0.0014 0.0073 0.02628 0.13526 0.02822 0.14245 2e-3 0.0072 0.02582 0.1354 0.02822 0.14245 0.0024 7e-3 0.0536 0.13557 0.05644 0.14245 0.0028 0.0068 0.05317 0.13577 0.05644 0.14245 0.0033 0.0067 0.08097 0.13599 0.08467 0.14245 0.0037 0.0065 0.08057 0.10776 0.08467 0.11396s0.08018 0.13653 0.08467 0.14245c0.0045 0.0059 0.07981 0.10834 0.08467 0.11396 0.0049 0.0057 0.10768 0.10867 0.11289 0.11396 0.0052 0.0053 0.10735 0.08053 0.11289 0.08547 0.0055 0.0049 0.10705 0.10939 0.11289 0.11396 0.0059 0.0046 0.10677 0.08129 0.11289 0.08547 0.0061 0.0042 0.13474 0.0817 0.14111 0.08547 0.0064 0.0037 0.10629 0.05363 0.11289 0.05698 0.0066 0.0034 0.13431 0.05407 0.14111 0.05698 0.0068 0.0029 0.13414 0.05452 0.14111 0.05698 7e-3 0.0025 0.134 0.05498 0.14111 0.05698 0.0071 2e-3 0.13388 0.02696 0.14111 0.02849 0.0072 0.0016 0.16202 0.02743 0.16933 0.02849 0.0073 0.0011 0.13375 0.02791 0.14111 0.02849 0.0074 5.8e-4 0.13372-9.8e-5 0.14111 0 0.0074 9.9e-5 0.13373 3.83e-4 0.14111 0 0.0074-3.83e-4 0.162-0.02762 0.16933-0.02849 0.0073-8.62e-4 0.13384 0.0014 0.14111 0 0.0072-0.0014 0.13394-0.05517 0.14111-0.05698 0.0071-0.0018 0.13408-0.02622 0.14111-0.02849 7e-3 -0.0023 0.13424-0.05425 0.14111-0.05698 0.0069-0.0027 0.13442-0.05381 0.14111-0.05698 0.0067-0.0032 0.13464-0.05338 0.14111-0.05698l15.353-8.6609a0.98963 0.99901 0 0 0 0-0.02849c0.0065-0.0037 0.13484-0.05279 0.14111-0.05698 0.0062-0.0042 0.10691-0.10936 0.11289-0.11396 6e-3 -0.0046 0.13544-0.08048 0.14111-0.08547 0.0057-5e-3 0.10756-0.10861 0.11289-0.11396 0.0053-0.0054 0.07969-0.10827 0.08467-0.11396 5e-3 -0.0057 0.1083-0.10795 0.11289-0.11396 0.0046-6e-3 0.08048-0.10766 0.08467-0.11396 0.0042-0.0063 0.08089-0.13588 0.08467-0.14245 0.0038-0.0066 0.0531-0.10716 0.05644-0.11396 0.0033-0.0068 0.08178-0.13544 0.08467-0.14245 0.0029-7e-3 0.02579-0.13526 0.02822-0.14245 0.0024-0.0072 0.05449-0.16361 0.05644-0.17094 2e-3 -0.0073 0.02675-0.13501 0.02822-0.14245 0.0014-0.0075 0.02724-0.13492 0.02822-0.14245 9.93e-4 -0.0076 0.02773-0.16336 0.02822-0.17094 4.94e-4 -0.0076 0-0.13486 0-0.14245 0-0.0076 4.94e-4 -0.13488 0-0.14245-4.94e-4 -0.0076-0.02724-0.16341-0.02822-0.17094-9.85e-4 -0.0075-0.02675-0.13501-0.02822-0.14245-0.0014-0.0075-0.02627-0.13512-0.02822-0.14245-2e-3 -0.0073-0.05402-0.16376-0.05644-0.17094-0.0024-0.0072-0.02533-0.13544-0.02822-0.14245-0.0029-7e-3 -0.08132-0.13565-0.08467-0.14245-0.0033-0.0068-0.05267-0.10739-0.05644-0.11396-0.0038-0.0066-0.08048-0.13615-0.08467-0.14245-0.0042-0.0063-0.08007-0.10795-0.08467-0.11396-0.0046-6e-3 -0.10791-0.10827-0.11289-0.11396-5e-3 -0.0057-0.07933-0.10861-0.08467-0.11396-0.0053-0.0054-0.10722-0.10898-0.11289-0.11396-0.0057-5e-3 -0.13513-0.08088-0.14111-0.08547-6e-3 -0.0046-0.10662-0.10977-0.11289-0.11396-0.0062-0.0042-0.13458-0.05321-0.14111-0.05698a0.98963 0.99901 0 0 0 0-0.02849l-15.353-8.6609v0.02849c-0.0074-0.0042-0.13343-0.0818-0.14111-0.08547-0.0077-0.0036-0.1614-0.08239-0.16933-0.08547-0.0079-0.0031-0.1612-0.0545-0.16933-0.05698-0.0081-0.0025-0.13281-0.02663-0.14111-0.02849-0.0083-0.0018-0.16092-0.02726-0.16933-0.02849-0.0084-0.0013-0.18908-0.02789-0.19756-0.02849-0.0085-6.01e-4 -0.16083-3.7e-5 -0.16933 0-0.0085 3.6e-5 -0.16086-6.73e-4 -0.16933 0z" fill="#7a0000" opacity=".15" stop-color="#000000" style="-inkscape-stroke:none;font-variation-settings:normal"/>
		<path d="m25.202 18.358a1.3327 1.3453 0 0 0-1.2136 1.339v17.322a1.3327 1.3453 0 0 0 1.9756 1.1681l15.353-8.6609a1.3327 1.3453 0 0 0 0-2.3362l-15.353-8.6609a1.3327 1.3453 0 0 0-0.762-0.17094z" fill="#7a0000" opacity=".3" stop-color="#000000" style="-inkscape-stroke:none;font-variation-settings:normal"/>
		<path d="m25.202 17.358a1.3327 1.3453 0 0 0-1.2136 1.339v17.322a1.3327 1.3453 0 0 0 1.9756 1.1681l15.353-8.6609a1.3327 1.3453 0 0 0 0-2.3362l-15.353-8.6609a1.3327 1.3453 0 0 0-0.762-0.17094z" fill="#fafafa"/>
		<path d="m41.885 26.859a1.3327 1.3453 0 0 1-0.56836 0.66602l-15.354 8.6621a1.3327 1.3453 0 0 1-1.9746-1.168v1a1.3327 1.3453 0 0 0 1.9746 1.168l15.354-8.6602a1.3327 1.3453 0 0 0 0.56836-1.668z" fill="#7a0000" opacity=".15" stop-color="#000000" style="-inkscape-stroke:none;font-variation-settings:normal"/>
	</g>
	<path d="m4.5 46.5v7c0 3.324 2.676 6 6 6h43c3.324 0 6-2.676 6-6v-7z" color="#000000" fill="url(#m)" stop-color="#000000" stroke="#000" stroke-opacity=".5" style="font-variation-settings:normal"/>
	<path d="m5.5 47.5v6.0703c0 2.77 2.23 5 5 5h43c2.77 0 5-2.23 5-5v-6.0703" fill="none" opacity=".2" stroke="url(#n)" stroke-linecap="square" stroke-linejoin="round"/>
	<rect x="9" y="53" width="46" height="1" rx=".46274" ry=".46274" fill="#fff" opacity=".05"/>
	<rect x="9" y="52" width="46" height="1" rx=".46274" ry=".46274" opacity=".4"/>
	<path d="m20.636 50.5c1.1035 0 2 0.89647 2 2 0 1.1035-0.89647 2-2 2s-2-0.89647-2-2c0-1.1035 0.89647-2 2-2z" color="#000000" fill="url(#l)"/>
	<path d="m19.698 52.594c0 0.5523 0.44775 1 0.99999 1 0.55229 0 1-0.44774 1-1 0-0.55228-0.44772-0.99996-1-0.99996-0.55224 0-0.99999 0.44769-0.99999 0.99996z" color="#000000" fill="none" opacity=".15" stroke="url(#k)" stroke-linecap="round" stroke-linejoin="round"/>
	<path d="m20.636 50.5c1.1035 0 2 0.89647 2 2 0 1.1035-0.89647 2-2 2s-2-0.89647-2-2c0-1.1035 0.89647-2 2-2z" color="#000000" fill="none" stroke="#292e2f" stroke-linecap="round" stroke-linejoin="round"/>
</svg>