<svg version="1.1" viewBox="0 0 64 64" xmlns="http://www.w3.org/2000/svg" xmlns:xlink="http://www.w3.org/1999/xlink">
	<defs>
		<linearGradient id="p">
			<stop stop-color="#fff" offset="0"/>
			<stop stop-color="#fff" stop-opacity=".23529" offset=".087885"/>
			<stop stop-color="#fff" stop-opacity=".15686" offset=".91637"/>
			<stop stop-color="#fff" stop-opacity=".39216" offset="1"/>
		</linearGradient>
		<linearGradient id="o">
			<stop stop-color="#181818" offset="0"/>
			<stop stop-color="#181818" stop-opacity="0" offset="1"/>
		</linearGradient>
		<linearGradient id="n">
			<stop stop-opacity=".31783" offset="0"/>
			<stop stop-opacity=".24031" offset="1"/>
		</linearGradient>
		<radialGradient id="y" cx="4.993" cy="43.5" r="2.5" gradientTransform="matrix(2.4045 0 0 1 41.986 15.5)" gradientUnits="userSpaceOnUse" xlink:href="#o"/>
		<radialGradient id="z" cx="4.993" cy="43.5" r="2.5" gradientTransform="matrix(2.4045 0 0 1 -22.014 -102.5)" gradientUnits="userSpaceOnUse" xlink:href="#o"/>
		<linearGradient id="x" x1="74.839" x2="74.839" y1="4.5359" y2="49.779" gradientTransform="matrix(1.3862 0 0 1.3334 -70.644 -1.6112)" gradientUnits="userSpaceOnUse">
			<stop stop-color="#43d6b5" offset="0"/>
			<stop stop-color="#28bca3" offset="1"/>
		</linearGradient>
		<linearGradient id="r" x1="25.058" x2="25.058" y1="47.028" y2="39.999" gradientTransform="matrix(1.5714 0 0 .71429 -5.7143 27.929)" gradientUnits="userSpaceOnUse">
			<stop stop-color="#181818" stop-opacity="0" offset="0"/>
			<stop stop-color="#181818" offset=".5"/>
			<stop stop-color="#181818" stop-opacity="0" offset="1"/>
		</linearGradient>
		<linearGradient id="s" x1="74.839" x2="74.839" y1="4.5359" y2="49.779" gradientTransform="matrix(1.3804 0 0 1.3277 -70.158 -1.4115)" gradientUnits="userSpaceOnUse">
			<stop stop-color="#f4f4f4" offset="0"/>
			<stop stop-color="#dbdbdb" offset="1"/>
		</linearGradient>
		<linearGradient id="q" x1="24" x2="24" y1="5.9148" y2="42.187" gradientTransform="matrix(1.4324 0 0 1.4324 -2.3784 -2.3784)" gradientUnits="userSpaceOnUse" xlink:href="#p"/>
		<linearGradient id="t" x1="12.879" x2="12.879" y1="66.951" y2="4.7802" gradientTransform="matrix(.8075 0 0 .89472 10.835 -.13217)" gradientUnits="userSpaceOnUse" xlink:href="#n"/>
		<linearGradient id="u" x1="20.394" x2="20.394" y1="24.801" y2="42.106" gradientTransform="matrix(1.4324 0 0 1.4324 -2.3784 -2.3784)" gradientUnits="userSpaceOnUse" xlink:href="#p"/>
		<linearGradient id="v" x1="12.879" x2="12.879" y1="66.951" y2="4.7802" gradientTransform="matrix(-.8075 0 0 .89472 52.195 -.13217)" gradientUnits="userSpaceOnUse" xlink:href="#n"/>
		<linearGradient id="w" x1="34.55" x2="34.55" y1="24.708" y2="42.047" gradientTransform="matrix(1.4324 0 0 1.4324 -2.3784 -2.3784)" gradientUnits="userSpaceOnUse">
			<stop stop-color="#fff" offset="0"/>
			<stop stop-color="#fff" stop-opacity=".23529" offset="1e-4"/>
			<stop stop-color="#fff" stop-opacity=".15686" offset=".83623"/>
			<stop stop-color="#fff" stop-opacity=".39216" offset="1"/>
		</linearGradient>
	</defs>
	<rect x="54" y="56.5" width="6" height="5" fill="url(#y)" opacity=".4"/>
	<rect transform="scale(-1)" x="-10" y="-61.5" width="6" height="5" fill="url(#z)" opacity=".4"/>
	<rect x="10" y="56.5" width="44" height="5" fill="url(#r)" opacity=".4"/>
	<rect x="5" y="5" width="54" height="54" rx="5.5" ry="5.5" color="#000000" fill="url(#s)" stop-color="#000000" style="font-variation-settings:normal"/>
	<g fill="none">
		<rect x="5.5" y="5.5" width="53" height="53" rx="5" ry="5" stroke="url(#q)" stroke-linecap="round" stroke-linejoin="round"/>
		<g stroke-linejoin="round">
			<path d="m59.5 31.5v-21c0-3.324-2.676-6-6-6h-43c-3.324 0-6 2.676-6 6v43c0 3.324 2.676 6 6 6h21" color="#000000" stop-color="#000000" stroke="url(#t)" stroke-width=".99992" style="font-variation-settings:normal"/>
			<path d="m31 32.5h-26" opacity=".5" stop-color="#000000" stroke="url(#u)" style="font-variation-settings:normal"/>
			<path d="m32.5 58.5v-52.5" stop-color="#000000" stroke="url(#q)" style="font-variation-settings:normal"/>
		</g>
		<path d="m31.5 5v26zm-26.5 26.5h26z" opacity=".5" stop-color="#000000" stroke="url(#v)" style="font-variation-settings:normal"/>
	</g>
	<path d="m31.5 31.5v28.002h22.033c3.2976 0 5.9668-2.669 5.9668-5.9668v-22.035z" color="#000000" fill="url(#x)" stop-color="#000000" stroke="#007367" stroke-opacity=".5" style="font-variation-settings:normal"/>
	<path d="m32.5 58.5h21c2.77 0 5-2.23 5-5v-21h-26z" fill="none" opacity=".3" stroke="url(#w)" stroke-linecap="round"/>
	<path d="m17.75 13c-0.41568 0-0.75041 0.34808-0.75 0.7793v4.2207h-4.2207c-0.43122 0-0.7793 0.33432-0.7793 0.75v1.5c0 0.41568 0.34808 0.75041 0.7793 0.75h4.2207v4.2168c-4.1e-4 0.43122 0.33432 0.7793 0.75 0.7793h1.5c0.41568 0 0.75-0.34808 0.75-0.7793v-4.2168h4.2168c0.43121 0 0.77929-0.33432 0.77929-0.75v-1.5c0-0.41568-0.34808-0.75041-0.77929-0.75h-4.2168v-4.2207c0-0.43122-0.33432-0.7793-0.75-0.7793zm23.031 5c-0.43122 0-0.7793 0.33432-0.7793 0.75v1.5c0 0.41568 0.34808 0.75041 0.7793 0.75h9.4375c0.43122 0 0.7793-0.33432 0.7793-0.75v-1.5c0-0.41568-0.34808-0.75041-0.7793-0.75zm-25.811 23.16c-0.19548-0.0038-0.39014 0.06593-0.53711 0.21289l-1.0605 1.0605c-0.29393 0.29393-0.28373 0.7774 0.0215 1.082l2.9844 2.9844-2.9824 2.9824c-0.3052 0.30463-0.31345 0.7881-0.0195 1.082l1.0605 1.0605c0.29393 0.29393 0.77516 0.28344 1.0801-0.02148l2.9824-2.9824 2.9824 2.9824c0.30492 0.30492 0.78615 0.31541 1.0801 0.02148l1.0606-1.0605c0.29393-0.29393 0.28568-0.7774-0.0195-1.082l-2.9825-2.9824 2.9844-2.9844c0.30492-0.30492 0.31541-0.7881 0.0215-1.082l-1.0606-1.0605c-0.29393-0.29393-0.7774-0.28373-1.082 0.02148l-2.9844 2.9844-2.9844-2.9844c-0.15246-0.15246-0.34944-0.23057-0.54493-0.23438z" fill="#fafafa" opacity=".5" stop-color="#000000"/>
	<path d="m39.684 41.004c-1.1321 0.02342-1.869 1.1879-1.6816 2.2461-0.0828 0.9485-0.0104 2.1495 1.0117 2.5781 1.1101 0.35753 2.3174 0.08806 3.4676 0.17188 3.0308-0.0264 6.0692 0.05269 9.0953-0.03934 1.0707-0.16887 1.5893-1.3216 1.4254-2.3107 0.0933-0.92225-0.034-2.0674-1.0117-2.4781-1.1101-0.35753-2.3174-0.08806-3.4676-0.17188-2.9463 0.0026-5.8929-0.0052-8.8391 0.0039zm0 6c-1.1321 0.02342-1.869 1.1879-1.6816 2.2461-0.0828 0.9485-0.0104 2.1495 1.0117 2.5781 1.1101 0.35753 2.3174 0.08806 3.4676 0.17188 3.0308-0.0264 6.0692 0.05269 9.0953-0.03934 1.0707-0.16887 1.5893-1.3216 1.4254-2.3107 0.0933-0.92225-0.034-2.0674-1.0117-2.4781-1.1101-0.35753-2.3174-0.08806-3.4676-0.17188-2.9463 0.0026-5.8929-0.0052-8.8391 0.0039z" fill="#007367" opacity=".15" stop-color="#000000"/>
	<path d="m39.781 42c-0.43135 0-0.7793 0.33432-0.7793 0.75v1.5c0 0.41568 0.34795 0.75041 0.7793 0.75h11.441c0.43134 0 0.77929-0.33432 0.77929-0.75v-1.5c0-0.41568-0.34795-0.75041-0.77929-0.75zm0 6c-0.43135 0-0.7793 0.33432-0.7793 0.75v1.5c0 0.41568 0.34795 0.75041 0.7793 0.75h11.441c0.43134 0 0.77929-0.33432 0.77929-0.75v-1.5c0-0.41568-0.34795-0.75041-0.77929-0.75z" fill="#007367" opacity=".3" stop-color="#000000"/>
	<path d="m17.75 12c-0.41568 0-0.75041 0.34808-0.75 0.7793v4.2207h-4.2207c-0.43122 0-0.7793 0.33432-0.7793 0.75v1.5c0 0.41568 0.34808 0.75041 0.7793 0.75h4.2207v4.2168c-4.1e-4 0.43122 0.33432 0.7793 0.75 0.7793h1.5c0.41568 0 0.75-0.34808 0.75-0.7793v-4.2168h4.2168c0.43121 0 0.77929-0.33432 0.77929-0.75v-1.5c0-0.41568-0.34808-0.75041-0.77929-0.75h-4.2168v-4.2207c0-0.43122-0.33432-0.7793-0.75-0.7793zm23.031 5c-0.43122 0-0.7793 0.33432-0.7793 0.75v1.5c0 0.41568 0.34808 0.75041 0.7793 0.75h9.4375c0.43122 0 0.7793-0.33432 0.7793-0.75v-1.5c0-0.41568-0.34808-0.75041-0.7793-0.75zm-25.811 23.16c-0.19548-0.0038-0.39014 0.06593-0.53711 0.21289l-1.0605 1.0605c-0.29393 0.29393-0.28373 0.7774 0.0215 1.082l2.9844 2.9844-2.9824 2.9824c-0.3052 0.30463-0.31345 0.7881-0.0195 1.082l1.0605 1.0605c0.29393 0.29393 0.77516 0.28344 1.0801-0.02148l2.9824-2.9824 2.9824 2.9824c0.30492 0.30492 0.78615 0.31541 1.0801 0.02148l1.0606-1.0605c0.29393-0.29393 0.28568-0.7774-0.0195-1.082l-2.9825-2.9824 2.9844-2.9844c0.30492-0.30492 0.31541-0.7881 0.0215-1.082l-1.0606-1.0605c-0.29393-0.29393-0.7774-0.28373-1.082 0.02148l-2.9844 2.9844-2.9844-2.9844c-0.15246-0.15246-0.34944-0.23057-0.54493-0.23438z" fill="#555761" opacity=".8" stop-color="#000000"/>
	<path d="m17.75 12c-0.41568 0-0.75041 0.34808-0.75 0.7793v1c-4.1e-4 -0.43122 0.33432-0.7793 0.75-0.7793h1.5c0.41568 0 0.75 0.34808 0.75 0.7793v-1c0-0.43122-0.33432-0.7793-0.75-0.7793zm-4.9707 5c-0.43122 0-0.7793 0.33432-0.7793 0.75v1c0-0.41568 0.34808-0.75 0.7793-0.75h4.2207v-1zm7.2207 0v1h4.2168c0.43121-4.1e-4 0.77929 0.33432 0.77929 0.75v-1c0-0.41568-0.34808-0.75041-0.77929-0.75zm20.781 0c-0.43122 0-0.7793 0.33432-0.7793 0.75v1c0-0.41568 0.34808-0.75 0.7793-0.75h9.4375c0.43122-4.1e-4 0.7793 0.33432 0.7793 0.75v-1c0-0.41568-0.34808-0.75041-0.7793-0.75zm-18.752 23.158c-0.19569 4e-3 -0.39261 0.08372-0.54492 0.23633l-2.9844 2.9844-2.9844-2.9844c-0.15246-0.15246-0.34944-0.23057-0.54493-0.23438-0.19548-0.0038-0.39014 0.06593-0.53711 0.21289l-1.0605 1.0605c-0.27779 0.27778-0.28506 0.7259-0.0273 1.0312 9e-3 -0.01025 0.0175-0.02141 0.0273-0.03125l1.0605-1.0605c0.29393-0.29393 0.77712-0.28343 1.082 0.02148l2.9844 2.9844 2.9844-2.9844c0.30462-0.30521 0.7881-0.31542 1.082-0.02148l1.0605 1.0605c0.01 0.0098 0.0182 0.021 0.0273 0.03125 0.2575-0.30556 0.25044-0.75346-0.0273-1.0312l-1.0605-1.0606c-0.14697-0.14697-0.34142-0.2188-0.53711-0.21484zm-6.1504 5.8418-2.4824 2.4824c-0.29551 0.29495-0.3128 0.75688-0.0469 1.0527 0.0152-0.01809 0.0298-0.03569 0.0469-0.05273l2.9824-2.9824zm5.2422 0-0.5 0.5 2.9824 2.9824c0.0171 0.01704 0.0316 0.03464 0.0469 0.05273 0.26593-0.29585 0.24863-0.75778-0.0469-1.0527z" fill="#555761" opacity=".8" stop-color="#000000"/>
	<path d="m39.781 41c-0.43135 0-0.7793 0.33432-0.7793 0.75v1.5c0 0.41568 0.34795 0.75041 0.7793 0.75h11.441c0.43134 0 0.77929-0.33432 0.77929-0.75v-1.5c0-0.41568-0.34795-0.75041-0.77929-0.75zm0 6c-0.43135 0-0.7793 0.33432-0.7793 0.75v1.5c0 0.41568 0.34795 0.75041 0.7793 0.75h11.441c0.43134 0 0.77929-0.33432 0.77929-0.75v-1.5c0-0.41568-0.34795-0.75041-0.77929-0.75z" fill="#fafafa" stop-color="#000000"/>
	<path d="m39.002 42.25v1c0 0.41568 0.34795 0.75041 0.7793 0.75h11.441c0.43134 0 0.77929-0.33432 0.77929-0.75v-1c0 0.41568-0.34795 0.75-0.77929 0.75h-11.441c-0.43135 4.1e-4 -0.7793-0.33432-0.7793-0.75zm0 6v1c0 0.41568 0.34795 0.75041 0.7793 0.75h11.441c0.43134 0 0.77929-0.33432 0.77929-0.75v-1c0 0.41568-0.34795 0.75-0.77929 0.75h-11.441c-0.43135 4.1e-4 -0.7793-0.33432-0.7793-0.75z" fill="#007367" opacity=".15" stop-color="#000000" style="font-variation-settings:normal"/>
</svg>