<svg version="1.1" viewBox="0 0 64 64" xmlns="http://www.w3.org/2000/svg" xmlns:xlink="http://www.w3.org/1999/xlink">
	<defs>
		<linearGradient id="e" x1="24" x2="24" y1="5.9094" y2="42.092" gradientTransform="matrix(1.4324 0 0 1.4363 -2.3784 -2.4708)" gradientUnits="userSpaceOnUse">
			<stop stop-color="#fff" offset="0"/>
			<stop stop-color="#fff" stop-opacity=".23529" offset=".034875"/>
			<stop stop-color="#fff" stop-opacity=".15686" offset=".96216"/>
			<stop stop-color="#fff" stop-opacity=".39216" offset="1"/>
		</linearGradient>
		<linearGradient id="a">
			<stop stop-color="#181818" offset="0"/>
			<stop stop-color="#181818" stop-opacity="0" offset="1"/>
		</linearGradient>
		<radialGradient id="c" cx="4.993" cy="43.5" r="2.5" gradientTransform="matrix(2.4045 0 0 1 41.986 15.5)" gradientUnits="userSpaceOnUse" xlink:href="#a"/>
		<radialGradient id="b" cx="4.993" cy="43.5" r="2.5" gradientTransform="matrix(2.4045 0 0 1 -22.014 -102.5)" gradientUnits="userSpaceOnUse" xlink:href="#a"/>
		<linearGradient id="d" x1="25.058" x2="25.058" y1="47.028" y2="39.999" gradientTransform="matrix(1.5714 0 0 .71429 -5.7143 27.929)" gradientUnits="userSpaceOnUse">
			<stop stop-color="#181818" stop-opacity="0" offset="0"/>
			<stop stop-color="#181818" offset=".5"/>
			<stop stop-color="#181818" stop-opacity="0" offset="1"/>
		</linearGradient>
		<clipPath id="g">
			<rect x="6.9578e-7" y="-.00099937" width="127.56" height="127.56" rx="13.916" ry="13.916" color="#000000" fill="url(#f)"/>
		</clipPath>
		<linearGradient id="f" x1="31.781" x2="31.781" y1="4.9267" y2="59.148" gradientTransform="matrix(2.3193 0 0 2.3193 -10.437 -10.438)" gradientUnits="userSpaceOnUse">
			<stop stop-color="#cd9ef7" offset="0"/>
			<stop stop-color="#a56de2" offset="1"/>
		</linearGradient>
	</defs>
	<g>
		<rect x="54" y="56.5" width="6" height="5" fill="url(#c)" opacity=".6"/>
		<rect transform="scale(-1)" x="-10" y="-61.5" width="6" height="5" fill="url(#b)" opacity=".6"/>
		<rect x="10" y="56.5" width="44" height="5" fill="url(#d)" opacity=".6"/>
	</g>
	<g transform="matrix(.43117 0 0 .43117 4.5 4.5004)" clip-path="url(#g)" clip-rule="evenodd" fill-rule="evenodd">
		<path d="m110.48 63.783c10.859 18.761 17.079 40.542 17.079 63.774h-127.56c47.204 0 88.423-25.654 110.48-63.774z" fill="#78e600"/>
		<path d="M 0.001,0 H 127.56 C 104.328,0 82.542,6.216 63.779,17.075 45.014,6.216 23.235,0 0.001,0 Z" fill="#ffab00"/>
		<path d="m127.56 0v127.56c0-23.232-6.216-45.019-17.074-63.781 10.858-18.764 17.074-40.544 17.074-63.777z" fill="#91bf00"/>
		<path d="m127.56 0c-1e-3 23.232-6.216 45.014-17.074 63.777a128.06 128.06 0 0 0-11.737-16.963c0.405 0.025 0.813 0.041 1.226 0.041 10.64 0 19.268-8.626 19.268-19.267 0-10.642-8.628-19.27-19.268-19.27-10.642 0-19.269 8.628-19.269 19.27 0 0.41 0.015 0.82 0.041 1.226a127.76 127.76 0 0 0-16.964-11.738c18.764-10.86 40.543-17.076 63.777-17.076z" fill="#6c8300"/>
		<path d="m1e-3 127.56c1e-3 -47.2 25.658-88.418 63.778-110.48a127.98 127.98 0 0 1 16.966 11.745c0.612 9.654 8.335 17.375 17.988 17.988a127.8 127.8 0 0 1 11.749 16.967c-22.06 38.121-63.278 63.776-110.48 63.776zm63.779-91.366c15.234 0 27.586 12.354 27.586 27.588 0 15.23-12.352 27.584-27.586 27.584s-27.586-12.353-27.586-27.583c0-15.235 12.352-27.589 27.586-27.589zm-36.193 44.512c10.641 0 19.269 8.629 19.269 19.267 0 10.642-8.628 19.27-19.269 19.27-10.638 0-19.268-8.628-19.268-19.27 0-10.638 8.63-19.267 19.268-19.267z" fill="#6e9600"/>
		<path d="m27.588 89.818c5.606 0 10.152 4.548 10.152 10.154s-4.546 10.151-10.152 10.151-10.153-4.545-10.153-10.151 4.546-10.154 10.153-10.154zm36.192-40.576c8.027 0 14.537 6.511 14.537 14.537s-6.51 14.537-14.537 14.537-14.537-6.511-14.537-14.537 6.51-14.537 14.537-14.537zm36.193-31.807c5.607 0 10.153 4.545 10.153 10.151 0 5.608-4.546 10.153-10.153 10.153-5.606 0-10.153-4.545-10.153-10.153-1e-3 -5.607 4.546-10.151 10.153-10.151zm-99.972 110.12v-127.56c23.232 0 45.014 6.22 63.777 17.078-38.123 22.059-63.777 63.276-63.777 110.48z" fill="#ffe600"/>
		<path d="m99.973 8.318c10.64 0 19.269 8.629 19.269 19.269s-8.629 19.268-19.269 19.268c-0.413 0-0.823-0.015-1.23-0.04a128.36 128.36 0 0 0-17.997-17.998 20.02 20.02 0 0 1-0.04-1.229c-1e-3 -10.641 8.627-19.27 19.267-19.27zm0 9.116c5.606 0 10.153 4.546 10.153 10.153 0 5.606-4.547 10.152-10.153 10.152s-10.153-4.546-10.153-10.152c-1e-3 -5.608 4.546-10.153 10.153-10.153z" fill="#32a000"/>
		<path d="m98.742 46.814c-9.658-0.609-17.388-8.339-17.997-17.998a128.36 128.36 0 0 1 17.997 17.998zm-71.154 43.004c5.606 0 10.153 4.547 10.153 10.153s-4.547 10.153-10.153 10.153-10.153-4.547-10.153-10.153 4.546-10.153 10.153-10.153zm36.192-40.576c8.027 0 14.537 6.51 14.537 14.537s-6.51 14.536-14.537 14.536-14.537-6.509-14.537-14.536 6.51-14.537 14.537-14.537zm0-13.05c15.233 0 27.586 12.354 27.586 27.586s-12.353 27.586-27.586 27.586-27.586-12.353-27.586-27.585c0-15.233 12.353-27.587 27.586-27.587zm-36.192 44.511c10.64 0 19.269 8.629 19.269 19.269s-8.629 19.268-19.269 19.268-19.269-8.629-19.269-19.269 8.629-19.268 19.269-19.268z" fill="#32be00"/>
	</g>
	<rect x="5.5" y="5.4288" width="53" height="53.142" rx="5" ry="5" fill="none" opacity=".3" stroke="url(#e)" stroke-linecap="round" stroke-linejoin="round"/>
	<rect x="4.5" y="4.5" width="55" height="55" rx="6" ry="6" color="#000000" fill="none" opacity=".5" stroke="#6e9600" stroke-linecap="round" stroke-linejoin="round"/>
</svg>