<svg version="1.1" viewBox="0 0 64 64" xmlns="http://www.w3.org/2000/svg" xmlns:xlink="http://www.w3.org/1999/xlink">
	<defs>
		<linearGradient id="g" x1="24" x2="24" y1="5.9094" y2="42.092" gradientTransform="matrix(1.4324 0 0 1.4363 -2.3784 -2.4708)" gradientUnits="userSpaceOnUse">
			<stop stop-color="#fff" offset="0"/>
			<stop stop-color="#fff" stop-opacity=".23529" offset=".034875"/>
			<stop stop-color="#fff" stop-opacity=".15686" offset=".96216"/>
			<stop stop-color="#fff" stop-opacity=".39216" offset="1"/>
		</linearGradient>
		<linearGradient id="a">
			<stop stop-color="#181818" offset="0"/>
			<stop stop-color="#181818" stop-opacity="0" offset="1"/>
		</linearGradient>
		<radialGradient id="c" cx="4.993" cy="43.5" r="2.5" gradientTransform="matrix(2.4045 0 0 1 41.986 15.5)" gradientUnits="userSpaceOnUse" xlink:href="#a"/>
		<radialGradient id="b" cx="4.993" cy="43.5" r="2.5" gradientTransform="matrix(2.4045 0 0 1 -22.014 -102.5)" gradientUnits="userSpaceOnUse" xlink:href="#a"/>
		<linearGradient id="f" x1="25.058" x2="25.058" y1="47.028" y2="39.999" gradientTransform="matrix(1.5714 0 0 .71429 -5.7143 27.929)" gradientUnits="userSpaceOnUse">
			<stop stop-color="#181818" stop-opacity="0" offset="0"/>
			<stop stop-color="#181818" offset=".5"/>
			<stop stop-color="#181818" stop-opacity="0" offset="1"/>
		</linearGradient>
		<linearGradient id="d" x1="31.781" x2="31.781" y1="4.9267" y2="59.148" gradientUnits="userSpaceOnUse">
			<stop stop-color="#1a1a1a" offset="0"/>
			<stop stop-color="#050505" offset="1"/>
		</linearGradient>
		<style>.g{fill:#000;}.g,.h,.i{stroke-width:0px;}.h{fill:url(#h);}.i{fill:#fff;}</style>
		<linearGradient id="h" x1="40" x2="40" y1="80" gradientUnits="userSpaceOnUse">
			<stop stop-color="#fff" stop-opacity=".02" offset=".1"/>
			<stop stop-color="#fff" stop-opacity=".1" offset=".9"/>
		</linearGradient>
	</defs>
	<g>
		<rect x="54" y="56.5" width="6" height="5" fill="url(#c)" opacity=".6"/>
		<rect transform="scale(-1)" x="-10" y="-61.5" width="6" height="5" fill="url(#b)" opacity=".6"/>
		<rect x="10" y="56.5" width="44" height="5" fill="url(#f)" opacity=".6"/>
	</g>
	<rect x="4.5" y="4.5" width="55" height="55" rx="6" ry="6" color="#000000" fill="url(#d)"/>
	<rect x="5.5" y="5.4288" width="53" height="53.142" rx="5" ry="5" fill="none" opacity=".3" stroke="url(#g)" stroke-linecap="round" stroke-linejoin="round"/>
	<rect x="4.5" y="4.5" width="55" height="55" rx="6" ry="6" color="#000000" fill="none" opacity=".5" stroke="#0d0d0d" stroke-linecap="round" stroke-linejoin="round"/>
	<g transform="matrix(.80375 0 0 .80375 -.15004 -.15)">
		<path class="i" d="m63.437 57.678c-0.0536 3.2127-2.7418 5.7593-5.955 5.7593h-24.153c-0.9392 0-1.5768-0.9548-1.2169-1.8223l0.0082-0.0197c1.5882-3.8346 4.1653-7.0703 7.456-9.4308 0.4093-0.2936 0.9032-0.4459 1.407-0.4459h16.595c3.2694 0 5.9133 2.6775 5.8585 5.9594z"/>
		<path class="i" d="m46.671 16.562c0.9392 0 1.5768 0.9548 1.2169 1.8223l-0.0082 0.0197c-1.5882 3.8346-4.1653 7.0703-7.456 9.4308-0.4093 0.2936-0.9032 0.4459-1.407 0.4459h-16.498c-3.2132 0-5.9014-2.5466-5.955-5.7593-0.0547-3.2819 2.5892-5.9594 5.8585-5.9594h24.249z"/>
		<path class="i" d="m22.421 63.438c-0.7473 0-1.5065-0.1438-2.2398-0.4475-2.9896-1.2383-4.4093-4.6657-3.171-7.6551 1.9045-4.5977 4.6342-8.7196 8.1136-12.251 3.6044-3.6585 7.8551-6.5172 12.634-8.4968 6.5691-2.7211 11.685-7.8373 14.406-14.406 1.2383-2.9897 4.6658-4.4091 7.6551-3.171 2.9896 1.2383 4.4093 4.6657 3.171 7.6551-1.9045 4.5977-4.6342 8.7196-8.1136 12.251-3.6044 3.6585-7.8551 6.5172-12.634 8.4968-6.5691 2.7211-11.685 7.8373-14.406 14.406-0.9345 2.2562-3.1164 3.6185-5.4153 3.6185z"/>
	</g>
</svg>