<svg version="1.1" viewBox="0 0 64 64" xmlns="http://www.w3.org/2000/svg" xmlns:xlink="http://www.w3.org/1999/xlink">
	<defs>
		<linearGradient id="j" x1="24" x2="24" y1="5.9094" y2="42.092" gradientTransform="matrix(1.4324 0 0 1.4363 -2.3784 -2.4708)" gradientUnits="userSpaceOnUse">
			<stop stop-color="#fff" offset="0"/>
			<stop stop-color="#fff" stop-opacity=".23529" offset=".034875"/>
			<stop stop-color="#fff" stop-opacity=".15686" offset=".96216"/>
			<stop stop-color="#fff" stop-opacity=".39216" offset="1"/>
		</linearGradient>
		<linearGradient id="a">
			<stop stop-color="#181818" offset="0"/>
			<stop stop-color="#181818" stop-opacity="0" offset="1"/>
		</linearGradient>
		<radialGradient id="l" cx="4.993" cy="43.5" r="2.5" gradientTransform="matrix(2.4045 0 0 1 41.986 15.5)" gradientUnits="userSpaceOnUse" xlink:href="#a"/>
		<radialGradient id="m" cx="4.993" cy="43.5" r="2.5" gradientTransform="matrix(2.4045 0 0 1 -22.014 -102.5)" gradientUnits="userSpaceOnUse" xlink:href="#a"/>
		<linearGradient id="k" x1="25.058" x2="25.058" y1="47.028" y2="39.999" gradientTransform="matrix(1.5714 0 0 .71429 -5.7143 27.929)" gradientUnits="userSpaceOnUse">
			<stop stop-color="#181818" stop-opacity="0" offset="0"/>
			<stop stop-color="#181818" offset=".5"/>
			<stop stop-color="#181818" stop-opacity="0" offset="1"/>
		</linearGradient>
		<clipPath id="h">
			<path d="m101.84-86.148v67.254c0.0817-0.21202 0.15134-0.42922 0.23437-0.64062 2.5825-6.1204 5.5747-12.058 9.3379-17.547-0.14524-1.0011-0.25802-1.8958-0.4707-3.0938 1.7801-4.0024 3.9451-7.8238 5.9121-11.734 1.2373-2.2716 2.0387-3.8425 3.4453-6.0293 1.8061-2.8079 3.9699-5.3791 6.4375-7.627-1.3697-5.1567-2.7789-10.306-3.6582-15.562-0.0872-0.52122 0.95704-0.44716 1.4473-0.64453 1.6295-0.65607 3.3612-1.0264 5.041-1.5215 4.0044-1.0322 8.0353-1.9576 12.072-2.8535zm153.03 0c0.0903 2.0869-1.4667 5.3194-3.7148 10.926 1.3909 0.46874 2.7727 0.96356 4.1211 1.5449 1.2361 0.52294 2.4641 1.0648 3.6934 1.6035 1.5143 0.68072 3.024 1.3901 4.3828 2.3555 0.55318 0.3862 1.1012 0.7789 1.6523 1.168 0.0653 0.04545 0.41607 0.27752 0.32227 0.23047-0.73375-0.37286 0.66438 0.33043 0.73828 0.3418 0.65829 0.30083 1.3191 0.59615 1.9785 0.89453 1.0136 0.4515 2.0263 0.90166 3.0449 1.3418 0.91039 0.43476 1.804 0.89768 2.6484 1.4512 0.8966 0.55739 1.7892 1.121 2.6543 1.7266 1.2939 0.93357 2.5661 1.9139 3.6328 3.1094 0.17583 0.19249 0.35177 0.38507 0.53711 0.56836 0.0512 0.03563 0.10051 0.07273 0.15235 0.10742 0.29366 0.19521 0.5938 0.38309 0.87695 0.59375 0.26799 0.19302 0.53614 0.38639 0.80078 0.58398 0.56436 0.42409 1.1176 0.86295 1.6387 1.3398 0.60107 0.56695 1.1648 1.1695 1.709 1.791 0.57889-0.34825 1.1222-0.70607 1.8144-1.0273 0.69843-0.32411 1.4803-0.42186 2.2207-0.63281 1.1128-0.06152 2.2234-0.18725 3.3379-0.18555 0.48414 7.34e-4 0.96326 0.104 1.4394 0.19141 1.6634 0.30536 3.2503 0.91234 4.7402 1.7031 2.1376 1.1735 4.1637 2.5374 5.8633 4.3047 0.41376 0.43682 0.77462 0.91602 1.168 1.3691v-37.4zm-34.77 22.871c-9.9782 6.0615-20.598 10.968-31.234 15.744-8.9025 4.0427-18.038 7.53-27.268 10.742-3.0499 0.91746-6.0077 2.2292-9.1543 2.8184-1.102 0.2063-2.2151 0.44146-3.3359 0.41602-1.5937-0.03618-3.3986 0.25507-4.7441-0.59961-1.5748-1.0003-2.9198-2.297-4.2148-3.6562-0.65348 0.3975-1.2964 0.81168-1.9355 1.2324-2.9126 3.7535-5.6252 7.6621-8.332 11.564-3.0322 4.3661-5.4156 9.1076-7.4473 14.006-0.99217 2.5678-1.8757 5.1889-2.5918 7.8516 0.0141 0.64358 0.0355 1.29 0.0547 1.9258-0.14302 3.6222-0.43074 7.2405-0.86523 10.84 0.0324 0.46156 0.062 0.92321 0.0937 1.3848 0.27019 3.2054 0.47488 6.4162 0.66992 9.627 0.17161 2.5484 0.39138 5.093 0.59961 7.6387 0.20593 2.2683 0.56558 4.5199 0.91406 6.7695 0.0142 0.08432 0.0213 0.16955 0.0352 0.25391 0.38635-0.10912 0.77442-0.21471 1.1562-0.33594 2.2687 0.40072 4.7075 0.25371 6.8066 1.2031 0.97609 0.44147 1.8221 1.0965 2.6016 1.832 2.5687 0.55849 4.6443 1.9213 6.4375 3.7441 1.4037-1.6721 3.0428-2.5081 4.6074-2.5996 3.9492-0.23109 7.4192 4.2431 5.4004 11.76-0.16574 0.61712-0.34732 1.23-0.49609 1.8516-0.35077 1.6655-0.78653 3.3039-1.332 4.916-0.62693 1.7223-1.3521 3.4056-2.0645 5.0938-0.38673 0.89618-0.66655 1.8348-0.9746 2.7598-0.32654 1.0209-0.77353 1.9927-1.2793 2.9355-0.23633 0.4334-0.46033 0.87234-0.6875 1.3105-0.4257 0.82645-0.93672 1.603-1.4805 2.3555-0.53633 0.6767-1.2586 1.491-2.0781 2.1113-0.83703 1.1303-1.6992 2.2445-2.5801 3.3379-0.17409 0.20454-0.35235 0.40562-0.52735 0.60938-1.1926 2.2429-2.4104 4.4724-3.668 6.6797-1.3826 2.3985-2.8473 4.7469-4.3457 7.0742-0.20801 0.84046-0.41827 1.6804-0.62305 2.5215-1.6511 6.7818-4.9659 10.838-8.541 12.561-0.16058 0.25127-0.31788 0.50466-0.47852 0.75586-1.1994 1.8587-0.62068 0.96661-1.7402 2.6777-4.0818 6.2387-9.3912 6.5539-11.91 3.6699-0.64462-0.28112-1.2228-0.6864-1.7031-1.209v5.3848h115.36c0.55275-1.3972 1.0731-2.8068 1.5566-4.2305 1.0703-3.0257 2.198-6.032 3.2324-9.0703 0.50183-1.5409 0.96825-3.0942 1.2832-4.6856 0.22407-0.82483 0.47253-1.6406 0.79297-2.4336 0.0449-0.16835 0.10534-0.3964 0.10352-0.45117 0.15245-0.60898 0.0733-1.2614 0.22266-1.873 0.0108-0.0621 0.0589-0.37533 0.11132-0.68164-0.0247-0.0094 3e-3 -0.10513 0.0391-0.21289 0.0345-0.18209 0.0707-0.32437 0.10546-0.43555 0.0234-0.23028 0.0432-0.43022 0.0898-0.69531 0.0248-0.14083 0.0589-0.27991 0.0879-0.41992 0.27059-1.0423 0.66075-2.0469 1.2754-2.9395 0.31828-0.45109 0.65539-0.88644 0.98633-1.3281 0.4196-0.55871 0.82016-1.1313 1.2734-1.6641 1.2383-1.4554 2.5117-2.5062 3.7598-3.2324 1.842-2.3381 3.9855-3.4179 5.9082-3.4004 2.0267 0.01845 3.7963 1.2297 4.6895 3.3711 0.20325-0.48831 0.4236-0.96929 0.61914-1.4609 0.87583-2.1467 1.7388-4.3002 2.6914-6.4141 3.3661-7.4692 8.2624-10.836 12.602-11.074 1.279-0.07014 2.5078 0.13712 3.6367 0.58594 0.71124-1.302 1.5053-2.6122 2.2148-3.2383 0.92826-0.81903 1.989-1.462 3.0625-2.0898 0.76744-1.3517 1.5276-2.7085 2.3106-4.0508 2.0224-3.5316 4.0394-7.0655 6.1348-10.555 0.57255-0.95341 1.1207-1.9221 1.7344-2.8496 0.74469-1.1255 1.0516-3.7151 2.3379-3.3066 0.73457 0.23329 1.4527 0.50514 2.166 0.78906-0.31976-0.9776-0.62968-1.9588-0.83593-2.9648-0.61289-2.9894-0.7881-7.1581-0.875-10.219-0.13664-4.8153-0.0454-9.6394 0.0117-14.455 7e-3 -1.2248 0.0211-2.449 0.0215-3.6738 3e-4 -0.96081-9e-3 -1.9221-0.0195-2.8828-8e-3 -0.67427-0.0192-1.3493-0.0352-2.0234-3e-3 -0.13291-0.1542-0.39365-0.0215-0.39844 8e-3 -3.012e-4 0.0151-0.00165 0.0234-0.00195-0.0555-2.4225 1.0562-2.4799 4.123-2.0234-0.17922-2.728-0.3667-5.456-0.60351-8.1797-0.63822-2.3474-1.2174-4.7112-1.5977-7.1172-0.0699-0.3859-0.13873-0.77202-0.20703-1.1582-0.55007-1.5825-1.0872-3.1694-1.6367-4.752-0.68009-1.8226-1.258-3.6896-2.0547-5.4668-0.78791-1.6539-1.6769-3.2572-2.5566-4.8633-0.66794-1.2082-1.3185-2.4257-2.0195-3.6152-0.25581-0.41688-0.53012-0.81599-0.79883-1.2402-0.36316-0.60262-0.75787-1.1847-1.1738-1.752-0.30858-0.40214-0.6396-0.78711-0.96484-1.1758-0.58959-0.70302-1.1681-1.4171-1.7656-2.1133-0.0453-0.06862-0.0317-0.04553-0.084-0.09766-0.15415-0.11402-0.30924-0.22586-0.46484-0.33789-0.41139-0.27007 0.66072 0.44342-0.15039-0.0918-0.2618-0.17304-0.51842-0.35113-0.77539-0.53125-0.626-0.42388-1.204-0.91063-1.7734-1.4062-0.72889-0.64066-1.4003-1.3425-2.0606-2.0527-0.0103 0.0012-0.0532-0.02255-0.19922-0.12695-0.0567-0.04053-0.11447-0.07966-0.17187-0.11914-0.47966-0.31586-0.96404-0.62659-1.4531-0.92773-0.10147-0.07003-0.1878-0.11385-0.30078-0.18164-0.91849-0.39521-1.8307-0.80417-2.7441-1.2109-0.72231-0.32601-1.447-0.64952-2.168-0.97852-0.87214-0.38545-1.7211-0.81293-2.5547-1.2754-0.65328-0.37995-1.2828-0.79905-1.9043-1.2285-0.56836-0.3936-1.1247-0.80409-1.6934-1.1973 0.0344 0.02622-0.48656-0.18897-0.81055-0.33398-1.0779-0.4675-2.1509-0.94782-3.2344-1.4023-0.89166-0.38522-1.8034-0.72065-2.7266-1.0215-1.4503-0.47855-2.9281-0.86461-4.3984-1.2754-2.0808-0.56092-4.112-1.2773-6.1426-1.9941-1.5584-0.54776-3.1028-1.1346-4.6309-1.7617-1.0686-0.42881-2.1149-0.90532-3.1465-1.416-0.37632-0.19825-0.76049-0.3823-1.1465-0.56055-0.59279-0.29424-1.203-0.54553-1.8125-0.80273-0.86575-0.36667-1.7337-0.72869-2.5957-1.1035zm4.4434 157.92c-0.0155 0.08209-0.0248 0.12961-0.0391 0.21289 0.0148 0.0056 0.0403-0.0074 0.0918-0.0625-2e-3 0.02918-6e-3 0.11704-4e-3 0.08789 0.0148-0.23182 0.0114-0.25574 0.0312-0.48047-0.0355 0.09359-0.053 0.16051-0.0801 0.24219zm81.779-36.715c-1.3906 3.5678-2.9049 7.0925-4.4629 10.588-2.705 5.8391-5.5629 11.606-8.418 17.373-2.122 4.2707-3.0799 5.5003-5.4023 4.7402-0.32975 0.4198-0.66809 0.83335-1.002 1.25-0.57989 0.78999-1.1695 1.5725-1.7402 2.3691-1.8202 2.5403-3.5692 5.1337-5.3476 7.7031-0.7229 1.0272-4.6274 6.5333-5.7461 6.0508-0.38178-0.16467-0.74474-0.37662-1.123-0.55078-0.40561 1.2263-0.79262 2.4605-1.123 3.7129-0.0112 0.0482-0.0387 0.17297-0.0469 0.20703-0.0822 0.34246 0.0845 1.0878-0.26172 1.0234-0.0273-5e-3 -0.0451-7e-3 -0.0723-0.0117-1.1321 3.6672-1.3776 1.9334-8.0176-1.1582-3.7072-0.38379-6.3415-0.44269-8.3906-0.44336-0.51826 1.0618-1.0354 2.1242-1.5508 3.1875-0.70736 1.5009-1.5433 2.929-2.4492 4.3125h55.154zm-204.48 3.8711v41.369c0.22705-0.4254 0.47234-0.85455 0.75586-1.293 0.60318-0.93274 1.1973-1.8704 1.7949-2.8066-0.57039-2.7228-0.5576-5.9974 0.38086-9.8496 0.7645-3.1381 1.4903-6.2869 2.3223-9.4082-0.92961-0.84871-1.8626-1.704-3.0527-2.791-0.76677-0.70037-0.4485-2.0303-0.59375-3.0586-0.31124-2.2035-0.0478-4.4751 0.15234-6.6719 0.0831-0.60356 0.19338-1.2031 0.30078-1.8027-1.8984-0.41427-2.3374-1.2303-1.8672-3.2227-0.0702-0.15269-0.12475-0.31153-0.19336-0.46484zm181.33 26.301c-0.44799 1.262-0.89341 2.5253-1.3359 3.7891 2.0102 0.37042 3.9292-0.5222 5.6621-1.457-1.0669-0.442-2.5147-1.2795-4.3262-2.332z" fill="#f00"/>
		</clipPath>
		<clipPath id="i">
			<rect x="144.51" y="-69.712" width="157.85" height="157.85" rx="17.22" ry="17.22" color="#000000" fill="#fff"/>
		</clipPath>
	</defs>
	<rect x="54" y="56.5" width="6" height="5" fill="url(#l)" opacity=".6"/>
	<rect transform="scale(-1)" x="-10" y="-61.5" width="6" height="5" fill="url(#m)" opacity=".6"/>
	<rect x="10" y="56.5" width="44" height="5" fill="url(#k)" opacity=".6"/>
	<rect x="4.5" y="4.5" width="55" height="55" rx="6" ry="6" color="#000000" fill="#00acff"/>
	<g transform="matrix(.34844 0 0 .34844 -45.854 28.79)" clip-path="url(#i)">
		<path d="m191.11 117.78c-17.93-2.3008-35.082-9.4485-50.048-20.858-4.8815-3.7211-14.041-12.94-18.039-18.156-11.197-14.607-18.159-31.184-20.455-48.705-0.98329-7.501-0.97783-21.292 0.011-28.148 4.9439-34.272 26.512-63.668 57.483-78.347 14.406-6.8276 27.592-9.7177 44.336-9.7177 27.084 0 51.124 9.7039 70.605 28.5 9.3848 9.0548 15.678 17.643 21.067 28.75 7.2895 15.024 10.242 28.092 10.242 45.336 0 22.701-6.5556 42.497-20.171 60.914-4.0461 5.4726-11.95 13.786-17.195 18.085-14.387 11.794-32.726 19.774-50.922 22.159-6.2874 0.8242-21.14 0.92689-26.913 0.18595zm37.952-18.389c10.955-3.4532 19.882-8.0937 28.5-14.815 4.5826-3.5739 12.504-11.571 15.825-15.976 9.0077-11.949 15.137-26.918 16.94-41.371 0.86858-6.9612 0.36412-21.688-0.96189-28.08-3.5127-16.934-11.08-31.238-23.002-43.477-7.4327-7.6308-14.199-12.66-22.905-17.025-13.209-6.6231-24.529-9.2993-39.396-9.3143-15.738-0.01512-29.538 3.5915-43.196 11.292-12.434 7.0101-25.287 19.879-32.327 32.364-5.1847 9.1956-8.9795 20.108-10.46 30.08-0.97084 6.5382-0.98998 19.522-0.038 25.782 1.9051 12.529 6.6575 24.911 13.547 35.297 3.7622 5.6715 3.644 5.6086 6.9628 3.7097 5.9368-3.3967 7.485-5.0397 10.719-11.376 3.7819-7.4092 7.8254-13.884 11.479-18.381 4.2173-5.1911 4.7971-6.115 6.9127-11.016 1.0645-2.4661 2.9744-6.0878 4.2442-8.0482l2.3087-3.5644-2.9867-2.9356c-3.9672-3.8993-7.2671-8.321-7.8879-10.569-0.63405-2.2964 0.11418-3.5777 3.0945-5.2992 3.0136-1.7407 5.1688-2.2409 13.223-3.0687 3.9218-0.40309 8.1795-1.1414 9.5205-1.6509 1.3343-0.50699 5.3209-2.6768 8.8592-4.8219 10.216-6.1932 11.08-6.5138 17.205-6.381 5.173 0.11225 5.1827 0.10998 8.25-1.744 6.4278-3.8854 15.659-10.896 27.806-21.117 2.3294-1.9601 4.5733-3.4987 4.9865-3.4191 1.7182 0.33109 4.874 8.0744 5.3534 13.136 0.29076 3.0699-0.30324 6.1058-2.1242 10.857-0.49686 1.2964-0.72597 2.5339-0.50913 2.75 0.5206 0.51878 2.3082-1.714 2.3082-2.883 0-1.4905 0.98694-1.6606 2.3294-0.4015 0.97601 0.91533 1.8174 1.1774 3.7803 1.1774 2.1433 0 2.6738 0.1988 3.5103 1.3149 1.4195 1.894 1.7524 7.0559 0.66596 10.327-1.0569 3.182-4.2512 6.8518-7.1502 8.2145-2.594 1.2194-7.8457 6.3469-10.303 10.06-0.94075 1.4213-2.7046 4.3841-3.9196 6.5841-1.2151 2.2-3.2532 5.5239-4.5292 7.3866-2.5107 3.6651-4.6607 8.7776-6.7359 16.018-1.2191 4.2531-1.3214 5.3604-1.3718 14.846-0.061 11.458-0.65345 14.27-3.7512 17.798-3.5218 4.0111-7.0372 12.82-7.3328 18.373-0.18652 3.5055-0.7266 6.9227-1.4941 9.4534-0.33797 1.1144 0.29299 1.1014 4.052-0.08353z" clip-path="url(#h)" fill="#fff" stroke-width=".5"/>
		<path transform="matrix(.87697 1.519 -3.7566 2.1689 847.52 -414.33)" d="m18.854 174.59-1.6036-1.6036 1.6036-1.6036 1.6036 1.6036z" fill="#00acff"/>
	</g>
	<rect x="5.5" y="5.4288" width="53" height="53.142" rx="5" ry="5" fill="none" opacity=".3" stroke="url(#j)" stroke-linecap="round" stroke-linejoin="round"/>
	<rect x="4.5" y="4.5" width="55" height="55" rx="6" ry="6" color="#000000" fill="none" opacity=".5" stroke="#00acff" stroke-linecap="round" stroke-linejoin="round"/>
</svg>