<svg version="1.1" viewBox="0 0 64 64" xmlns="http://www.w3.org/2000/svg" xmlns:xlink="http://www.w3.org/1999/xlink">
	<defs>
		<linearGradient id="e" x1="24" x2="24" y1="5.9094" y2="42.092" gradientTransform="matrix(1.4324 0 0 1.4363 -2.3784 -2.4708)" gradientUnits="userSpaceOnUse">
			<stop stop-color="#fff" offset="0"/>
			<stop stop-color="#fff" stop-opacity=".23529" offset=".034875"/>
			<stop stop-color="#fff" stop-opacity=".15686" offset=".96216"/>
			<stop stop-color="#fff" stop-opacity=".39216" offset="1"/>
		</linearGradient>
		<linearGradient id="a">
			<stop stop-color="#181818" offset="0"/>
			<stop stop-color="#181818" stop-opacity="0" offset="1"/>
		</linearGradient>
		<radialGradient id="c" cx="4.993" cy="43.5" r="2.5" gradientTransform="matrix(2.4045 0 0 1 41.986 15.5)" gradientUnits="userSpaceOnUse" xlink:href="#a"/>
		<radialGradient id="b" cx="4.993" cy="43.5" r="2.5" gradientTransform="matrix(2.4045 0 0 1 -22.014 -102.5)" gradientUnits="userSpaceOnUse" xlink:href="#a"/>
		<linearGradient id="d" x1="25.058" x2="25.058" y1="47.028" y2="39.999" gradientTransform="matrix(1.5714 0 0 .71429 -5.7143 27.929)" gradientUnits="userSpaceOnUse">
			<stop stop-color="#181818" stop-opacity="0" offset="0"/>
			<stop stop-color="#181818" offset=".5"/>
			<stop stop-color="#181818" stop-opacity="0" offset="1"/>
		</linearGradient>
	</defs>
	<g>
		<rect x="54" y="56.5" width="6" height="5" fill="url(#c)" opacity=".6"/>
		<rect transform="scale(-1)" x="-10" y="-61.5" width="6" height="5" fill="url(#b)" opacity=".6"/>
		<rect x="10" y="56.5" width="44" height="5" fill="url(#d)" opacity=".6"/>
	</g>
	<rect x="4.5" y="4.5" width="55" height="55" rx="6" ry="6" color="#000000" fill="#483737"/>
	<rect x="5.5" y="5.4288" width="53" height="53.142" rx="5" ry="5" fill="none" opacity=".3" stroke="url(#e)" stroke-linecap="round" stroke-linejoin="round"/>
	<rect x="4.5" y="4.5" width="55" height="55" rx="6" ry="6" color="#000000" fill="none" opacity=".5" stroke="#483737" stroke-linecap="round" stroke-linejoin="round"/>
	<g transform="matrix(.099501 0 0 .099501 7.1246 -47.836)">
		<path d="m50 602.54 200.06 199.91v-199.91z" fill="#ffb900"/>
		<path d="m147.56 700.18v204.63l102.39-102.32z" fill="#f02e00"/>
		<path d="m250.06 802.45-200.06 199.92h200.06z" fill="#ff8900"/>
		<path d="m349.98 702.38-100.03 99.957h100.03z" fill="#008900"/>
		<path d="m450 902.3-100.03-99.957v99.957z" fill="#006c80"/>
		<path d="m450 1002.2-100.03-99.957v99.957z" fill="#008052"/>
		<path d="m349.96 902.31 100.03 99.957v-99.957z" fill="#00aa80"/>
		<path d="m349.95 802.3 100.03-99.957h-100.03z" fill="#005680"/>
		<path d="m449.98 602.36-100.03 99.957h100.03z" fill="#008080"/>
	</g>
</svg>