<svg version="1.1" viewBox="0 0 64 64" xmlns="http://www.w3.org/2000/svg" xmlns:xlink="http://www.w3.org/1999/xlink">
	<defs>
		<linearGradient id="g" x1="24" x2="24" y1="5.9094" y2="42.092" gradientTransform="matrix(1.4324 0 0 1.4363 -2.3784 -2.4708)" gradientUnits="userSpaceOnUse">
			<stop stop-color="#eaeaea" offset="0"/>
			<stop stop-color="#eaeaea" offset=".034875"/>
			<stop stop-color="#eaeaea" offset=".96216"/>
			<stop stop-color="#eaeaea" offset="1"/>
		</linearGradient>
		<linearGradient id="a">
			<stop stop-color="#181818" offset="0"/>
			<stop stop-color="#181818" stop-opacity="0" offset="1"/>
		</linearGradient>
		<radialGradient id="d" cx="4.993" cy="43.5" r="2.5" gradientTransform="matrix(2.4045 0 0 1 41.986 15.5)" gradientUnits="userSpaceOnUse" xlink:href="#a"/>
		<radialGradient id="c" cx="4.993" cy="43.5" r="2.5" gradientTransform="matrix(2.4045 0 0 1 -22.014 -102.5)" gradientUnits="userSpaceOnUse" xlink:href="#a"/>
		<linearGradient id="f" x1="25.058" x2="25.058" y1="47.028" y2="39.999" gradientTransform="matrix(1.5714 0 0 .71429 -5.7143 27.929)" gradientUnits="userSpaceOnUse">
			<stop stop-color="#181818" stop-opacity="0" offset="0"/>
			<stop stop-color="#181818" offset=".5"/>
			<stop stop-color="#181818" stop-opacity="0" offset="1"/>
		</linearGradient>
		<linearGradient id="e" x1="31.781" x2="31.781" y1="4.9267" y2="59.148" gradientUnits="userSpaceOnUse">
			<stop stop-color="#363142" offset="0"/>
			<stop stop-color="#241f31" offset="1"/>
		</linearGradient>
	</defs>
	<g>
		<rect x="54" y="56.5" width="6" height="5" fill="url(#d)" opacity=".6"/>
		<rect transform="scale(-1)" x="-10" y="-61.5" width="6" height="5" fill="url(#c)" opacity=".6"/>
		<rect x="10" y="56.5" width="44" height="5" fill="url(#f)" opacity=".6"/>
	</g>
	<rect x="4.5" y="4.5" width="55" height="55" rx="6" ry="6" color="#000000" fill="url(#e)"/>
	<rect x="5.5" y="5.4288" width="53" height="53.142" rx="5" ry="5" fill="none" opacity=".3" stroke="url(#g)" stroke-linecap="round" stroke-linejoin="round"/>
	<rect x="4.5" y="4.5" width="55" height="55" rx="6" ry="6" color="#000000" fill="none" opacity=".5" stroke="#241f31" stroke-linecap="round" stroke-linejoin="round"/>
	<linearGradient id="h" x1="82.547" x2="75.456" y1="85.636" y2="52.909" gradientTransform="translate(74)" gradientUnits="userSpaceOnUse">
		<stop stop-color="#b0b0b0" offset="0"/>
		<stop stop-color="#e4e4e4" offset="1"/>
	</linearGradient>
	<g transform="matrix(.44702 0 0 .44702 -29.688 7.7068)">
		<path d="m179 79.23c1.0898 0.19141 2.1328-0.53516 2.2734-1.6289 0.73828-5.6914 0.34375-11.48-1.1641-17.031-1.6797-6.1953-4.707-11.941-8.8672-16.836-4.1562-4.8906-9.3438-8.8008-15.188-11.457-5.8438-2.6602-12.199-3.9922-18.621-3.9102-6.418 0.08203-12.738 1.582-18.512 4.3867-5.7734 2.8047-10.855 6.8516-14.887 11.848-4.0312 4.9961-6.9102 10.82-8.4297 17.059-1.3633 5.5859-1.6094 11.383-0.72266 17.055 0.16797 1.0898 1.2266 1.7891 2.3125 1.5703l13.184-2.6797c1.082-0.21875 1.7734-1.2734 1.6367-2.3711-0.39063-3.1484-0.20704-6.3477 0.54687-9.4375 0.91016-3.7422 2.6406-7.2383 5.0586-10.234 2.418-3 5.4688-5.4258 8.9297-7.1094 3.4648-1.6836 7.2578-2.582 11.109-2.6328 3.8516-0.05078 7.668 0.75 11.172 2.3438 3.5078 1.5938 6.6172 3.9414 9.1133 6.8789 2.4961 2.9336 4.3125 6.3828 5.3203 10.098 0.83204 3.0742 1.0977 6.2656 0.78907 9.4258-0.10938 1.0977 0.60937 2.1367 1.6953 2.3281z" fill="#3584e4"/>
		<path d="m179 79.23c1.0898 0.19141 2.1328-0.53516 2.2734-1.6289 0.82812-6.3984 0.22656-12.906-1.7656-19.059-1.9961-6.1523-5.3281-11.773-9.75-16.469-0.75781-0.80469-2.0273-0.78125-2.7969 0.01563l-9.3594 9.6641c-0.76953 0.79297-0.74219 2.0547-8e-3 2.8828 2.3867 2.6914 4.1953 5.8516 5.3086 9.2891s1.5039 7.0586 1.1524 10.641c-0.10938 1.0977 0.60937 2.1367 1.6953 2.3281z" fill="#ed333b"/>
		<g transform="translate(74)" fill="#fff">
			<path d="m33.914 41.914c0.42969-0.42578 1.1172-0.42578 1.543 0l3.0859 3.0859c0.42578 0.42578 0.42578 1.1172 0 1.543s-1.1172 0.42578-1.543 0l-3.0859-3.0859c-0.42578-0.42578-0.42578-1.1172 0-1.543z"/>
			<path d="m89.457 46.543c-0.42578-0.42578-0.42578-1.1172 0-1.543l3.0859-3.0859c0.42578-0.42578 1.1172-0.42578 1.543 0 0.42578 0.42969 0.42578 1.1172 0 1.543l-3.0859 3.0859c-0.42578 0.42578-1.1172 0.42578-1.543 0z"/>
			<path d="m47.723 32.691c0.55469-0.23047 1.1914 0.03516 1.4219 0.59375l1.6719 4.0312c0.23047 0.55469-0.03516 1.1914-0.58984 1.4219-0.55859 0.23047-1.1953-0.03125-1.4258-0.58984l-1.6719-4.0312c-0.23047-0.55469 0.03516-1.1953 0.59375-1.4258z"/>
			<path d="m97.262 58.223c-0.23047-0.55469 0.03516-1.1953 0.58984-1.4258l4.0312-1.668c0.5586-0.23047 1.1953 0.03125 1.4258 0.58984 0.23047 0.55469-0.0312 1.1953-0.58984 1.4258l-4.0312 1.668c-0.55469 0.23047-1.1953-0.03125-1.4258-0.58984z"/>
			<path d="m80.285 32.691c0.55469 0.23047 0.82031 0.87109 0.58984 1.4258l-1.6719 4.0312c-0.23047 0.55859-0.86719 0.82031-1.4258 0.58984-0.55469-0.23047-0.82031-0.86719-0.58984-1.4219l1.6719-4.0312c0.23047-0.55859 0.86719-0.82422 1.4258-0.59375z"/>
			<path d="m24.695 55.719c0.23047-0.55859 0.87109-0.82031 1.4258-0.58984l4.0312 1.668c0.55859 0.23047 0.82031 0.87109 0.58984 1.4258-0.23047 0.55859-0.86719 0.82031-1.4219 0.58984l-4.0312-1.668c-0.55859-0.23047-0.82422-0.87109-0.59375-1.4258z"/>
			<path d="m64 29.453c0.60547 0 1.0938 0.48828 1.0938 1.0938v4.3633c0 0.60156-0.48828 1.0898-1.0938 1.0898-0.60156 0-1.0898-0.48828-1.0898-1.0898v-4.3633c0-0.60547 0.48828-1.0938 1.0898-1.0938z"/>
		</g>
		<path d="m142.57 74.977c-0.97266 1.4922-2.6602 2.4766-4.5742 2.4766-3.0117 0-5.4531-2.4414-5.4531-5.4531 0-1.7734 0.84766-3.3516 2.1602-4.3477 0.16797-0.19531 0.35938-0.38281 0.5625-0.5625l34.527-29.695c0.64454-0.55469 1.6133-0.51953 2.2148 0.08203 0.59765 0.59766 0.64062 1.5508 0.0977 2.1992l-29.207 34.941c-0.10547 0.125-0.21484 0.24609-0.32812 0.35937z" fill="url(#h)" fill-rule="evenodd"/>
		<path d="m174 72c0-0.60156 0.49219-1.0898 1.0938-1.0898h4.3633c0.60157 0 1.0898 0.48828 1.0898 1.0898s-0.48828 1.0898-1.0898 1.0898h-4.3633c-0.60156 0-1.0938-0.48828-1.0938-1.0898z" fill="#fff"/>
		<path d="m95.453 72c0-0.60156 0.48828-1.0898 1.0898-1.0898h4.3633c0.60547 0 1.0938 0.48828 1.0938 1.0898s-0.48828 1.0898-1.0938 1.0898h-4.3633c-0.60156 0-1.0898-0.48828-1.0898-1.0898z" fill="#fff"/>
		<path d="m138 69.816c-1.207 0-2.1836 0.98047-2.1836 2.1836s0.97656 2.1836 2.1836 2.1836c1.2031 0 2.1797-0.98047 2.1797-2.1836s-0.97657-2.1836-2.1797-2.1836z" fill="#68676b"/>
	</g>
</svg>