<svg version="1.1" viewBox="0 0 64 64" xmlns="http://www.w3.org/2000/svg" xmlns:xlink="http://www.w3.org/1999/xlink">
	<defs>
		<linearGradient id="f" x1="24" x2="24" y1="5.9094" y2="42.092" gradientTransform="matrix(1.4324 0 0 1.4363 -2.3784 -2.4708)" gradientUnits="userSpaceOnUse">
			<stop stop-color="#f4f4f4" offset="0"/>
			<stop stop-color="#f2f2f2" offset=".034875"/>
			<stop stop-color="#f2f2f2" offset=".96216"/>
			<stop stop-color="#f2f2f2" offset="1"/>
		</linearGradient>
		<linearGradient id="a">
			<stop stop-color="#181818" offset="0"/>
			<stop stop-color="#181818" stop-opacity="0" offset="1"/>
		</linearGradient>
		<radialGradient id="c" cx="4.993" cy="43.5" r="2.5" gradientTransform="matrix(2.4045 0 0 1 41.986 15.5)" gradientUnits="userSpaceOnUse" xlink:href="#a"/>
		<radialGradient id="b" cx="4.993" cy="43.5" r="2.5" gradientTransform="matrix(2.4045 0 0 1 -22.014 -102.5)" gradientUnits="userSpaceOnUse" xlink:href="#a"/>
		<linearGradient id="e" x1="25.058" x2="25.058" y1="47.028" y2="39.999" gradientTransform="matrix(1.5714 0 0 .71429 -5.7143 27.929)" gradientUnits="userSpaceOnUse">
			<stop stop-color="#181818" stop-opacity="0" offset="0"/>
			<stop stop-color="#181818" offset=".5"/>
			<stop stop-color="#181818" stop-opacity="0" offset="1"/>
		</linearGradient>
		<linearGradient id="d" x1="31.781" x2="31.781" y1="4.9267" y2="59.148" gradientUnits="userSpaceOnUse">
			<stop stop-color="#458029" offset="0"/>
			<stop stop-color="#6ab536" offset="1"/>
		</linearGradient>
		<clipPath id="g">
			<path d="m77.192-25.997v22.617c0.20489-0.39357 0.4436-0.72667 0.70508-0.99609-0.03861-0.7786-0.09143-1.5557-0.18359-2.3301-0.01845-0.048251-0.04616-0.10154-0.0078-0.10547 0.4372-0.045025 0.87463-0.083556 1.3125-0.12109 0.4627-0.077653 0.92598-0.15467 1.3887-0.23242-0.17671-0.24712-0.33021-0.55278-0.41602-0.96875-0.02275-0.11026-0.2384-1.1262-0.15039-1.1719 0.69009-0.3584 1.4835-0.47145 2.2246-0.70703 0.06626 0.10613 0.13973 0.2083 0.19922 0.31836 0.0548 0.10138 0.13947 0.35757 0.17383 0.46094 0.05048 0.15187 0.09881 0.30426 0.14648 0.45703-0.23299-1.2523 0.37765-1.9383 1.0645-1.9043 0.04715 0.0023 0.09499 0.02545 0.14258 0.03711-0.12139-0.99876 0.19159-2.0538 0.22852-3.0723 0.75405-0.5115 1.4369-1.1503 2.2637-1.5332 0.01453-0.0067 0.04547-0.01279 0.0625-0.01953-0.04284-1.3425-0.08212-2.685-0.03516-4.0273 0.08985-0.91647 0.18528-1.7404 0.43359-2.6309 0.07991-0.28657 0.15511-0.57777 0.27148-0.85156 0.15561-0.36612 0.29416-0.75054 0.54102-1.0625 0.33172-0.4192 0.78046-0.73343 1.1699-1.0996 0.48567 0.0091 0.98146-0.0395 1.4746-0.07422 0.11617-0.33559 0.24777-0.66433 0.40234-0.98242zm19.988 0c0.01893 0.23995 0.0312 0.48202 0.06641 0.69726 0.0096 0.05872-9.96e-4 0.11846 0 0.17774 0.04252-0.06367 0.08435-0.12779 0.12695-0.19141 0.15133-0.22734 0.30029-0.45605 0.45117-0.68359zm38.471 0c0.17558 0.31799 0.3388 0.63644 0.43554 0.96484 0.12603 0.11676 0.2539 0.23768 0.37891 0.33203 0.21872 0.16509 0.3771 0.39782 0.54883 0.61133 0.27651 0.34369 0.55091 0.76058 0.81055 1.1621 0.49221-0.86997 1.2894-1.351 2.1543-1.3633 0.78688-0.01114 1.6259 0.36109 2.3301 1.1641 0.42441-0.03224 0.85226-0.13106 1.2715-0.06445 1.6221 0.25759 2.5494 1.4021 3.1035 2.8203 0.53226 1.5368 0.85191 3.1342 1.207 4.7188 0.32139 1.5406 0.62673 3.0859 0.90625 4.6348 0.19358-0.56937 0.4905-1.1886 0.82617-1.6758 0.37041-0.53756 0.95515-1.117 1.5215-1.4336 0.38924-0.2176 0.82808-0.33063 1.2422-0.49609 1.1588-0.07817 1.5844-0.24738 2.7129 0.29102 0.23129 0.11034 0.44211 0.24527 0.64453 0.39062 0.4167 0.0725 0.78223 0.21946 1.0918 0.42774v-12.484zm-44.58 0.41211c-0.01433 0.02549-0.04829 0.1293-0.04102 0.17188 0.0032 0.01856 0.0034 0.0395 0.0059 0.05859 0.01437-0.07481 0.03289-0.14894 0.04102-0.22461 0.0015-0.01432-0.0011-0.01403-0.0059-0.0059zm-3.5488 3.7656c-0.0032-0.04454-0.03139 0.08661-0.02539 0.13086 0.0065 0.04776 0.01126 0.09746 0.01563 0.14648 0.0087-0.10844 0.01429-0.20993 0.0098-0.27734zm1.9883 22.061c0.0044 0.047401 0.0096 0.094668 0.01172 0.14258-0.25766 0.40073-0.29712 1.2131-0.77344 1.2012-0.05954-0.0015-0.10436-0.011874-0.16016-0.015625-0.38831 0.40558-0.82156 0.66435-1.2656 0.78516 0.0049 0.082123 0.01592 0.16389 0.01953 0.24609 0.0089 0.2012 0.02317 0.40429 0.01367 0.60547-0.0089 0.18902 0.05076 0.41546-0.06836 0.5625-0.34519 0.42612-0.83432 0.71098-1.252 1.0664-0.11722-0.062218-0.23764-0.11837-0.35938-0.17383 0.0718 0.2691 0.13615 0.54008 0.21094 0.80859 0.03656 0.13127 0.07444 0.26336 0.11133 0.39453 0.01097 0.038958 0.06577 0.14121 0.0332 0.11719-0.04216-0.031105-0.07835-0.070259-0.11133-0.11133 2.25e-4 0.048151-0.0019 0.095165-0.0098 0.14258-0.0065 0.039276-0.02047-0.076912-0.03125-0.11523-0.01156-0.041072-0.02337-0.082039-0.03516-0.12305-0.01458-0.018906-0.0274-0.038802-0.04297-0.056641-0.13277-0.38382-0.23982-0.77601-0.35933-1.1641-0.13252-0.061103-0.25511-0.13749-0.38086-0.20898 0.02165 0.15413 0.04056 0.31897 0.0625 0.46484 0.14262 0.50202 0.2745 1.0074 0.375 1.5195 0.04342 0.22126 0.3094 0.57178 0.10547 0.66797-0.18491 0.087214-0.34347 0.16648-0.51562 0.25-0.04775 0.91407-0.1145 1.8262-0.19141 2.7383-0.13407 1.5731-0.25962 3.1474-0.43359 4.7168-0.04855 0.45908-0.1026 0.91771-0.15039 1.377 0.43285 0.25668 0.85257 0.52936 1.2168 0.87305 0.30237 0.28532 0.35714 0.75472 0.47852 1.1523 0.10226 0.33501 0.14725 0.68548 0.18945 1.0332 0.167 1.3759 0.06588 2.7694 0.02734 4.1484-0.0286 0.54499-0.05964 1.0897-0.08984 1.6348 0.05058-0.0034 0.10059-0.01 0.15234-0.0098 2.36 0.01789 2.3611 2.6513 2.3477 4.0879-0.0059 0.62927-0.02765 1.1708-0.04883 1.7969 5e-3 0.03253 0.01035 0.06515 0.01563 0.09766 0.75604-0.53486 0.78797-0.43014 1.4023 0.79883 0.46843 0.99038 0.97185 1.9642 1.4746 2.9375 0.22972 0.44134 0.4777 0.87213 0.73242 1.2988 0.47275-0.41707 1.0334-0.73157 1.6855-0.68164 1.0386 0.07951 2.0102 0.62073 2.8965 1.168 0.37095 0.22905 0.78778 1.3515 0.96875 1.7871 0.07303 0.20865 0.12834 0.42287 0.19727 0.63281 0.0663-0.021 0.13434-0.03853 0.19922-0.0625 0.38748-0.0046 0.77665-0.05338 1.1621-0.01367 0.2726 0.02808 0.53947 0.1109 0.79297 0.21484 0.81178 0.33274 1.4608 0.91969 1.8984 1.6719 0.31814 0.55201 0.59426 1.1269 0.83984 1.7148 0.17044 0.39684 0.32611 0.79949 0.48437 1.2012 0.19749 0.01489 0.395 0.02779 0.5918 0.04492 0.0248 0.0025 0.0495 0.0053 0.0742 0.0078 0.45683-0.24132 0.90218-0.47321 1.5-0.81055 0.11045-0.06232 0.30527 0.10845 0.50586 0.33203 0.31237-0.0301 0.69354-0.01906 1.3496-0.06836 0.29129 0.09127 0.58839 0.16517 0.87305 0.27539 0.65393 0.25322 1.1845 0.76153 1.7305 1.1816 0.0294 0.02793 0.0577 0.05682 0.0879 0.08398 0.19078 0.04229 0.38212 0.08197 0.57227 0.12695 1.2217 0.28901 2.1298 0.77305 2.7578 1.3457 0.0259-0.0074 0.0522-0.01411 0.0781-0.02148 1.2233-0.35146 2.4638-0.63669 3.7051-0.91602 1.2268-0.3019 2.4346-0.66972 3.6562-0.99219 1.2343-0.30906 2.4695-0.61842 3.7246-0.83008 1.1511-0.15824 2.307-0.27091 3.4551-0.45117 0.70593-0.09641 1.3709-0.34995 2.0117-0.65234 0.1877-0.08857 0.3775-0.17448 0.55664-0.2793 0.16288-0.0953 0.31103-0.21381 0.4668-0.32031 0.19224-0.15963 0.38911-0.31286 0.57617-0.47852 0.9959-0.88195 1.9212-1.8507 2.834-2.8164 1.1457-1.2121 1.5356-1.6562 2.6699-2.9082 0.49552-0.55173 0.97792-1.1155 1.4609-1.6777 0.88935-1.3934 1.7752-2.7895 2.6543-4.1895 0.36459-0.57795 2.0301-3.2171 2.4082-3.8281 0.62906-1.0166 1.2899-2.0815 1.8476-3.1445 0.31557-0.60151 0.94222-1.9745 1.2246-2.584 0.79748-1.7328 1.5769-3.4915 2.5742-5.1211-0.0327-0.51951-0.044-1.0478-0.0527-1.582 6e-3 -0.42353 0.0294-0.84651 0.0488-1.2695-1.4434-0.2982-2.7967-1.184-4.0488-1.9805-0.36651-0.23313-0.18937-0.84871-0.25977-1.2773-0.14753-0.8989-0.30614-2.4712-0.40234-3.3457-0.0949-0.96613-0.19233-1.9323-0.28711-2.8984-0.74175-0.071293-1.6892-0.13274-2.8906-0.15039-0.24486 0.036054-0.49007 0.071358-0.73437 0.10938-0.0399 0.00621-0.0307-0.050289-0.0156-0.11719-1e-3 3.2e-6 -3e-3 -3.6e-6 -4e-3 0-0.14363 3.678e-4 -0.13223-0.17764-0.11133-0.36719-1.11 0.16236-2.2228 0.29326-3.3477 0.29102-0.94818 0.013473-1.896 0.00553-2.8438-0.00977-0.26819 0.10261-0.61894 0.24015-0.89062 0.3125-0.0202 0.014306-0.0464 0.036766-0.0625 0.044922-0.068 0.041958-0.22355 0.14343-0.45313 0.25586-0.1867 0.088498-0.37751 0.16517-0.57422 0.22852-0.2354 0.076659-0.4716 0.15062-0.71289 0.20703-0.44226 0.10762-0.88886 0.1952-1.3398 0.25781-0.78219 0.11152-1.5664 0.20481-2.3516 0.29297-0.97228 0.097116-1.947 0.15619-2.9238 0.18164-1.1546 0.030351-2.31 0.062604-3.4648 0.085937-0.99692 0.020972-1.9932 0.038103-2.9902 0.050781-0.38969 0.00756-0.78026 0.018134-1.1699 0.027344-0.1967 0.0061-0.39407 0.011811-0.58985 0.025391 0.1088-0.023124-0.17334 0.031018-0.21484 0.048828-0.10825 0.026603-0.21295 0.058018-0.31641 0.10156-0.31682 0.11185-0.63553 0.21721-0.9707 0.25977-0.5258 0.067834-1.0568 0.087243-1.5859 0.042969-0.96811-0.087349-1.9217-0.27064-2.8633-0.51172-1.5379-0.41634-3.0578-0.90783-4.5039-1.584-1.2406-0.59161-2.4548-1.2385-3.6172-1.9707-2.6214-0.040528-5.2443-0.072771-7.8652-0.13867-1.2088-0.030394-3.7738-0.093336-5.0508-0.20898-0.10466-0.00948-0.20812-0.029212-0.3125-0.041016zm44.354 2.0215c-0.1126 0.092573-0.25063 0.19919-0.37305 0.2832 0.0931-0.065433 0.18842-0.12877 0.2793-0.19727 0.0347-0.026124 0.0884-0.076377 0.0976-0.085937-1e-3 -2.6e-5 -3e-3 2.59e-5 -4e-3 0zm22.973 14.035c-0.0405 0.11736-0.0763 0.2363-0.11718 0.35352-0.0482 0.4203-0.12219 0.83719-0.1836 1.2559 0.11413-0.31758 0.21759-0.63857 0.30078-0.96484zm-79.645 12.76v24.625h22.338c-0.61847-0.32179-1.2361-0.65029-1.8106-1.043-1.8559 1.3457-4.6005-0.03387-4.5586-4.1348 7.28e-4 -0.06941 3.01e-4 -0.03303 2e-3 -0.10938 0.0016-0.07896 0.0086-0.15742 0.01172-0.23633-0.0642-0.06077-0.11111-0.10318-0.18359-0.17188-0.67293-0.58359-1.4893-0.9828-2.2656-1.4102-0.67877-0.42637-1.4762-0.7087-2.084-1.2461-0.2703-0.23901-0.61156-0.44692-0.75195-0.7793-0.04696-0.11117-0.07918-0.22763-0.11719-0.3418-0.30235-0.35049-0.59738-0.8464-0.95312-1.4883-0.30096-0.54766-0.59369-1.0984-0.88281-1.6523-0.29388 0.19012-0.60749 0.32711-0.95117 0.36523-2.1423 0.23764-3.1079-0.94376-3.8008-2.4258-0.76214-1.6403-1.5084-3.3043-1.8672-5.0879-0.05687-0.31698-0.12216-0.63299-0.17188-0.95117-0.02393-0.15321-0.03933-0.30734-0.06055-0.46094-0.16571-0.30343-0.1942-0.69669-0.2832-1.0371-0.06105-0.2335-0.06188-0.47809-0.08008-0.71875-0.03289-0.43479-0.03134-0.89764-0.03125-1.3398-0.23958 0.02312-0.48013 0.02866-0.72266-0.01367-0.30833-0.05382-0.56242-0.17547-0.77539-0.3418zm79.645 0.87695c-0.94664 1.3434-1.9178 2.6705-2.9023 3.9863-1.8459 2.4238-3.7382 4.8108-5.6465 7.1855-1.6532 2.0675-3.3228 4.1243-5.0312 6.1465-0.72906 0.82772-1.4119 1.7011-2.2031 2.4727-0.28328 0.27625-0.55921 0.56643-0.88086 0.79688-1.2588 0.90191-1.684 1.005-3.0547 1.6016-0.28007 0.09972-0.56012 0.19977-0.83984 0.30078-0.33588 0.35371-0.64657 0.64097-0.76172 0.5625-0.13047-0.08891-0.20911-0.14171-0.30273-0.20508-0.84871 0.26937-1.7865 0.54199-2.6016 0.7793-0.13809 0.04021-0.276 0.08082-0.41406 0.12109h24.639zm-64.395 17.24c0.04654 0.09096 0.12609 0.18828 0.21289 0.28711-0.07141-0.09536-0.14152-0.19172-0.21289-0.28711z" fill="#f00"/>
		</clipPath>
	</defs>
	<rect x="54" y="56.5" width="6" height="5" fill="url(#c)" opacity=".6"/>
	<rect transform="scale(-1)" x="-10" y="-61.5" width="6" height="5" fill="url(#b)" opacity=".6"/>
	<rect x="10" y="56.5" width="44" height="5" fill="url(#e)" opacity=".6"/>
	<rect x="4.5" y="4.5" width="55" height="55" rx="6" ry="6" color="#000000" fill="url(#d)"/>
	<rect x="5.5" y="5.4288" width="53" height="53.142" rx="5" ry="5" fill="none" opacity=".3" stroke="url(#f)" stroke-linecap="round" stroke-linejoin="round"/>
	<rect x="4.5" y="4.5" width="55" height="55" rx="6" ry="6" color="#000000" fill="none" opacity=".5" stroke="#414141" stroke-linecap="round" stroke-linejoin="round"/>
	<g transform="matrix(.62544 0 0 .58137 -44.404 26.184)" fill="#f3f3f3">
		<path transform="translate(5.1467,1.5191)" d="m118.57-19.698c3.4425-0.58149 6.2772 1.4289 3.9553 4.8916-2.0774 4.3113-8.9318 4.3102-11.01 0-1.9133-2.907-0.23745-5.555 3.2302-4.811 1.2723-0.07666 2.55-0.10205 3.8243-0.08058zm-15.27 19.186h27.4zm6.1875 5.1855v31.555c2.5111 2.5117 5.0221 5.0234 7.5332 7.5352 2.5111-2.5117 5.0221-5.0234 7.5332-7.5352l-0.45507-6.627 3.541-3.541c-1.1803-1.1797-2.3607-2.3594-3.541-3.5391 1.7852-1.7858 3.5703-3.5716 5.3555-5.3574l-5.3555-5.3555 0.43554-7.1348zm2.541 3.8672c1.3862-0.0135 3.1945-0.44903 2.541 1.5772v23.569c-1.3862 0.0135-3.1945 0.44903-2.541-1.5772z" clip-path="url(#g)" style="isolation:isolate"/>
		<path d="m122.16-25.275a17.625 16.637 0 0 0-17.625 16.637 17.625 16.637 0 0 0 17.625 16.637 17.625 16.637 0 0 0 17.625-16.637 17.625 16.637 0 0 0-17.625-16.637zm0 4.0469a6.2158 5.9091 0 0 1 6.2148 5.9082 6.2158 5.9091 0 0 1-6.2148 5.9082 6.2158 5.9091 0 0 1-6.2168-5.9082 6.2158 5.9091 0 0 1 6.2168-5.9082z" stroke-width="0" style="paint-order:fill markers stroke"/>
	</g>
</svg>