<svg version="1.1" viewBox="0 0 64 64" xmlns="http://www.w3.org/2000/svg" xmlns:xlink="http://www.w3.org/1999/xlink">
	<defs>
		<linearGradient id="g" x1="24" x2="24" y1="5.9094" y2="42.092" gradientTransform="matrix(1.4324 0 0 1.4363 -2.3784 -2.4708)" gradientUnits="userSpaceOnUse">
			<stop stop-color="#fff" offset="0"/>
			<stop stop-color="#fff" stop-opacity=".23529" offset=".034875"/>
			<stop stop-color="#fff" stop-opacity=".15686" offset=".96216"/>
			<stop stop-color="#fff" stop-opacity=".39216" offset="1"/>
		</linearGradient>
		<linearGradient id="a">
			<stop stop-color="#181818" offset="0"/>
			<stop stop-color="#181818" stop-opacity="0" offset="1"/>
		</linearGradient>
		<radialGradient id="c" cx="4.993" cy="43.5" r="2.5" gradientTransform="matrix(2.4045 0 0 1 41.986 15.5)" gradientUnits="userSpaceOnUse" xlink:href="#a"/>
		<radialGradient id="b" cx="4.993" cy="43.5" r="2.5" gradientTransform="matrix(2.4045 0 0 1 -22.014 -102.5)" gradientUnits="userSpaceOnUse" xlink:href="#a"/>
		<linearGradient id="f" x1="25.058" x2="25.058" y1="47.028" y2="39.999" gradientTransform="matrix(1.5714 0 0 .71429 -5.7143 27.929)" gradientUnits="userSpaceOnUse">
			<stop stop-color="#181818" stop-opacity="0" offset="0"/>
			<stop stop-color="#181818" offset=".5"/>
			<stop stop-color="#181818" stop-opacity="0" offset="1"/>
		</linearGradient>
		<radialGradient id="i" cx="3.972" cy="8.45" r="20" gradientTransform="matrix(0,3.5959,-3.804,0,64.143,-20.065)" gradientUnits="userSpaceOnUse">
			<stop stop-color="#8cd5ff" offset="0"/>
			<stop stop-color="#64baff" offset=".262"/>
			<stop stop-color="#3689e6" offset=".705"/>
			<stop stop-color="#0d52bf" offset="1"/>
		</radialGradient>
		<radialGradient id="h" cx="-1.265" cy="8.45" r="20" fx=".667" gradientTransform="matrix(0,5.6341,-4.4506,0,69.382,-4.623)" gradientUnits="userSpaceOnUse">
			<stop stop-color="#d1ff82" offset="0"/>
			<stop stop-color="#9bdb4d" offset=".262"/>
			<stop stop-color="#68b723" offset=".661"/>
			<stop stop-color="#3a9104" offset="1"/>
		</radialGradient>
		<clipPath id="d">
			<rect x="10.298" y="10.298" width="43.404" height="43.404" rx="4.735" ry="4.735" color="#000000" fill="#fff" stroke-width=".78917"/>
		</clipPath>
	</defs>
	<rect x="54" y="56.5" width="6" height="5" fill="url(#c)" opacity=".6"/>
	<rect transform="scale(-1)" x="-10" y="-61.5" width="6" height="5" fill="url(#b)" opacity=".6"/>
	<rect x="10" y="56.5" width="44" height="5" fill="url(#f)" opacity=".6"/>
	<g transform="matrix(1.2672 0 0 1.2672 -8.5491 -8.5491)" clip-path="url(#d)">
		<path d="m32 2.5c-16.277 0-29.5 13.223-29.5 29.5s13.223 29.5 29.5 29.5 29.5-13.223 29.5-29.5-13.223-29.5-29.5-29.5z" color="#000000" fill="url(#i)"/>
		<path d="m32 2.5c-0.456 0-0.909 0.015-1.36 0.035a0.951 0.951 0 0 0 0.31 1.854c7.095 0 13.698 6.558 14.208 14.238-0.016 7.417-6.026 13.422-13.449 13.422a0.95 0.95 0 0 0-0.059 2e-3l-0.75 0.047c-8.3 0.421-14.925 7.284-14.925 15.683 0 4.644 2.029 8.808 5.246 11.674a29.364 29.364 0 0 0 10.779 2.045c16.277 0 29.5-13.223 29.5-29.5 0-10.663-5.676-20.014-14.166-25.197a30.306 30.306 0 0 0-13.91-4.266 29.907 29.907 0 0 0-1.424-0.037z" color="#000000" opacity=".15"/>
		<path d="m32.36 2.565-3.508 0.405-4.002 0.99c0.338-0.112 0.683-0.208 1.034-0.315l-0.27-0.45a31 31 0 0 0-2.473 0.585c-0.04 0.011-0.094 0.033-0.135 0.045a30.03 30.03 0 0 0-2.788 0.944l-0.09 0.09-0.18 0.045a29.09 29.09 0 0 0-0.63 0.27l-0.404 0.764-0.225-0.495c-0.187 0.088-0.4 0.18-0.585 0.27l0.09 0.855-0.989 0.764-0.54 1.44h1.17l0.45-0.945 0.18-0.315c0.521-0.349 1.042-0.743 1.573-1.08l1.214 0.36c0.807 0.518 1.622 1.057 2.429 1.574l1.169-1.034-1.304-0.54-0.63-1.169-2.293-0.225-0.045-0.224 0.99 0.18 0.539-0.54 1.259-0.225c0.293-0.135 0.603-0.25 0.9-0.36l-0.81 0.675 2.788 1.799v1.079l-1.08 1.034 1.44 2.698 0.989-0.494 1.26-1.8c1.74-0.508 3.257-1.094 4.9-1.798l-0.09 0.675 0.855 0.494 1.44-0.9-0.72-0.809-0.99 0.54-0.314-0.09c0.07-0.03 0.153-0.059 0.225-0.09l1.439-3.507-3.148-1.17zm-14.076 5.262 1.214 0.764h0.945v-0.9l-1.17-0.494zm-3.597 0-0.495 1.304s-0.892 0.126-1.124 0.18c-2.96 2.58-8.953 8.15-10.343 18.662 0.055 0.244 0.99 1.664 0.99 1.664l2.248 1.259 2.293 0.584 0.944 1.125 1.53 1.079 0.854-0.135 0.63 0.27v0.225l-0.81 2.158-0.675 0.944 0.18 0.45-0.494 1.754 1.888 3.328 1.979 1.574 0.854 1.214-0.09 2.428 0.63 1.349-0.63 2.653a0.445 0.445 0 0 0 0 0.27c0.084 0.266 3.474 2.04 3.688 1.889 0.053-0.038 0.042-0.056 0.09-0.09a14.63 14.63 0 0 1-1.889-7.195c0-4.146 1.741-7.845 4.497-10.523l-0.81-1.529-1.618-0.36-0.855-2.158-2.113 0.225-1.844-1.26-1.979 1.62v0.224c-0.587-0.16-1.275-0.19-1.798-0.494l-0.405-1.17v-1.259l-1.35 0.135c0.109-0.808 0.252-1.62 0.36-2.428h-0.764l-0.81 0.944-0.719 0.315-1.08-0.585-0.09-1.259 0.226-1.349 1.574-1.214h1.303l0.27-0.674 1.574 0.36 1.214 1.438 0.18-2.383 2.068-1.574 0.72-1.709 1.574-0.63 0.81-1.168 1.933-0.315 1.034-1.394h-2.967l1.844-0.81h1.304l1.664-0.54 0.315 1.485 0.72-1.035-0.81-0.54 0.18-0.629-0.675-0.584-0.72-0.18 0.18-0.765-0.54-1.034-1.303 0.495 0.225-0.945-1.53-0.81-1.169 1.934 0.135 0.72-1.214 0.495-0.72 1.484-0.36-1.394-2.023-0.81-0.36-1.034 2.744-1.484 1.214-1.08 0.09-1.259-0.675-0.36zm27.79 0.54-0.224 0.134v0.765l-2.114 1.259 0.405 1.889 1.214-0.81 0.81 0.81 0.854 0.494 0.585-1.394-0.315-0.854 0.18-0.315a16.81 16.81 0 0 0-1.394-1.979zm-5.62 1.798v0.81l0.45 0.45v1.213l-0.27 1.53 1.349-0.225 0.989-0.945-0.9-0.764c-0.284-0.717-0.543-1.382-0.899-2.069zm-1.17 1.574-0.809 0.225 0.225 1.439 1.034-0.54zm6.206 0.81-0.764 0.54 0.315 0.809h-1.215l-0.674 1.034-0.81 0.9-1.484 0.314 0.855 0.81 0.225 0.809h-1.08l-1.439 0.764v2.159h0.63l0.63 0.63 1.394-0.63 0.54-1.35 0.989-0.584 0.224-0.45 1.664-0.45 0.9 0.99 1.034 0.495-0.585 1.08 0.855-0.226 0.45-1.079-1.125-1.26h0.495l1.124 0.9 0.225 1.17 0.54 0.584c0.192-0.937 0.314-1.93 0.314-2.923-0.108-1.686-0.52-3.28-1.124-4.812l-1.394 1.125-1.709-0.405zm-0.764 8.589-2.114 0.224-1.844 0.45c-1.06 1.136-2.19 2.328-3.192 3.508l-1.17 2.698 0.54 0.584-0.99 1.44 0.855 1.888c5.386-0.565 9.918-4.111 11.872-8.949l-0.45 0.45-2.068-1.934z" color="#000000" fill="#002e99" opacity=".5"/>
		<path d="m30.95 2.438c7.68 0 14.636 6.966 15.163 15.16 0 7.947-6.457 14.402-14.405 14.402l-0.758 0.047c-7.804 0.397-14.025 6.833-14.025 14.734 0 7.9 6.22 14.337 14.025 14.733v0.048c0.253 6e-3 0.504 0 0.758 0 16.313 0 29.567-13.252 29.567-29.562s-13.254-29.562-29.567-29.562c-0.254 0-0.505-6e-3 -0.758 0z" color="#000000" fill="url(#h)"/>
	</g>
	<rect x="5.5" y="5.4288" width="53" height="53.142" rx="5" ry="5" fill="none" opacity=".3" stroke="url(#g)" stroke-linecap="round" stroke-linejoin="round"/>
	<rect x="4.5" y="4.5" width="55" height="55" rx="6" ry="6" color="#000000" fill="none" opacity=".5" stroke="#2869c7" stroke-linecap="round" stroke-linejoin="round"/>
</svg>