<svg version="1.1" viewBox="0 0 64 64" xmlns="http://www.w3.org/2000/svg">
	<defs>
		<linearGradient id="f" x1="24" x2="24" y1="5" y2="43" gradientTransform="matrix(1.4324 0 0 1.4363 -2.3784 -2.4708)" gradientUnits="userSpaceOnUse">
			<stop stop-color="#fff" offset="0"/>
			<stop stop-color="#fff" stop-opacity=".23529" offset=".063165"/>
			<stop stop-color="#fff" stop-opacity=".15686" offset=".95056"/>
			<stop stop-color="#fff" stop-opacity=".39216" offset="1"/>
		</linearGradient>
		<radialGradient id="i" cx="4.993" cy="43.5" r="2.5" gradientTransform="matrix(2.4045 0 0 1 41.986 15.5)" gradientUnits="userSpaceOnUse">
			<stop stop-color="#181818" offset="0"/>
			<stop stop-color="#181818" stop-opacity="0" offset="1"/>
		</radialGradient>
		<radialGradient id="j" cx="4.993" cy="43.5" r="2.5" gradientTransform="matrix(2.4045 0 0 1 -22.014 -102.5)" gradientUnits="userSpaceOnUse">
			<stop stop-color="#181818" offset="0"/>
			<stop stop-color="#181818" stop-opacity="0" offset="1"/>
		</radialGradient>
		<linearGradient id="g" x1="25.058" x2="25.058" y1="47.028" y2="39.999" gradientTransform="matrix(1.5714 0 0 .71429 -5.7143 27.929)" gradientUnits="userSpaceOnUse">
			<stop stop-color="#181818" stop-opacity="0" offset="0"/>
			<stop stop-color="#181818" offset=".5"/>
			<stop stop-color="#181818" stop-opacity="0" offset="1"/>
		</linearGradient>
		<linearGradient id="h" x1="23.528" x2="23.528" y1="6.0832" y2="44.233" gradientTransform="matrix(1.4103 0 0 1.4103 -1.8462 -3.2564)" gradientUnits="userSpaceOnUse">
			<stop stop-color="#ed5353" offset="0"/>
			<stop stop-color="#c6262e" offset="1"/>
		</linearGradient>
	</defs>
	<rect x="54" y="56.5" width="6" height="5" fill="url(#i)" opacity=".6"/>
	<rect transform="scale(-1)" x="-10" y="-61.5" width="6" height="5" fill="url(#j)" opacity=".6"/>
	<rect x="10" y="56.5" width="44" height="5" fill="url(#g)" opacity=".6"/>
	<rect x="4.5" y="4.5" width="55" height="55" rx="6" ry="6" color="#000000" fill="url(#h)" stop-color="#000000" style="-inkscape-stroke:none;font-variation-settings:normal"/>
	<path d="m32.281 15.438c-0.70791-0.02183-1.4135 0.01396-2.1113 0.09766-1.3985 0.16773-2.7651 0.52845-4.0586 1.0176a1.1066 1.1066 0 0 0-2e-3 0c-3.1089 1.1804-5.9703 3.1504-8.0039 5.8535-2.0407 2.712-3.1848 6.1358-2.918 9.5723a1.1066 1.1066 0 0 0 0 2e-3c0.17527 2.2238 0.93026 4.3638 2.0879 6.2344 1.144 1.8503 2.6714 3.4196 4.3926 4.6875a1.1066 1.1066 0 0 0 1.1133 0.08008c-0.30803 0.19314-0.40721 0.25621-0.71094 0.44727-0.28712 0.17544-0.37935 0.23056-0.66602 0.40625-0.35703 0.21238-0.4761 0.28433-0.83398 0.49805-0.31556 0.18302-0.41837 0.24189-0.73438 0.42578-0.37241 0.21019-0.4972 0.28142-0.86914 0.49219-0.33431 0.18381-0.44316 0.2444-0.77539 0.42773-0.32356 0.17305-0.42872 0.22885-0.75195 0.40234-0.34588 0.17989-0.46006 0.23897-0.80664 0.41992-0.36207 0.18311-0.48202 0.24405-0.84375 0.42773-0.36249 0.17817-0.48162 0.23825-0.8418 0.41602-0.31561 0.15069-0.41735 0.19863-0.73242 0.34961-0.34874 0.16156-0.46397 0.21393-0.81445 0.37695-0.36731 0.16504-0.48898 0.22045-0.85742 0.38672-0.38751 0.16891-0.5169 0.22573-0.90234 0.39453-0.32445 0.13707-0.42871 0.18126-0.75195 0.31836-2.1813 0.89142-3.7261 1.5361-1.7109 0.73242-0.63504 0.2737-0.11788 0.0626 0.76562-0.30078-0.39746 0.17701 0.0072 0.0044 0.20508-0.07617 4.6937-1.3806 9.2341-3.2661 13.545-5.5801 3.0497 1.7596 6.4301 2.8994 9.9102 3.3457 9.2192 1.1791 18.8-1.0963 26.523-6.2598v-11.051a1.1066 1.1066 0 0 0-0.83594 0.31641c-5.7648 6.3601-13.994 10.472-22.541 11.266-2.7025 0.25051-5.3827-0.063643-7.9199-0.77148 1.805-1.0702 3.623-2.1219 5.3262-3.3477a1.1066 1.1066 0 0 0 0.0293-0.02344c2.4425-1.8882 4.9013-4.0468 6.4883-6.9258v-2e-3c0.79602-1.4441 1.3514-3.0522 1.5059-4.7402a1.1066 1.1066 0 0 0 0-2e-3c0.15323-1.6948-0.10984-3.454-0.89063-5.0214a1.1066 1.1066 0 0 0-0.0039-0.0078c-0.67299-1.3239-1.6755-2.4772-2.8926-3.3281a1.1066 1.1066 0 0 0-2e-3 -2e-3c-1.1941-0.83256-2.5597-1.4168-3.9863-1.707-0.70493-0.14677-1.4151-0.22622-2.123-0.24805zm-0.77539 5.041c0.33811-0.0034 0.67312 0.01437 1.002 0.05664 1.2984 0.16708 2.5434 0.75237 3.3223 1.6719 0.63114 0.74589 1.003 1.7582 1.0664 2.7891a1.1066 1.1066 0 0 0 0 2e-3c0.06533 1.0396-0.1651 2.1265-0.60352 3.1387-0.87905 2.0314-2.5736 3.746-4.4082 5.3789a1.1068 1.1068 0 0 0 1.3613 1.709c-0.15178 0.12796-0.19598 0.16494-0.34766 0.29297-0.23091 0.19144-0.3008 0.25033-0.5332 0.44336-0.24596 0.20066-0.32089 0.26221-0.56641 0.46289-0.16587 0.13308-0.21478 0.17126-0.38086 0.30469-0.24639 0.19439-0.32252 0.25335-0.57031 0.44922-0.27716 0.21508-0.3624 0.28276-0.63672 0.49609-0.15063 0.11506-0.19373 0.14895-0.34375 0.26367-0.2047 0.15353-0.26655 0.19869-0.47266 0.35352-0.2812 0.20749-0.36877 0.27221-0.65039 0.48047-0.22016 0.15974-0.28517 0.20821-0.50391 0.36719-0.1804 0.12865-0.23351 0.16598-0.41406 0.29492-0.25442 0.17838-0.33234 0.23259-0.58789 0.41211-0.22798 0.15727-0.31941 0.22123-0.53906 0.37305-0.04429-0.01173-0.09113-0.01662-0.13281-0.03516l0.0039 0.125c-0.04001 0.02767-0.06037 0.04317-0.09961 0.07031-0.35568 0.23646-0.47659 0.3151-0.8418 0.55859-0.16404 0.10722-0.21208 0.13818-0.37695 0.24609a1.1066 1.1066 0 0 0-0.15625-1.7578c-1.2012-0.72496-2.2779-1.5575-3.0938-2.5742a1.1066 1.1066 0 0 0-2e-3 0c-1.0812-1.344-1.8146-2.97-2.0215-4.6426-0.30161-2.4349 0.53665-5.0253 2.0996-7 1.5714-1.9854 3.856-3.4198 6.3379-4.1973 1.0286-0.32036 2.0755-0.52306 3.0898-0.5332z" fill="#a10705" opacity=".15" stop-color="#000000" style="-inkscape-stroke:none;font-variation-settings:normal"/>
	<path d="m9 49a69.912 69.912 0 0 0 23.883-11.99c2.4017-1.8567 4.73-3.9283 6.195-6.5867 0.73333-1.33 1.235-2.7967 1.3733-4.3083 0.13667-1.5117-0.10333-3.0683-0.78-4.4267a7.98 7.98 0 0 0-2.5417-2.925 9.5917 9.5917 0 0 0-3.5733-1.53c-2.555-0.53333-5.24-0.10667-7.6817 0.81667-2.9367 1.115-5.6233 2.975-7.5117 5.485-1.89 2.5117-2.9433 5.6867-2.7 8.82 0.16 2.03 0.855 4.0083 1.9267 5.74 1.0717 1.7333 2.515 3.225 4.16 4.4267 3.2917 2.4033 7.325 3.6183 11.367 4.1367 9.2 1.1767 18.808-1.1917 26.408-6.5083l-0.04-8.6467c-5.9567 6.5717-14.428 10.805-23.26 11.625-3.8117 0.35333-7.7833 0.065-11.227-1.61-1.7217-0.83667-3.2883-2.0167-4.4867-3.51-1.2-1.4917-2.0233-3.3-2.2583-5.2-0.34333-2.7717 0.59667-5.6333 2.33-7.8233 1.7333-2.19 4.2117-3.7317 6.8783-4.5667 1.4717-0.45833 3.03-0.715 4.56-0.51833 1.5283 0.19667 3.0283 0.87833 4.025 2.055 0.80667 0.95333 1.25 2.1883 1.3267 3.435 0.07834 1.2467-0.195 2.5017-0.69167 3.6483-0.99167 2.2917-2.8217 4.1067-4.6867 5.7667a78.038 78.038 0 0 1-22.993 14.195z" color="#000000" fill="#a10705" opacity=".3" overflow="visible" stop-color="#000000" style="-inkscape-stroke:none;font-variation-settings:normal"/>
	<path d="m9 48a69.912 69.912 0 0 0 23.883-11.99c2.4017-1.8567 4.73-3.9283 6.195-6.5867 0.73333-1.33 1.235-2.7967 1.3733-4.3083 0.13667-1.5117-0.10333-3.0683-0.78-4.4267a7.98 7.98 0 0 0-2.5417-2.925 9.5917 9.5917 0 0 0-3.5733-1.53c-2.555-0.53333-5.24-0.10667-7.6817 0.81667-2.9367 1.115-5.6233 2.975-7.5117 5.485-1.89 2.5117-2.9433 5.6867-2.7 8.82 0.16 2.03 0.855 4.0083 1.9267 5.74 1.0717 1.7333 2.515 3.225 4.16 4.4267 3.2917 2.4033 7.325 3.6183 11.367 4.1367 9.2 1.1767 18.808-1.1917 26.408-6.5083l-0.04-8.6467c-5.9567 6.5717-14.428 10.805-23.26 11.625-3.8117 0.35333-7.7833 0.065-11.227-1.61-1.7217-0.83667-3.2883-2.0167-4.4867-3.51-1.2-1.4917-2.0233-3.3-2.2583-5.2-0.34333-2.7717 0.59667-5.6333 2.33-7.8233 1.7333-2.19 4.2117-3.7317 6.8783-4.5667 1.4717-0.45833 3.03-0.715 4.56-0.51833 1.5283 0.19667 3.0283 0.87833 4.025 2.055 0.80667 0.95333 1.25 2.1883 1.3267 3.435 0.07834 1.2467-0.195 2.5017-0.69167 3.6483-0.99167 2.2917-2.8217 4.1067-4.6867 5.7667a78.038 78.038 0 0 1-22.993 14.195z" color="#000000" fill="#fff" overflow="visible" stroke-width="1.6667"/>
	<path d="m30.871 17.834c-1.1527 0.010703-2.3064 0.24024-3.4102 0.58398-2.6667 0.835-5.1436 2.3764-6.877 4.5664-1.5978 2.0188-2.5093 4.6082-2.375 7.1719 0.11711-2.227 0.98515-4.4159 2.375-6.1719 1.7333-2.19 4.2103-3.7314 6.877-4.5664 1.4717-0.45833 3.0305-0.71424 4.5605-0.51758 1.5283 0.19667 3.0287 0.87802 4.0254 2.0547 0.79442 0.93886 1.2338 2.1516 1.3203 3.3789 0.023035-0.31416 0.025652-0.62838 0.005859-0.94336-0.076666-1.2467-0.5195-2.4822-1.3262-3.4355-0.99667-1.1767-2.4971-1.858-4.0254-2.0547-0.3825-0.049167-0.76614-0.069974-1.1504-0.066407zm9.5996 5.9609c-0.005868 0.10687-0.009902 0.2138-0.019531 0.32031-0.13833 1.5117-0.63971 2.9786-1.373 4.3086-1.465 2.6583-3.7936 4.7293-6.1953 6.5859a69.912 69.912 0 0 1-7.1992 4.8203c0.33432 0.14252 0.67313 0.26979 1.0156 0.38867a69.912 69.912 0 0 0 6.1836-4.209c2.4017-1.8567 4.7303-3.9276 6.1953-6.5859 0.73333-1.33 1.2347-2.7969 1.373-4.3086 0.039624-0.43829 0.044697-0.88039 0.019531-1.3203zm-24.818 6.1133c-0.022329 0.48181-0.025745 0.96486 0.011718 1.4473 0.16 2.03 0.85412 4.0086 1.9258 5.7402 0.90246 1.4596 2.0704 2.744 3.3984 3.832a78.038 78.038 0 0 0 0.7168-0.44141c-1.6259-1.1958-3.0536-2.6734-4.1152-4.3906-1.0717-1.7317-1.7658-3.7102-1.9258-5.7402-0.01157-0.14899-0.005962-0.29816-0.011718-0.44727zm43.869 8.2461c-7.5993 5.3145-17.206 7.6803-26.404 6.5039-3.544-0.45451-7.0824-1.4435-10.119-3.3008a69.912 69.912 0 0 1-5.5371 2.627 78.038 78.038 0 0 1-8.4531 4.0137 69.912 69.912 0 0 0 13.99-5.6406c3.0368 1.8573 6.5751 2.8463 10.119 3.3008 9.2 1.1767 18.808-1.1911 26.408-6.5078l-0.003907-0.99609z" fill="#a10705" opacity=".15" stop-color="#000000" style="-inkscape-stroke:none;font-variation-settings:normal"/>
	<rect x="4.5" y="4.5" width="55" height="55" rx="6" ry="6" color="#000000" fill="none" stop-color="#000000" stroke="#a10705" stroke-opacity=".5" style="-inkscape-stroke:none;font-variation-settings:normal"/>
	<rect x="5.5" y="5.4288" width="53" height="53.142" rx="5" ry="5" fill="none" opacity=".35" stroke="url(#f)" stroke-linecap="round" stroke-linejoin="round"/>
</svg>