<svg version="1.1" viewBox="0 0 64 64" xmlns="http://www.w3.org/2000/svg" xmlns:xlink="http://www.w3.org/1999/xlink">
	<defs>
		<linearGradient id="g" x1="24" x2="24" y1="5.9094" y2="42.092" gradientTransform="matrix(1.4324 0 0 1.4363 -2.3784 -2.4708)" gradientUnits="userSpaceOnUse">
			<stop stop-color="#fff" offset="0"/>
			<stop stop-color="#fff" stop-opacity=".23529" offset=".034875"/>
			<stop stop-color="#fff" stop-opacity=".15686" offset=".96216"/>
			<stop stop-color="#fff" stop-opacity=".39216" offset="1"/>
		</linearGradient>
		<linearGradient id="b">
			<stop stop-color="#181818" offset="0"/>
			<stop stop-color="#181818" stop-opacity="0" offset="1"/>
		</linearGradient>
		<radialGradient id="e" cx="4.993" cy="43.5" r="2.5" gradientTransform="matrix(2.4045 0 0 1 41.986 15.5)" gradientUnits="userSpaceOnUse" xlink:href="#b"/>
		<radialGradient id="d" cx="4.993" cy="43.5" r="2.5" gradientTransform="matrix(2.4045 0 0 1 -22.014 -102.5)" gradientUnits="userSpaceOnUse" xlink:href="#b"/>
		<linearGradient id="f" x1="25.058" x2="25.058" y1="47.028" y2="39.999" gradientTransform="matrix(1.5714 0 0 .71429 -5.7143 27.929)" gradientUnits="userSpaceOnUse">
			<stop stop-color="#181818" stop-opacity="0" offset="0"/>
			<stop stop-color="#181818" offset=".5"/>
			<stop stop-color="#181818" stop-opacity="0" offset="1"/>
		</linearGradient>
		<linearGradient id="c" x1="198.27" x2="198.27" y1="346.53" y2="20.551" gradientTransform="scale(.70864 1.4111)" gradientUnits="userSpaceOnUse">
			<stop stop-color="#420C5D" offset="0"/>
			<stop stop-color="#951AD1" offset="1"/>
		</linearGradient>
		<path id="a" d="m25 29c127.58 0 231 102.97 231 230s-103.42 230-231 230z"/>
		<filter id="i" x="-.13853" y="-.052174" width="1.2424" height="1.1043">
			<feOffset dx="-8" dy="0" in="SourceAlpha" result="shadowOffsetOuter1"/>
			<feGaussianBlur in="shadowOffsetOuter1" result="shadowBlurOuter1" stdDeviation="10"/>
			<feColorMatrix in="shadowBlurOuter1" values="0 0 0 0 0.250980392   0 0 0 0 0.250980392   0 0 0 0 0.250980392  0 0 0 0.2 0"/>
		</filter>
		<linearGradient id="h" x1="256" x2="256" y1="512" gradientUnits="userSpaceOnUse" xlink:href="#c"/>
	</defs>
	<g>
		<rect x="54" y="56.5" width="6" height="5" fill="url(#e)" opacity=".6"/>
		<rect transform="scale(-1)" x="-10" y="-61.5" width="6" height="5" fill="url(#d)" opacity=".6"/>
		<rect x="10" y="56.5" width="44" height="5" fill="url(#f)" opacity=".6"/>
	</g>
	<rect x="4.5" y="4.5" width="55" height="55" rx="6" ry="6" color="#000000" fill="#fff"/>
	<g fill="none">
		<rect x="5.5" y="5.4288" width="53" height="53.142" rx="5" ry="5" opacity=".3" stroke="url(#g)" stroke-linecap="round" stroke-linejoin="round"/>
		<rect x="4.5" y="4.5" width="55" height="55" rx="6" ry="6" color="#000000" opacity=".5" stroke="#470d64" stroke-linecap="round" stroke-linejoin="round"/>
		<g transform="matrix(.077864 0 0 .077864 12.067 12.028)" fill-rule="evenodd">
			<circle cx="256" cy="256" r="246" fill="#f2e4ff" fill-rule="nonzero"/>
			<path d="m256.53 465.44v-31.033c98.301-0.28386 177.9-80.042 177.9-178.41 0-98.365-79.595-178.12-177.9-178.41v-31.033c115.44 0.29096 208.92 93.937 208.92 209.44 0 115.51-93.482 209.16-208.92 209.45zm0-108.62c55.445-0.29095 100.32-45.304 100.32-100.83 0-55.516-44.878-100.53-100.32-100.82v-31.026c72.59 0.28386 131.36 59.192 131.36 131.85 0 72.661-58.766 131.57-131.36 131.85zm0-155.1c29.742 0.28386 53.777 24.462 53.777 54.274 0 29.82-24.036 53.997-53.777 54.281zm-256.53 54.274c0 141.39 114.61 256.01 256 256.01 141.38 0 256-114.62 256-256.01 0-141.38-114.62-255.99-256-255.99-141.39 0-256 114.61-256 255.99z" fill="url(#h)"/>
			<g transform="matrix(-1,0,0,1,281,0)">
				<use fill="#000000" filter="url(#i)" xlink:href="#a"/>
				<use fill="url(#c)" fill-rule="evenodd" xlink:href="#a"/>
			</g>
		</g>
	</g>
</svg>