<svg version="1.1" viewBox="0 0 64 64" xmlns="http://www.w3.org/2000/svg" xmlns:xlink="http://www.w3.org/1999/xlink">
	<defs>
		<linearGradient id="g" x1="24" x2="24" y1="5" y2="43" gradientTransform="matrix(1.4324 0 0 1.4363 -2.3784 -2.4708)" gradientUnits="userSpaceOnUse">
			<stop stop-color="#fff" offset="0"/>
			<stop stop-color="#fff" stop-opacity=".23529" offset=".063165"/>
			<stop stop-color="#fff" stop-opacity=".15686" offset=".95056"/>
			<stop stop-color="#fff" stop-opacity=".39216" offset="1"/>
		</linearGradient>
		<radialGradient id="k" cx="6.9529" cy="9.9571" r="12.672" gradientTransform="matrix(0 8.3741 -10.281 0 135.54 -79.763)" gradientUnits="userSpaceOnUse">
			<stop stop-color="#404648" offset="0"/>
			<stop stop-color="#0c1011" offset="1"/>
		</radialGradient>
		<linearGradient id="a">
			<stop stop-color="#181818" offset="0"/>
			<stop stop-color="#181818" stop-opacity="0" offset="1"/>
		</linearGradient>
		<radialGradient id="i" cx="4.993" cy="43.5" r="2.5" gradientTransform="matrix(2.4045 0 0 1 41.986 15.5)" gradientUnits="userSpaceOnUse" xlink:href="#a"/>
		<radialGradient id="j" cx="4.993" cy="43.5" r="2.5" gradientTransform="matrix(2.4045 0 0 1 -22.014 -102.5)" gradientUnits="userSpaceOnUse" xlink:href="#a"/>
		<linearGradient id="h" x1="25.058" x2="25.058" y1="47.028" y2="39.999" gradientTransform="matrix(1.5714 0 0 .71429 -5.7143 27.929)" gradientUnits="userSpaceOnUse">
			<stop stop-color="#181818" stop-opacity="0" offset="0"/>
			<stop stop-color="#181818" offset=".5"/>
			<stop stop-color="#181818" stop-opacity="0" offset="1"/>
		</linearGradient>
	</defs>
	<rect x="54" y="56.5" width="6" height="5" fill="url(#i)" opacity=".6"/>
	<rect transform="scale(-1)" x="-10" y="-61.5" width="6" height="5" fill="url(#j)" opacity=".6"/>
	<rect x="10" y="56.5" width="44" height="5" fill="url(#h)" opacity=".6"/>
	<rect x="4.5" y="4.5" width="55" height="55" rx="6" ry="6" color="#000000" fill="url(#k)" opacity=".9"/>
	<rect x="5.5" y="5.4288" width="53" height="53.142" rx="5" ry="5" fill="none" opacity=".3" stroke="url(#g)" stroke-linecap="round" stroke-linejoin="round"/>
	<rect x="4.5" y="4.5" width="55" height="55" rx="6" ry="6" color="#000000" fill="none" opacity=".7" stroke="#000" stroke-linecap="round" stroke-linejoin="round"/>
	<g shape-rendering="auto">
		<path d="m17 14.004a0.9968 0.9968 0 0 0-0.99609 0.99609v1.5391c-0.49285 0.18671-1.0139 0.32129-1.4141 0.66797a0.9968 0.9968 0 0 0-0.0039 0.0039c-0.94934 0.82882-1.4395 2.0504-1.4395 3.3867 0 0.71932 0.13727 1.4026 0.44141 2.0059 0.27931 0.554 0.65999 1.0481 1.125 1.4629 0.48741 0.43474 1.1186 0.81198 1.918 1.1992 0.78001 0.38245 1.3118 0.68057 1.4512 0.77734a0.9968 0.9968 0 0 0 0.0078 0.0059c0.18744 0.12738 0.29063 0.2375 0.33398 0.30078a0.9968 0.9968 0 0 0 0.0078 0.01172c0.01549 0.02195 0.01953 0.01521 0.01953 0.08398 0 0.21483 0.0015 0.15961-0.05273 0.19922a0.9968 0.9968 0 0 0-0.0078 0.0059c-0.06031 0.04488-0.27133 0.13867-0.71289 0.13867-0.36851 0-0.80971-0.06183-1.3184-0.19922-0.48978-0.13375-1.1482-0.3827-1.9434-0.74805a0.9968 0.9968 0 0 0-1.4121 0.90625v2.4902a0.9968 0.9968 0 0 0 0.54688 0.89062c0.73978 0.37265 1.6026 0.48041 2.4531 0.60938v1.2617a0.9968 0.9968 0 0 0 0.9961 0.99602h2a0.9968 0.9968 0 0 0 0.99609-0.99609v-1.5566c0.49931-0.18458 1.0256-0.32152 1.4355-0.66016l2e-3 -2e-3c1.0176-0.837 1.5625-2.0927 1.5625-3.4668 0-0.99497-0.27278-1.9297-0.83594-2.6797-0.58732-0.78829-1.494-1.3997-2.7168-2.002-0.84897-0.41762-1.4126-0.7322-1.5195-0.80469-0.13653-0.10315-0.20796-0.1863-0.22266-0.20898-0.0082-0.01346-0.01953-0.0268-0.01953-0.10742 0-0.15097-5.01e-4 -0.12521 0.06445-0.18359 0.03046-0.02738 0.13426-0.09961 0.46875-0.09961 0.32669 0 0.66002 0.04272 1.0098 0.13281a0.9968 0.9968 0 0 0 2e-3 2e-3c0.35557 0.0904 0.86156 0.2652 1.4863 0.5293a0.9968 0.9968 0 0 0 1.3125-0.54492l0.83984-2.084a0.9968 0.9968 0 0 0-0.51758-1.2832c-0.67464-0.30142-1.3302-0.53807-1.9688-0.70898h-2e-3c-0.1291-0.03482-0.25282-0.03853-0.38086-0.06445v-1.207a0.9968 0.9968 0 0 0-0.99614-0.9961h-2zm9 19a0.9968 0.9968 0 0 0-0.99609 0.99609v2a0.9968 0.9968 0 0 0 0.99609 0.99609h11a0.9968 0.9968 0 0 0 0.99609-0.99609v-2a0.9968 0.9968 0 0 0-0.99609-0.99609h-11z" color="#000000" color-rendering="auto" image-rendering="auto" opacity=".15" solid-color="#000000" style="isolation:auto;mix-blend-mode:normal"/>
		<path d="m17 15v2.1426c-0.69421 0.14841-1.289 0.41216-1.7578 0.81836-0.73312 0.64005-1.0996 1.5181-1.0996 2.6367 0 0.59392 0.11208 1.1126 0.33594 1.5566 0.22385 0.444 0.52348 0.83353 0.89844 1.168 0.37496 0.33444 0.93759 0.6836 1.6875 1.0469 0.80028 0.3921 1.3285 0.67672 1.5859 0.85547 0.26303 0.17875 0.46139 0.36645 0.5957 0.5625 0.13431 0.19029 0.20117 0.41026 0.20117 0.6582 0 0.444-0.15314 0.77902-0.46094 1.0039-0.3022 0.22488-0.73776 0.33594-1.3086 0.33594-0.47569 0-1.0017-0.07673-1.5781-0.23242-0.57083-0.15569-1.2713-0.42412-2.0996-0.80469v2.4902c0.88194 0.44426 1.8864 0.68298 3 0.73828v2.0234h2v-2.1699c0.7097-0.15714 1.3183-0.41892 1.7988-0.81641 0.80028-0.65735 1.2012-1.5575 1.2012-2.6992 0-0.82457-0.21335-1.5189-0.63867-2.084-0.42532-0.57086-1.2102-1.138-2.3574-1.7031-0.86744-0.4267-1.4192-0.72136-1.6543-0.88281-0.22945-0.16722-0.39758-0.33678-0.50391-0.50976-0.10633-0.17875-0.16016-0.38663-0.16016-0.62305 0-0.38057 0.1315-0.68936 0.39453-0.92578s0.64229-0.35352 1.1348-0.35352c0.41413 0 0.83249 0.0545 1.2578 0.16406 0.43092 0.10956 0.97413 0.30135 1.6289 0.57812l0.83984-2.084c-0.63239-0.28255-1.2402-0.50056-1.8223-0.65625-0.35995-0.097219-0.73519-0.15294-1.1191-0.18945v-2.0449h-2zm9 19v2h11v-2h-11z" color="#000000" color-rendering="auto" image-rendering="auto" opacity=".3" solid-color="#000000" style="filter-blend-mode:normal;filter-gaussianBlur-deviation:0;isolation:auto;mix-blend-mode:normal"/>
		<path d="m17 14v2.1426c-0.69421 0.14841-1.289 0.41216-1.7578 0.81836-0.73312 0.64005-1.0996 1.5181-1.0996 2.6367 0 0.59392 0.11208 1.1126 0.33594 1.5566 0.22385 0.444 0.52348 0.83353 0.89844 1.168 0.37496 0.33444 0.93759 0.6836 1.6875 1.0469 0.80028 0.3921 1.3285 0.67672 1.5859 0.85547 0.26303 0.17875 0.46139 0.36645 0.5957 0.5625 0.13431 0.19029 0.20117 0.41026 0.20117 0.6582 0 0.444-0.15314 0.77902-0.46094 1.0039-0.3022 0.22488-0.73776 0.33594-1.3086 0.33594-0.47569 0-1.0017-0.076733-1.5781-0.23242-0.57083-0.15569-1.2713-0.42412-2.0996-0.80469v2.4902c0.88194 0.44426 1.8864 0.68298 3 0.73828v2.0234h2v-2.1699c0.7097-0.15714 1.3183-0.41892 1.7988-0.81641 0.80028-0.65735 1.2012-1.5575 1.2012-2.6992 0-0.82457-0.21335-1.5189-0.63867-2.084-0.42532-0.57086-1.2102-1.138-2.3574-1.7031-0.86744-0.4267-1.4192-0.72136-1.6543-0.88281-0.22945-0.16722-0.39758-0.33678-0.50391-0.50976-0.10633-0.17875-0.16016-0.38663-0.16016-0.62305 0-0.38057 0.1315-0.68936 0.39453-0.92578s0.64229-0.35352 1.1348-0.35352c0.41413 0 0.83249 0.054504 1.2578 0.16406 0.43092 0.10956 0.97413 0.30135 1.6289 0.57812l0.83984-2.084c-0.63239-0.28255-1.2402-0.50056-1.8223-0.65625-0.35995-0.097219-0.73519-0.15294-1.1191-0.18945v-2.0449h-2zm9 19v2h11v-2h-11z" color="#000000" color-rendering="auto" fill="#fff" image-rendering="auto" solid-color="#000000" style="isolation:auto;mix-blend-mode:normal"/>
		<path d="m21.596 16.75-0.49414 1.2246c-0.65477-0.27678-1.198-0.46857-1.6289-0.57812-0.42532-0.10956-0.84368-0.16406-1.2578-0.16406-0.49248 0-0.87174 0.1171-1.1348 0.35352-0.26303 0.23642-0.39453 0.54521-0.39453 0.92578 0 0.17717 0.039707 0.33364 0.099609 0.47852 0.065749-0.15267 0.16455-0.28712 0.29492-0.4043 0.26303-0.23642 0.64229-0.35352 1.1348-0.35352 0.41413 0 0.83249 0.054504 1.2578 0.16406 0.43092 0.10956 0.97413 0.30135 1.6289 0.57812l0.83984-2.084c-0.11772-0.052594-0.2297-0.092488-0.3457-0.14062zm-7.4062 2.3086c-0.021174 0.17624-0.046875 0.34893-0.046875 0.53906 0 0.59392 0.11208 1.1126 0.33594 1.5566 0.22385 0.444 0.52348 0.83353 0.89844 1.168 0.37496 0.33444 0.93759 0.6836 1.6875 1.0469 0.80028 0.3921 1.3285 0.67672 1.5859 0.85547 0.26303 0.17875 0.46139 0.36645 0.5957 0.5625 0.044139 0.062535 0.070018 0.13229 0.099609 0.20117 0.065537-0.1585 0.10156-0.33782 0.10156-0.54297 0-0.24795-0.06686-0.46792-0.20117-0.6582-0.13431-0.19605-0.33267-0.38375-0.5957-0.5625-0.25743-0.17875-0.78566-0.46336-1.5859-0.85547-0.74991-0.36327-1.3125-0.71243-1.6875-1.0469-0.37496-0.33444-0.67458-0.72397-0.89844-1.168-0.16199-0.32129-0.24425-0.69598-0.28906-1.0957zm7.7715 5.6738c-0.090029 0.94023-0.46502 1.7087-1.1621 2.2812-0.48052 0.39748-1.0891 0.65927-1.7988 0.81641v1c0.7097-0.15714 1.3183-0.41892 1.7988-0.81641 0.80028-0.65735 1.2012-1.5575 1.2012-2.6992 0-0.20209-0.013452-0.39557-0.039062-0.58203zm-7.9609 2.5059v1c0.88194 0.44426 1.8864 0.68298 3 0.73828v-1c-1.1136-0.055305-2.1181-0.29402-3-0.73828zm3 2.7617v1h2v-1h-2zm9 4v1h11v-1h-11z" color="#000000" color-rendering="auto" image-rendering="auto" opacity=".15" solid-color="#000000" style="isolation:auto;mix-blend-mode:normal"/>
	</g>
</svg>