<svg version="1.1" viewBox="0 0 64 64" xmlns="http://www.w3.org/2000/svg" xmlns:xlink="http://www.w3.org/1999/xlink">
	<defs>
		<linearGradient id="g" x1="24" x2="24" y1="5" y2="43" gradientTransform="matrix(1.4324 0 0 1.4363 -2.3784 -2.4708)" gradientUnits="userSpaceOnUse">
			<stop stop-color="#fff" offset="0"/>
			<stop stop-color="#fff" stop-opacity=".23529" offset=".063165"/>
			<stop stop-color="#fff" stop-opacity=".15686" offset=".95056"/>
			<stop stop-color="#fff" stop-opacity=".39216" offset="1"/>
		</linearGradient>
		<linearGradient id="b">
			<stop stop-color="#181818" offset="0"/>
			<stop stop-color="#181818" stop-opacity="0" offset="1"/>
		</linearGradient>
		<radialGradient id="d" cx="4.993" cy="43.5" r="2.5" gradientTransform="matrix(2.4045 0 0 1 41.986 15.5)" gradientUnits="userSpaceOnUse" xlink:href="#b"/>
		<radialGradient id="c" cx="4.993" cy="43.5" r="2.5" gradientTransform="matrix(2.4045 0 0 1 -22.014 -102.5)" gradientUnits="userSpaceOnUse" xlink:href="#b"/>
		<linearGradient id="e" x1="25.058" x2="25.058" y1="47.028" y2="39.999" gradientTransform="matrix(1.5714 0 0 .71429 -5.7143 27.929)" gradientUnits="userSpaceOnUse">
			<stop stop-color="#181818" stop-opacity="0" offset="0"/>
			<stop stop-color="#181818" offset=".5"/>
			<stop stop-color="#181818" stop-opacity="0" offset="1"/>
		</linearGradient>
		<linearGradient id="i" x1="10" x2="20" y1="-3" y2="12" gradientTransform="matrix(2.414 0 0 2.1108 -18.556 21.395)" gradientUnits="userSpaceOnUse">
			<stop stop-color="#fff" offset="0"/>
			<stop stop-color="#fff" stop-opacity="0" offset="1"/>
		</linearGradient>
		<linearGradient id="a">
			<stop stop-color="#31018f" offset="0"/>
			<stop stop-color="#347ac9" offset="1"/>
		</linearGradient>
		<linearGradient id="f" x1="38.542" x2="38.542" y1="138.22" y2="193.82" gradientTransform="translate(0 -198)" gradientUnits="userSpaceOnUse" xlink:href="#a"/>
		<clipPath id="j">
			<rect transform="scale(1,-1)" x="78.356" y="-44.063" width="33.97" height="33.97" rx="3.7058" ry="3.7058" color="#000000" fill="url(#h)" stop-color="#000000" stroke="#31018f" stroke-width=".61764" style="-inkscape-stroke:none;font-variation-settings:normal"/>
		</clipPath>
		<linearGradient id="h" x1="38.542" x2="38.542" y1="138.22" y2="193.82" gradientTransform="matrix(.61764 0 0 .61764 75.577 -129.61)" gradientUnits="userSpaceOnUse" xlink:href="#a"/>
	</defs>
	<g>
		<rect x="54" y="56.5" width="6" height="5" fill="url(#d)" opacity=".6"/>
		<rect transform="scale(-1)" x="-10" y="-61.5" width="6" height="5" fill="url(#c)" opacity=".6"/>
		<rect x="10" y="56.5" width="44" height="5" fill="url(#e)" opacity=".6"/>
	</g>
	<rect transform="scale(1,-1)" x="4.5" y="-59.5" width="55" height="55" rx="6" ry="6" color="#000000" fill="url(#f)" stop-color="#000000" stroke="#31018f" style="-inkscape-stroke:none;font-variation-settings:normal"/>
	<g transform="matrix(1.5902 0 0 1.5902 -119.61 -11.058)" clip-path="url(#j)">
		<path d="m113.87 28.645c-6.2726 0-0.33505 7.266-18.533 7.266v2.6667h8c9.3915 0 7.676-7.4559 11.148-7.3597 3.3854 0.09376 2.8578 2.2416 4.7188 2.7604-0.78536-2.7564-2.6667-5.3333-5.3333-5.3333z" opacity=".3"/>
		<circle cx="95.339" cy="26.578" r="8" opacity=".3"/>
		<path d="m94.882 15.586a12.002 12 0 0 0-11.135 8.8887 12.002 12 0 0 0 8.4863 14.695 12.002 12 0 0 0 14.697-8.4844 12.002 12 0 0 0-8.4863-14.697 12.002 12 0 0 0-3.5625-0.40234zm0.64844 2.6719a9.3333 9.3333 0 0 1 0.91016 0.05859l-1.5547 5.8086-3.0039-5.2031a9.3333 9.3333 0 0 1 3.6484-0.66406zm3.4844 0.75391a9.3333 9.3333 0 0 1 3.6484 2.8008l-5.2031 3zm-9.4414 1.2422 3 5.2031-5.8008-1.5547a9.3333 9.3333 0 0 1 2.8008-3.6484zm14.422 3.8672a9.3333 9.3333 0 0 1 0.60547 4.5586l-5.8086-1.5547zm-8.6563 1.457a2 2 0 0 1 2 2 2 2 0 0 1-2 2 2 2 0 0 1-2-2 2 2 0 0 1 2-2zm-9.2617 0.89844 5.8086 1.5547-5.2031 3.0039a9.3333 9.3333 0 0 1-0.60547-4.5586zm12.027 3.2227 5.8008 1.5547a9.3333 9.3333 0 0 1-2.8008 3.6484zm-4.8867 0.64453-1.5547 5.8008a9.3333 9.3333 0 0 1-3.6484-2.8008zm2.5742 0.6875 3.0039 5.2031a9.3333 9.3333 0 0 1-4.5586 0.60547z" opacity=".2"/>
		<path d="m94.882 14.586a12.002 12 0 0 0-11.135 8.8887 12.002 12 0 0 0 8.4863 14.695 12.002 12 0 0 0 14.697-8.4844 12.002 12 0 0 0-8.4863-14.697 12.002 12 0 0 0-3.5625-0.40234zm0.64844 2.6719a9.3333 9.3333 0 0 1 0.91016 0.05859l-1.5547 5.8086-3.0039-5.2031a9.3333 9.3333 0 0 1 3.6484-0.66406zm3.4844 0.75391a9.3333 9.3333 0 0 1 3.6484 2.8008l-5.2031 3zm-9.4414 1.2422 3 5.2031-5.8008-1.5547a9.3333 9.3333 0 0 1 2.8008-3.6484zm14.422 3.8672a9.3333 9.3333 0 0 1 0.60547 4.5586l-5.8086-1.5547zm-8.6563 1.457a2 2 0 0 1 2 2 2 2 0 0 1-2 2 2 2 0 0 1-2-2 2 2 0 0 1 2-2zm-9.2617 0.89844 5.8086 1.5547-5.2031 3.0039a9.3333 9.3333 0 0 1-0.60547-4.5586zm12.027 3.2227 5.8008 1.5547a9.3333 9.3333 0 0 1-2.8008 3.6484zm-4.8867 0.64453-1.5547 5.8008a9.3333 9.3333 0 0 1-3.6484-2.8008zm2.5742 0.6875 3.0039 5.2031a9.3333 9.3333 0 0 1-4.5586 0.60547z" fill="#fff"/>
	</g>
	<rect x="5.5" y="5.4288" width="53" height="53.142" rx="5" ry="5" fill="none" opacity=".3" stroke="url(#g)" stroke-linecap="round" stroke-linejoin="round"/>
	<path d="m10.891 5c-3.2636 0-5.8909 2.6273-5.8909 5.8909v25.546l54-15.494v-10.052c0-3.2636-2.6273-5.8909-5.8909-5.8909z" fill="url(#i)" opacity=".15"/>
</svg>